<?xml version="1.0" standalone="no"?>
<!DOCTYPE svg PUBLIC "-//W3C//DTD SVG 20010904//EN"
 "http://www.w3.org/TR/2001/REC-SVG-20010904/DTD/svg10.dtd">
<svg version="1.0" xmlns="http://www.w3.org/2000/svg"
 width="700.000000pt" height="438.000000pt" viewBox="0 0 700.000000 438.000000"
 preserveAspectRatio="xMidYMid meet">

<g transform="translate(0.000000,438.000000) scale(0.100000,-0.100000)"
fill="#000000" stroke="none">
<path d="M1660 3083 c0 -6 14 -68 31 -137 16 -69 27 -131 23 -138 -5 -8 7 -9
47 -5 30 4 68 7 84 7 23 0 27 3 15 10 -8 5 -31 10 -50 10 -60 0 -74 18 -105
137 -25 97 -45 148 -45 116z"/>
<path d="M2730 2850 c-269 -13 -480 -30 -650 -51 -168 -21 -558 -84 -609 -99
-17 -5 -31 -6 -31 -2 0 18 42 68 62 74 37 12 -94 1 -270 -23 -188 -25 -202
-37 -92 -76 36 -12 70 -24 75 -27 6 -2 1 -11 -10 -19 -64 -47 -230 -184 -294
-241 -40 -36 -80 -66 -87 -66 -8 0 -14 -6 -14 -13 0 -18 -53 -65 -121 -109
-49 -32 -58 -42 -62 -75 -3 -21 -9 -52 -12 -69 -5 -21 -2 -34 9 -43 11 -9 16
-10 16 -2 0 6 5 11 10 11 6 0 10 -16 10 -35 0 -19 4 -35 8 -35 4 0 6 16 4 35
-4 32 -2 35 22 35 24 0 26 -4 26 -39 0 -51 -17 -65 -55 -45 -15 8 -29 13 -31
12 -1 -2 -5 -51 -7 -110 -5 -114 -21 -159 -78 -223 -23 -26 -27 -41 -32 -122
-3 -50 -3 -94 1 -97 3 -4 8 -47 10 -96 2 -65 0 -90 -9 -90 -8 0 -10 -15 -7
-50 4 -38 16 -67 51 -119 51 -76 58 -80 190 -104 70 -13 78 -13 86 2 8 14 10
14 15 1 2 -8 18 -53 33 -100 l29 -85 -31 -2 c-16 -2 -61 -12 -100 -23 -143
-43 -151 -51 -104 -110 40 -49 84 -65 244 -85 208 -26 403 -34 598 -23 100 5
263 7 362 3 202 -8 2629 -7 2885 1 91 3 265 0 387 -6 237 -12 340 -7 633 30
267 35 293 46 228 106 -39 35 -83 52 -164 61 l-51 5 31 74 c16 41 34 74 39 74
6 0 20 -11 33 -25 12 -14 29 -23 36 -20 7 2 72 11 143 20 271 32 346 46 366
68 25 27 20 60 -15 96 l-29 30 17 59 c9 32 16 67 16 79 0 11 7 33 15 49 8 16
17 66 21 111 l7 82 -32 19 c-49 30 -65 60 -67 122 -2 68 -2 68 -14 50 -8 -12
-10 -12 -10 5 0 11 5 27 10 35 6 10 4 22 -6 37 -10 17 -11 23 -2 23 20 0 -43
59 -112 105 -186 123 -436 211 -800 281 -133 26 -216 37 -296 38 -88 2 -117 6
-135 19 -23 17 -23 17 -1 7 44 -21 21 0 -27 24 -28 14 -57 23 -69 19 -15 -3
-62 20 -159 79 -264 161 -519 297 -798 425 -152 69 -468 135 -705 147 -231 12
-370 13 -530 6z m-1270 -87 c0 -5 -8 -18 -18 -29 -14 -18 -37 -24 -142 -37
-112 -14 -128 -14 -160 0 l-35 16 165 27 c192 32 190 32 190 23z m-165 -277
c-12 -8 -16 -20 -12 -35 3 -11 1 -19 -4 -15 -13 8 -11 52 4 57 24 10 31 7 12
-7z m3185 -94 c126 -72 362 -220 370 -232 3 -4 32 -17 65 -29 64 -22 35 -20
-53 5 -29 8 -50 19 -47 24 3 5 -13 19 -37 31 -23 12 -58 32 -78 44 -19 12
-118 73 -220 135 -102 63 -189 118 -195 123 -16 15 69 -29 195 -101z m-3150
43 c-7 -8 -16 -15 -21 -15 -5 0 -1 8 9 18 20 22 31 19 12 -3z m-441 -171 l-34
-35 49 27 c47 26 50 27 125 15 42 -6 99 -11 126 -11 79 0 87 -16 14 -28 -237
-40 -293 -46 -297 -34 -6 19 -22 14 -22 -7 0 -30 -28 -51 -68 -51 l-37 1 40
35 c45 41 29 35 -26 -9 -29 -22 -45 -28 -75 -25 l-39 3 48 30 c27 17 68 45 92
63 33 26 89 51 134 61 3 1 -11 -15 -30 -35z m3512 4 c64 -36 43 -54 -26 -21
-19 9 -35 23 -35 30 0 19 17 16 61 -9z m-168 -29 c21 -5 35 -13 33 -18 -3 -4
15 -13 40 -19 46 -13 56 -27 26 -37 -20 -6 -157 11 -174 21 -5 4 -8 15 -5 25
3 11 1 19 -4 19 -5 0 -9 5 -9 10 0 13 45 13 93 -1z m-3313 -119 c19 -6 9 -8
-37 -9 -53 -1 -66 -5 -86 -27 l-24 -25 -17 26 c-19 28 -15 32 44 38 58 6 94 5
120 -3z m918 3 c-16 -2 -40 -2 -55 0 -16 2 -3 4 27 4 30 0 43 -2 28 -4z
m-1112 -12 c-7 -11 -76 -20 -76 -10 0 10 20 17 53 18 16 1 26 -3 23 -8z m1008
-6 c-21 -16 -50 -19 -58 -6 -3 4 5 6 18 4 13 -3 27 0 30 6 4 6 12 11 19 11 6
0 2 -7 -9 -15z m333 -25 c75 -6 138 -12 140 -14 2 -2 -44 -6 -102 -10 -88 -6
-108 -4 -121 9 -9 8 -28 15 -43 15 -16 0 -35 7 -42 17 -13 15 -12 15 9 4 12
-6 84 -16 159 -21z m-455 13 c-12 -2 -27 -13 -33 -24 -8 -17 -19 -20 -62 -17
-39 2 -53 7 -55 20 -3 14 6 18 50 21 76 5 127 5 100 0z m3505 1 c-3 -3 -12 -4
-19 -1 -8 3 -5 6 6 6 11 1 17 -2 13 -5z m-3671 -41 c-1 -2 -51 1 -112 6 l-109
8 80 2 c44 1 89 6 100 10 14 6 24 3 32 -8 6 -9 10 -17 9 -18z m3791 21 c-3 -3
-12 -4 -19 -1 -8 3 -5 6 6 6 11 1 17 -2 13 -5z m-3574 -11 c-7 -2 -19 -2 -25
0 -7 3 -2 5 12 5 14 0 19 -2 13 -5z m197 -3 l65 -7 -60 0 c-33 -1 -89 3 -125
7 l-65 7 60 0 c33 1 89 -3 125 -7z m3437 4 c-3 -3 -12 -4 -19 -1 -8 3 -5 6 6
6 11 1 17 -2 13 -5z m56 -11 c-7 -2 -19 -2 -25 0 -7 3 -2 5 12 5 14 0 19 -2
13 -5z m-3170 -10 c-13 -2 -33 -2 -45 0 -13 2 -3 4 22 4 25 0 35 -2 23 -4z
m997 -37 c0 -2 -16 -6 -35 -8 -19 -2 -35 0 -35 4 0 4 16 8 35 8 19 0 35 -2 35
-4z m208 -13 c-10 -2 -28 -2 -40 0 -13 2 -5 4 17 4 22 1 32 -1 23 -4z m-2068
-80 c0 -71 -57 -123 -135 -123 -41 0 -95 44 -95 77 1 11 6 7 14 -13 19 -43 33
-50 28 -13 -2 16 -8 32 -12 34 -5 3 -2 18 6 33 7 15 14 33 14 40 0 6 1 12 3
13 1 0 24 3 51 5 27 3 58 9 70 14 29 11 56 -21 56 -67z m2143 70 c-7 -2 -21
-2 -30 0 -10 3 -4 5 12 5 17 0 24 -2 18 -5z m-2036 -17 c37 -10 53 -11 56 -3
3 9 127 -221 127 -236 0 -2 -6 -4 -12 -5 -40 -5 -78 -15 -78 -21 0 -4 -37 -3
-82 1 -46 4 -115 5 -154 1 -67 -5 -72 -4 -79 16 -3 11 -3 25 0 31 3 5 0 10 -7
11 -7 0 2 5 21 11 81 23 128 89 117 165 -5 40 -4 43 17 43 12 0 45 -6 74 -14z
m2696 -23 c-13 -2 -35 -2 -50 0 -16 2 -5 4 22 4 28 0 40 -2 28 -4z m533 -40
c-3 -3 -110 3 -238 14 l-233 19 209 -2 c114 -1 220 2 235 5 21 6 27 4 29 -12
2 -10 1 -21 -2 -24z m209 16 c39 -6 111 -19 160 -29 50 -10 129 -23 178 -30
147 -22 90 -22 -114 0 -222 24 -378 39 -396 40 -7 0 -13 8 -13 18 0 16 7 18
58 15 31 -2 89 -8 127 -14z m-4159 -45 c18 -8 48 -14 66 -15 28 0 30 -2 13 -9
-40 -17 -103 -11 -125 12 -21 22 -25 40 -13 52 4 3 11 -1 16 -10 5 -9 24 -22
43 -30z m921 -25 c23 -35 25 -45 16 -69 -7 -18 -7 -33 -1 -44 6 -10 8 -19 6
-22 -5 -4 -108 188 -108 200 0 18 63 -30 87 -65z m4148 -44 c6 -2 -8 -2 -30 1
-37 6 -125 38 -125 47 0 3 131 -37 155 -48z m-2718 13 c-3 -7 -5 -2 -5 12 0
14 2 19 5 13 2 -7 2 -19 0 -25z m1806 16 c9 -3 17 -10 17 -16 0 -10 -98 -6
-145 5 -11 3 -28 6 -37 6 -10 1 -18 6 -18 12 0 10 140 4 183 -7z m1021 -10
c39 -9 107 -25 151 -36 44 -11 99 -21 122 -24 44 -4 121 -30 138 -47 7 -6 -9
-8 -45 -5 -30 3 -77 0 -105 -6 -47 -11 -50 -13 -47 -41 2 -17 9 -42 17 -57 16
-34 3 -36 -27 -6 -14 14 -18 23 -10 26 7 2 10 8 7 12 -3 5 -12 7 -20 3 -8 -3
-15 0 -15 5 0 6 8 12 18 15 10 2 -2 9 -30 16 -26 7 -54 21 -62 30 -15 16 -14
18 16 21 18 1 64 3 101 3 38 0 63 4 55 8 -20 11 -203 49 -236 49 -36 0 -162
33 -187 49 -17 10 -12 11 34 7 30 -3 86 -13 125 -22z m369 -30 c22 -14 36 -28
33 -31 -7 -7 -136 40 -136 50 0 4 5 5 10 2 17 -11 11 7 -7 22 -29 22 56 -14
100 -43z m-878 17 c28 -6 27 -7 -19 -14 -27 -4 -64 -7 -83 -7 -44 0 -73 -16
-73 -39 0 -25 74 -61 143 -70 l52 -7 -66 -7 c-71 -8 -205 -45 -260 -72 -28
-13 -31 -13 -15 0 11 8 18 15 15 16 -2 1 -16 2 -30 3 -14 2 -32 7 -40 12 -8 4
-22 10 -32 11 -25 4 -97 51 -103 68 -3 8 0 21 8 28 36 36 73 50 213 80 32 7
257 5 290 -2z m113 -8 c-10 -2 -26 -2 -35 0 -10 3 -2 5 17 5 19 0 27 -2 18 -5z
m-4842 -101 c-18 -16 -18 -16 -6 6 6 13 14 21 18 18 3 -4 -2 -14 -12 -24z
m742 -29 c-21 -2 -57 -2 -80 0 -24 2 -7 4 37 4 44 0 63 -2 43 -4z m-141 -9
c-3 -3 -12 -4 -19 -1 -8 3 -5 6 6 6 11 1 17 -2 13 -5z m4989 -97 c4 -4 -2 -7
-14 -7 -12 0 -22 4 -22 9 0 10 26 9 36 -2z m24 -57 c8 -5 11 -10 5 -10 -5 0
-17 5 -25 10 -8 5 -10 10 -5 10 6 0 17 -5 25 -10z m-4381 -159 c67 -99 74
-111 68 -111 -3 0 -22 26 -43 58 -21 31 -64 93 -96 137 -32 44 -43 62 -23 41
19 -22 62 -78 94 -125z m1098 25 c103 -1 92 8 109 -88 l6 -37 -53 4 c-73 6
-214 13 -394 20 -151 5 -389 16 -435 20 -14 1 -35 3 -47 4 -13 0 -23 5 -23 9
0 11 95 63 134 73 17 5 162 6 321 2 160 -4 332 -7 382 -7z m288 -25 c567 -40
1076 -122 1245 -200 l45 -21 -40 6 c-22 3 -58 9 -80 14 -83 16 -245 39 -390
55 -221 23 -223 24 -440 31 -110 3 -260 9 -333 13 -73 3 -137 2 -142 -3 -5 -5
-13 8 -19 31 -17 61 -24 109 -14 96 5 -7 70 -16 168 -22z m-1764 -18 c46 -21
139 -104 139 -124 0 -7 -10 -3 -23 9 -13 12 -30 22 -38 22 -8 0 -20 5 -26 11
-22 22 -71 -18 -104 -84 -38 -74 -37 -73 -50 -60 -17 17 35 144 73 175 l33 27
-37 15 c-20 9 -52 17 -70 18 l-33 3 3 -93 c2 -76 -1 -101 -19 -142 -21 -50
-32 -59 -44 -40 -3 6 -16 10 -27 10 -31 0 -127 78 -149 122 -11 21 -23 38 -28
38 -14 0 -72 -93 -69 -109 2 -9 20 -19 43 -23 100 -21 145 -39 187 -79 l43
-40 -30 -25 c-16 -13 -60 -43 -97 -65 -54 -33 -75 -40 -103 -37 -19 2 -35 1
-35 -4 0 -14 59 -93 79 -105 18 -11 22 -10 34 10 85 140 106 163 134 153 14
-6 12 -10 -13 -25 -17 -10 -48 -51 -76 -100 l-46 -83 -41 37 c-77 70 -101 135
-49 135 23 1 23 1 -2 15 -25 14 -24 14 10 9 29 -5 49 1 104 31 37 21 70 44 73
51 8 22 -29 63 -58 64 -14 0 -29 4 -35 9 -5 6 -39 16 -76 23 -76 14 -79 19
-49 85 30 65 93 127 162 158 73 32 87 28 24 -9 -38 -22 -45 -32 -45 -57 0 -31
25 -89 38 -89 4 0 23 -16 42 -35 43 -42 61 -44 83 -6 14 24 16 43 11 103 -4
40 -11 81 -16 91 -5 9 -6 22 -2 28 10 17 122 5 175 -18z m3982 -4 c68 -23 153
-81 187 -129 28 -40 20 -38 -23 5 -30 30 -39 34 -68 29 -19 -4 -40 -11 -47
-17 -16 -12 -83 -131 -86 -152 -1 -8 -7 -20 -14 -27 -26 -26 -21 4 18 93 28
67 51 103 76 125 l37 31 -45 18 c-25 9 -61 18 -79 18 l-33 2 3 -82 c3 -88 -12
-153 -35 -153 -18 0 -18 5 2 35 16 25 15 89 -3 193 -5 29 -3 32 21 32 15 0 55
-9 89 -21z m-176 3 c8 -5 -4 -13 -32 -21 -87 -26 -90 -87 -7 -180 48 -56 63
-81 45 -81 -21 0 -132 114 -147 150 -9 22 -18 40 -22 40 -14 0 -83 -94 -84
-116 0 -5 39 -23 88 -38 80 -25 142 -64 142 -89 0 -5 -12 4 -28 21 -30 32
-123 65 -159 56 -26 -7 -63 12 -63 32 0 31 51 113 91 148 42 35 132 86 153 86
6 0 16 -4 23 -8z m263 -116 c0 -2 -7 -6 -15 -10 -8 -3 -15 -1 -15 4 0 6 7 10
15 10 8 0 15 -2 15 -4z m-4967 -63 c-7 -2 -19 -2 -25 0 -7 3 -2 5 12 5 14 0
19 -2 13 -5z m4967 -13 c0 -5 -4 -10 -10 -10 -5 0 -10 5 -10 10 0 6 5 10 10
10 6 0 10 -4 10 -10z m-3872 -100 c5 -73 -15 -161 -50 -218 -28 -46 -34 -33
-8 17 14 29 18 46 11 59 -12 23 -51 58 -51 46 0 -5 -4 -3 -8 3 -4 7 -39 16
-77 20 -44 5 -70 13 -73 22 -8 23 162 7 203 -19 18 -11 35 -20 39 -20 8 0 8
113 0 134 -8 22 -19 20 -99 -14 -70 -29 -158 -40 -170 -21 -9 16 12 22 39 11
18 -6 35 -6 54 2 15 6 30 11 33 10 3 0 35 14 70 32 76 39 79 37 87 -64z m3902
66 c0 -7 -9 -16 -19 -19 -17 -4 -18 -2 -8 14 14 22 27 25 27 5z m139 -80 l-1
-41 -8 33 c-4 18 -10 35 -13 38 -3 3 -39 -6 -80 -20 -99 -34 -136 -34 -162 2
l-20 27 27 -17 c38 -25 61 -22 153 17 72 30 81 32 93 17 6 -9 12 -34 11 -56z
m-4335 43 c-3 -5 -10 -7 -15 -3 -5 3 -7 10 -3 15 3 5 10 7 15 3 5 -3 7 -10 3
-15z m3953 -15 c-9 -9 -28 6 -21 18 4 6 10 6 17 -1 6 -6 8 -13 4 -17z m-4057
-4 c0 -5 -7 -10 -15 -10 -8 0 -15 5 -15 10 0 6 7 10 15 10 8 0 15 -4 15 -10z
m90 -44 c0 -8 -4 -18 -10 -21 -5 -3 -10 -1 -10 4 0 6 -7 11 -15 11 -8 0 -15 5
-15 10 0 6 11 10 25 10 15 0 25 -6 25 -14z m4070 4 c0 -5 -4 -10 -10 -10 -5 0
-10 5 -10 10 0 6 5 10 10 10 6 0 10 -4 10 -10z m-4127 -20 c3 -11 1 -18 -4
-14 -5 3 -9 12 -9 20 0 20 7 17 13 -6z m4074 -5 c8 -21 2 -24 -25 -14 -13 5
-20 13 -17 19 9 15 35 12 42 -5z m-3977 -14 c0 -6 -4 -13 -10 -16 -5 -3 -10 1
-10 9 0 9 5 16 10 16 6 0 10 -4 10 -9z m4163 -11 c71 -11 88 -20 58 -32 -13
-4 -40 -3 -65 3 -48 12 -118 9 -123 -6 -2 -6 23 -9 67 -7 46 2 70 0 70 -7 0
-6 -11 -11 -24 -11 -14 0 -37 -5 -52 -10 -19 -8 -30 -7 -40 1 -8 7 -17 9 -20
6 -14 -14 9 -58 66 -125 33 -40 60 -74 60 -76 0 -3 -19 -16 -42 -30 -62 -35
-123 -49 -186 -41 l-54 7 30 18 c52 32 61 63 46 149 -15 88 -22 97 -66 85 -26
-7 -45 -27 -92 -97 -55 -83 -60 -87 -79 -74 -11 7 -32 29 -46 48 l-25 34 36
-37 c20 -21 39 -38 42 -38 4 0 26 30 50 68 24 37 53 76 65 86 12 11 21 24 21
29 0 12 31 36 45 36 6 1 -1 -8 -15 -19 l-25 -20 37 15 c46 18 49 19 42 1 -3
-8 4 -23 16 -33 31 -30 53 -153 35 -204 -13 -36 -13 -39 4 -39 31 0 123 33
128 46 2 7 -16 38 -41 69 -67 81 -73 94 -81 157 -6 56 -6 57 22 61 28 4 34 4
136 -13z m-4574 -30 c5 0 8 -12 8 -27 l0 -28 -13 30 c-7 17 -13 39 -12 50 1
17 1 17 5 -2 2 -13 8 -23 12 -23z m4243 -8 c-40 -32 -134 -72 -167 -72 -33 0
-36 -2 -31 -22 3 -13 -3 -5 -14 17 -27 56 -26 78 3 69 85 -27 99 -25 171 33
27 22 29 23 42 6 11 -15 11 -20 -4 -31z m48 38 c0 -5 -4 -10 -10 -10 -5 0 -10
5 -10 10 0 6 5 10 10 10 6 0 10 -4 10 -10z m-3990 -15 c0 -8 -4 -15 -10 -15
-5 0 -10 7 -10 15 0 8 5 15 10 15 6 0 10 -7 10 -15z m60 -25 c0 -15 7 -59 16
-98 12 -52 13 -79 6 -106 -6 -20 -7 -38 -2 -41 13 -8 121 35 127 51 3 8 -16
37 -42 66 -26 29 -53 62 -61 73 -18 28 -21 67 -6 72 6 3 12 -3 12 -12 0 -24
28 -64 88 -127 31 -31 51 -61 47 -67 -3 -6 -30 -23 -58 -38 -60 -30 -187 -43
-247 -24 -35 11 -35 11 13 7 50 -4 66 5 88 46 12 22 -4 146 -23 185 -8 17 -8
26 1 37 18 22 41 8 41 -24z m2248 23 c-10 -2 -28 -2 -40 0 -13 2 -5 4 17 4 22
1 32 -1 23 -4z m99 1 c-3 -3 -12 -4 -19 -1 -8 3 -5 6 6 6 11 1 17 -2 13 -5z
m216 -11 c-18 -2 -48 -2 -65 0 -18 2 -4 4 32 4 36 0 50 -2 33 -4z m1463 -30
c-10 -10 -19 5 -10 18 6 11 8 11 12 0 2 -7 1 -15 -2 -18z m-4091 -23 c-3 -5
-13 -10 -21 -10 -8 0 -14 5 -14 10 0 6 9 10 21 10 11 0 17 -4 14 -10z m2240
-16 c435 -3 881 -9 993 -14 l203 -9 30 -32 29 -32 -67 6 c-38 4 -207 9 -378
12 -341 6 -594 11 -995 22 -146 4 -527 7 -847 6 -321 -1 -583 2 -583 7 0 40
106 49 520 44 168 -2 661 -6 1095 -10z m2124 -88 c-7 -14 -16 -26 -21 -26 -12
0 -10 8 8 36 21 31 29 25 13 -10z m-49 -22 c0 -19 -16 -18 -24 2 -11 27 -7 37
9 24 8 -7 15 -19 15 -26z m-4396 -37 c-7 -19 -29 -23 -39 -6 -8 13 27 41 38
30 4 -4 5 -15 1 -24z"/>
<path d="M1553 2783 c9 -2 25 -2 35 0 9 3 1 5 -18 5 -19 0 -27 -2 -17 -5z"/>
</g>
</svg>
