<?xml version="1.0" standalone="no"?>
<!DOCTYPE svg PUBLIC "-//W3C//DTD SVG 20010904//EN"
 "http://www.w3.org/TR/2001/REC-SVG-20010904/DTD/svg10.dtd">
<svg version="1.0" xmlns="http://www.w3.org/2000/svg"
 width="650.000000pt" height="451.000000pt" viewBox="0 0 650.000000 451.000000"
 preserveAspectRatio="xMidYMid meet">

<g transform="translate(0.000000,451.000000) scale(0.100000,-0.100000)"
fill="#000000" stroke="none">
<path d="M2835 3990 c-3 -5 -3 -10 2 -10 4 0 1 -5 -7 -10 -11 -7 -7 -10 19
-10 33 0 34 0 16 20 -21 23 -22 23 -30 10z"/>
<path d="M2084 3939 c14 -11 26 -28 26 -36 0 -9 -3 -13 -6 -10 -4 4 -24 -7
-45 -24 -27 -21 -39 -39 -39 -56 0 -30 80 -390 118 -533 l29 -105 -47 -32 -48
-31 -26 111 c-14 62 -26 118 -26 126 0 8 -3 12 -6 8 -3 -3 4 -62 16 -132 12
-70 20 -129 17 -131 -2 -3 -8 17 -12 43 -4 26 -13 60 -21 75 -8 15 -13 30 -12
32 2 2 0 8 -4 12 -5 4 -8 -1 -8 -12 -1 -43 -18 15 -40 134 -13 67 -25 121 -27
118 -2 -2 4 -47 13 -101 l16 -97 -27 -49 c-15 -28 -24 -56 -22 -63 4 -9 -4
-16 -20 -19 -29 -5 -29 -11 7 187 26 143 23 148 -72 144 -54 -3 -58 -5 -64
-31 -3 -15 -12 -34 -20 -42 -13 -13 -10 -17 26 -31 53 -21 80 -57 80 -106 l0
-39 -30 22 c-27 21 -44 23 -194 27 -194 5 -233 0 -239 -31 -2 -12 -5 -1 -6 25
-1 56 22 80 99 98 28 7 50 14 50 16 0 2 -9 13 -19 23 -19 19 -19 18 -29 -3 -6
-11 -11 -15 -11 -8 -2 24 -39 12 -49 -15 -6 -16 -11 -21 -11 -11 -1 27 47 258
66 317 22 68 27 70 225 78 94 4 145 10 141 16 -7 11 -260 2 -331 -12 -24 -5
-40 -5 -35 -1 12 12 176 30 275 30 69 0 90 -4 104 -17 13 -13 16 -14 12 -3
-11 33 -49 41 -162 35 -273 -16 -620 -116 -673 -194 -13 -19 -21 -36 -19 -39
3 -2 -4 -26 -15 -53 -17 -44 -99 -317 -103 -344 -1 -5 -6 -12 -11 -15 -6 -3
-13 19 -16 50 l-6 55 -1 -62 c-2 -50 1 -64 16 -72 41 -22 498 -64 1011 -94 30
-1 47 -7 52 -19 5 -10 13 -26 17 -35 5 -10 21 -24 35 -31 15 -7 27 -19 27 -26
0 -7 23 -17 53 -23 45 -10 57 -9 92 8 22 11 32 17 21 14 -13 -4 -17 -1 -13 9
9 22 -19 39 -53 32 -22 -4 -30 -2 -30 9 0 8 -5 15 -12 15 -6 0 -3 10 8 22 10
12 13 18 7 14 -25 -14 -13 30 15 56 52 49 65 51 95 12 16 -19 33 -34 39 -34 7
0 5 7 -4 18 -9 9 -21 28 -27 42 l-12 25 18 -25 c45 -62 58 -70 115 -63 29 3
51 3 48 0 -3 -3 -41 -9 -85 -12 -44 -3 -98 -15 -120 -25 l-40 -18 66 -1 c36
-1 128 -4 204 -8 118 -5 137 -4 130 8 -7 11 -6 12 6 3 8 -6 55 -12 104 -13
115 -2 371 -20 455 -31 36 -5 81 -10 100 -9 l35 0 -22 18 c-15 13 -18 20 -10
23 6 2 163 5 347 7 184 2 339 6 344 11 4 5 -16 8 -45 7 -100 -3 -454 15 -469
24 -15 9 737 5 819 -4 25 -3 90 -8 145 -11 56 -4 132 -9 169 -12 68 -6 68 -6
62 18 -3 13 1 37 9 53 9 17 16 40 16 53 0 18 -5 22 -34 22 -19 0 -38 -5 -41
-11 -4 -5 -17 9 -29 32 -30 54 -63 89 -87 89 -30 0 -23 -15 43 -92 34 -40 67
-80 75 -89 11 -13 11 -16 -2 -16 -8 0 -12 4 -9 8 2 4 0 10 -6 14 -5 3 -10 1
-10 -6 0 -8 -4 -8 -15 1 -21 18 -19 35 3 19 15 -13 16 -12 3 3 -7 10 -17 16
-21 13 -4 -3 -72 70 -151 163 -174 202 -395 427 -429 437 -22 6 -21 3 10 -21
70 -56 155 -142 274 -275 127 -142 276 -322 276 -333 0 -4 -8 -2 -18 3 -24 13
-96 23 -146 22 -32 -1 -46 -9 -73 -39 -33 -35 -36 -26 -5 11 15 16 13 17 -19
16 -19 -2 -38 -6 -44 -10 -5 -4 -28 -10 -51 -13 -36 -6 -41 -4 -53 18 -10 18
-25 26 -55 31 -22 4 -81 20 -131 36 -94 30 -227 57 -307 61 l-46 3 -62 188
c-35 103 -61 189 -59 191 2 2 67 7 144 10 77 4 159 9 182 12 l43 5 -18 31
c-38 68 -50 93 -45 101 3 4 -8 5 -23 1 -17 -4 -25 -3 -21 3 7 11 -7 14 -240
43 -283 36 -558 53 -907 55 -201 1 -341 6 -345 12 -10 16 -55 43 -70 43 -8 0
-3 -9 13 -21z m-648 -171 c-4 -13 -32 -117 -62 -233 -30 -115 -53 -196 -51
-178 2 19 -1 29 -6 26 -6 -4 -7 8 -4 28 3 19 8 52 11 74 6 38 5 38 -5 10 -6
-16 -16 -50 -24 -75 -8 -28 -14 -36 -14 -22 -2 41 -17 23 -33 -40 -9 -35 -27
-89 -40 -121 l-23 -59 -55 6 c-30 4 -64 7 -75 9 -28 3 -34 15 -28 56 l5 36
-26 -30 c-30 -36 -31 -44 -8 -61 15 -12 14 -13 -15 -14 -18 0 -33 3 -33 8 0
20 54 240 82 336 l31 109 52 22 c29 13 92 36 141 51 87 26 113 39 103 49 -7 6
-188 -50 -256 -80 -29 -13 -53 -22 -53 -19 0 16 309 123 384 133 4 0 5 -9 2
-21z m1771 -350 c-3 -7 -5 -2 -5 12 0 14 2 19 5 13 2 -7 2 -19 0 -25z m-1890
-130 c-3 -7 -5 -2 -5 12 0 14 2 19 5 13 2 -7 2 -19 0 -25z m-10 -60 c-3 -7 -5
-2 -5 12 0 14 2 19 5 13 2 -7 2 -19 0 -25z m85 -57 c-5 -3 -12 -13 -15 -21 -3
-8 -6 8 -6 35 l0 50 15 -29 c10 -17 12 -31 6 -35z m605 12 c-3 -10 -5 -4 -5
12 0 17 2 24 5 18 2 -7 2 -21 0 -30z m-700 -15 c-3 -7 -5 -2 -5 12 0 14 2 19
5 13 2 -7 2 -19 0 -25z m2050 26 c-3 -3 -12 -4 -19 -1 -8 3 -5 6 6 6 11 1 17
-2 13 -5z m-2368 -30 c10 -9 -56 -3 -69 7 -11 7 -4 8 25 3 22 -4 42 -8 44 -10z
m124 9 c-7 -2 -19 -2 -25 0 -7 3 -2 5 12 5 14 0 19 -2 13 -5z m2160 0 c-7 -2
-19 -2 -25 0 -7 3 -2 5 12 5 14 0 19 -2 13 -5z m-50 -10 c-7 -2 -19 -2 -25 0
-7 3 -2 5 12 5 14 0 19 -2 13 -5z m-2165 -10 c-10 -2 -26 -2 -35 0 -10 3 -2 5
17 5 19 0 27 -2 18 -5z m362 -8 c11 -13 10 -14 -4 -9 -9 3 -16 10 -16 15 0 13
6 11 20 -6z m1743 8 c-7 -2 -19 -2 -25 0 -7 3 -2 5 12 5 14 0 19 -2 13 -5z
m-2020 -10 c-7 -2 -21 -2 -30 0 -10 3 -4 5 12 5 17 0 24 -2 18 -5z m1922 -9
c-33 -7 -78 -13 -100 -12 -32 0 -27 3 30 13 95 17 146 16 70 -1z m-1697 -11
c-10 -2 -26 -2 -35 0 -10 3 -2 5 17 5 19 0 27 -2 18 -5z m119 -9 c-3 -3 -12
-4 -19 -1 -8 3 -5 6 6 6 11 1 17 -2 13 -5z m1426 -1 c-7 -2 -21 -2 -30 0 -10
3 -4 5 12 5 17 0 24 -2 18 -5z m-65 -10 c-10 -2 -26 -2 -35 0 -10 3 -2 5 17 5
19 0 27 -2 18 -5z m-155 -10 c-18 -2 -48 -2 -65 0 -18 2 -4 4 32 4 36 0 50 -2
33 -4z m455 0 c-10 -2 -28 -2 -40 0 -13 2 -5 4 17 4 22 1 32 -1 23 -4z m-670
-10 c-15 -2 -42 -2 -60 0 -18 2 -6 4 27 4 33 0 48 -2 33 -4z m2062 -8 c7 -9 8
-15 2 -15 -5 0 -12 7 -16 15 -3 8 -4 15 -2 15 2 0 9 -7 16 -15z m-45 -5 c3 -5
2 -10 -4 -10 -5 0 -13 5 -16 10 -3 6 -2 10 4 10 5 0 13 -4 16 -10z m-2035 -30
c0 -5 -4 -10 -10 -10 -5 0 -10 5 -10 10 0 6 5 10 10 10 6 0 10 -4 10 -10z m25
0 c3 -5 1 -10 -4 -10 -6 0 -11 5 -11 10 0 6 2 10 4 10 3 0 8 -4 11 -10z m715
0 c0 -5 -13 -10 -30 -10 -22 0 -28 -4 -24 -15 7 -18 3 -19 -31 -3 -45 20 -28
30 63 36 12 1 22 -2 22 -8z"/>
<path d="M1655 3893 c-266 -34 -586 -140 -630 -210 -18 -28 -17 -28 16 3 43
40 91 64 204 102 207 69 514 116 602 93 35 -10 47 -19 63 -51 11 -22 20 -47
21 -57 0 -10 3 -13 6 -6 9 23 -18 82 -48 108 -28 23 -38 25 -117 24 -48 -1
-100 -4 -117 -6z"/>
<path d="M2015 3880 c-10 -11 -16 -22 -14 -24 2 -2 12 7 22 20 22 29 17 32 -8
4z"/>
<path d="M3780 3791 c0 -10 24 -21 43 -21 7 0 3 7 -7 15 -22 17 -36 19 -36 6z"/>
<path d="M1951 3674 c0 -11 3 -14 6 -6 3 7 2 16 -1 19 -3 4 -6 -2 -5 -13z"/>
<path d="M1962 3610 c0 -14 2 -19 5 -12 2 6 2 18 0 25 -3 6 -5 1 -5 -13z"/>
<path d="M1972 3555 c0 -16 2 -22 5 -12 2 9 2 23 0 30 -3 6 -5 -1 -5 -18z"/>
<path d="M914 3446 c-24 -51 -44 -100 -44 -107 0 -8 15 20 34 61 18 41 40 90
50 108 9 17 14 32 11 32 -4 0 -26 -42 -51 -94z"/>
<path d="M1911 3524 c0 -11 3 -14 6 -6 3 7 2 16 -1 19 -3 4 -6 -2 -5 -13z"/>
<path d="M1982 3500 c0 -14 2 -19 5 -12 2 6 2 18 0 25 -3 6 -5 1 -5 -13z"/>
<path d="M1992 3445 c0 -16 2 -22 5 -12 2 9 2 23 0 30 -3 6 -5 -1 -5 -18z"/>
<path d="M2002 3390 c0 -14 2 -19 5 -12 2 6 2 18 0 25 -3 6 -5 1 -5 -13z"/>
<path d="M3953 3043 c26 -2 68 -2 95 0 26 2 4 3 -48 3 -52 0 -74 -1 -47 -3z"/>
<path d="M745 2971 c-4 -7 6 -11 25 -11 29 0 31 -2 28 -32 -3 -30 -6 -33 -40
-36 -21 -2 -38 -8 -38 -13 0 -5 6 -9 13 -7 7 2 14 -1 15 -7 4 -12 43 -28 50
-20 3 2 5 33 6 67 1 61 0 63 -26 66 -14 2 -29 -2 -33 -7z"/>
<path d="M2805 2951 l40 -18 -41 -7 c-25 -4 -51 -18 -65 -33 -22 -23 -24 -32
-23 -136 0 -94 4 -124 26 -186 20 -58 23 -80 15 -98 l-10 -22 -20 26 c-12 15
-66 48 -122 74 -219 103 -414 131 -572 84 -38 -12 -44 -11 -53 3 -8 15 -9 14
-10 -5 0 -13 -6 -23 -13 -23 -28 0 -184 51 -227 74 -59 32 -336 84 -362 69 -5
-2 -8 12 -8 31 0 19 -4 46 -10 60 -8 22 -16 26 -49 26 -22 0 -41 -5 -44 -12
-3 -10 7 -12 39 -9 l44 3 0 -36 0 -36 -53 0 c-29 0 -59 -6 -65 -12 -10 -10
-15 -10 -22 2 -9 13 -10 13 -10 0 0 -13 -1 -13 -11 0 -6 8 -12 11 -15 5 -2 -6
-40 -9 -94 -7 -80 3 -96 1 -144 -22 -30 -14 -63 -26 -73 -26 -10 0 -54 15 -98
33 -48 20 -100 34 -130 36 -27 1 -58 4 -67 7 -20 6 -24 -10 -20 -87 l4 -59 30
25 c49 41 113 30 169 -32 37 -39 54 -75 84 -184 26 -90 45 -131 45 -97 0 24
74 85 118 99 47 14 252 -7 469 -47 240 -44 323 -85 391 -194 20 -33 43 -59 50
-60 11 0 18 -50 7 -50 -12 0 -698 133 -855 166 -96 20 -194 37 -217 38 -23 1
-43 4 -45 6 -2 3 -15 29 -28 57 -26 58 -91 117 -142 128 -44 10 -86 -12 -109
-56 -19 -39 -26 -85 -10 -75 9 6 -1 -44 -26 -133 -20 -72 -10 -164 25 -234 25
-49 26 -59 19 -123 -14 -127 9 -357 48 -490 6 -18 1 -22 -36 -30 -23 -5 -44
-14 -46 -21 -3 -7 18 -24 46 -38 28 -14 51 -30 51 -36 0 -5 4 -8 9 -5 5 4 11
2 13 -3 1 -4 83 -45 180 -89 97 -45 266 -126 375 -180 109 -54 259 -124 333
-157 74 -32 173 -76 218 -97 46 -21 86 -38 88 -38 2 0 90 -41 196 -91 544
-258 845 -336 1363 -355 412 -14 1172 58 1855 176 380 66 556 120 604 187 l19
26 -29 24 c-56 45 -167 91 -332 139 l-168 48 63 62 c94 92 139 197 168 395 4
28 15 43 46 65 56 39 77 71 99 160 20 79 27 237 12 262 -7 10 -29 6 -102 -18
-73 -24 -95 -28 -102 -18 -13 22 -9 25 40 32 47 6 127 44 123 59 -1 4 6 21 14
37 12 22 13 35 5 49 -6 13 -7 28 -1 44 l10 24 -52 -28 c-29 -16 -56 -29 -62
-29 -5 0 -10 16 -11 35 0 25 3 32 11 25 8 -6 26 -2 55 13 39 19 46 28 57 72
17 68 17 125 -1 125 -7 0 -31 -6 -52 -13 -22 -8 -54 -17 -73 -20 l-33 -7 18
27 c9 15 37 51 61 81 23 29 43 62 43 72 0 20 -14 27 -24 12 -2 -4 -33 -8 -69
-10 -53 -1 -68 2 -82 19 -10 10 -21 16 -24 12 -13 -17 -95 -68 -130 -80 -20
-7 -112 -17 -205 -23 -93 -5 -171 -12 -175 -16 -3 -4 80 -4 184 -2 112 3 159
2 115 -2 -41 -4 -259 -13 -485 -20 -674 -20 -766 -24 -801 -43 -17 -8 -50 -35
-74 -59 -28 -28 -38 -34 -28 -17 15 24 15 26 -3 37 -11 7 -19 23 -19 37 0 19
-10 31 -35 46 -23 14 -35 29 -35 42 0 39 -13 49 -46 36 -37 -14 -189 -6 -478
27 -121 13 -221 22 -224 19 -3 -3 2 -5 10 -5 21 0 68 -38 68 -56 0 -11 -16
-14 -70 -14 -38 0 -70 -2 -70 -5 0 -3 9 -25 20 -47 21 -44 25 -70 13 -82 -5
-4 -8 -11 -8 -15 0 -3 -10 -19 -22 -35 -23 -28 -23 -28 -99 -21 l-77 7 6 -40
c12 -94 83 -183 181 -228 28 -12 44 -23 35 -23 -9 -1 -43 12 -75 29 -68 35
-79 36 -69 13 4 -10 8 -25 9 -33 2 -8 22 -20 47 -27 38 -10 40 -12 15 -12 -16
-1 -49 8 -72 20 -37 18 -54 38 -121 146 -130 210 -249 312 -400 343 -100 21
-200 -6 -257 -68 l-18 -21 -28 21 c-16 11 -32 18 -37 15 -4 -3 -7 24 -6 60 3
102 58 178 163 227 67 31 238 30 335 -2 88 -30 158 -69 215 -122 104 -97 102
-96 174 -90 85 7 99 20 62 59 -16 16 -40 32 -54 36 -14 3 -38 15 -53 26 -31
22 -49 24 -49 7 0 -6 -3 -9 -6 -6 -3 4 0 16 6 28 l12 22 24 -23 c19 -18 37
-22 91 -24 38 -1 145 -6 238 -10 94 -4 204 -8 245 -10 95 -4 151 16 245 88 60
46 79 55 125 59 41 4 64 1 91 -12 24 -13 60 -19 115 -20 107 -2 103 -3 97 20
-3 12 0 20 6 20 7 0 10 -4 7 -9 -3 -5 3 -11 14 -14 11 -3 20 -2 20 3 0 19 53
20 83 1 36 -22 177 -32 199 -14 7 6 31 13 53 15 32 4 53 -2 103 -29 55 -28 74
-33 134 -33 74 0 87 7 108 58 11 26 45 29 71 7 11 -11 43 -17 93 -20 72 -4 77
-3 71 16 -7 21 10 27 18 7 3 -8 6 -6 6 5 1 22 26 22 65 -2 39 -23 130 -35 122
-16 -7 18 19 38 49 38 18 0 23 3 16 11 -15 18 -17 119 -3 144 10 16 10 27 2
43 -7 11 -10 22 -8 23 39 23 90 62 105 78 22 26 4 17 -49 -24 -84 -66 -57 -63
-658 -61 -807 2 -1014 15 -1290 78 -154 35 -280 54 -410 61 -63 3 -134 12
-158 20 -58 19 -66 16 -17 -5z m58 -48 c-7 -2 -19 -2 -25 0 -7 3 -2 5 12 5 14
0 19 -2 13 -5z m215 0 c-10 -2 -28 -2 -40 0 -13 2 -5 4 17 4 22 1 32 -1 23 -4z
m-278 -7 c0 -2 -7 -7 -16 -10 -8 -3 -12 -2 -9 4 6 10 25 14 25 6z m-50 -35
c-13 -24 -13 -61 -1 -61 16 0 26 -111 11 -120 -8 -5 -10 -22 -6 -51 l6 -44
-19 50 c-25 65 -28 185 -5 220 19 30 29 33 14 6z m435 -43 c141 -22 174 -33
156 -51 -6 -6 -11 -31 -11 -55 0 -32 -3 -41 -12 -36 -10 6 -10 4 -2 -7 6 -8
14 -44 17 -82 2 -37 10 -74 17 -82 7 -8 34 -18 61 -21 48 -6 49 -7 32 -26 -16
-18 -29 -19 -207 -15 -253 6 -286 14 -353 84 -60 63 -73 98 -73 199 0 109 23
127 155 118 50 -3 149 -15 220 -26z m2089 -47 c3 -4 -29 -11 -71 -15 -105 -8
-527 -8 -550 2 -10 4 106 9 257 12 151 3 294 7 317 8 23 1 44 -2 47 -7z
m-3988 -17 c19 -9 34 -20 34 -25 0 -5 7 -9 16 -9 14 0 14 -3 4 -15 -28 -33
-100 -4 -100 41 0 28 2 29 46 8z m3299 6 c-7 -11 -148 -11 -355 -1 -125 7
-117 8 113 9 163 1 246 -1 242 -8z m-1175 -10 c-8 -5 -11 -12 -7 -17 4 -4 17
-2 27 5 31 19 199 16 222 -5 25 -23 25 -118 -1 -152 -17 -22 -24 -23 -101 -22
-46 1 -89 6 -95 11 -7 6 -24 6 -45 0 -48 -14 -62 3 -66 82 -4 79 1 97 25 91
10 -3 22 0 25 6 4 6 13 11 19 11 7 0 6 -4 -3 -10z m1281 -37 c26 -20 46 -40
44 -44 -7 -10 -76 11 -98 29 -9 9 -20 12 -24 9 -3 -4 -4 -8 -2 -10 129 -99
147 -117 115 -117 -8 0 -27 -15 -43 -33 -15 -18 -25 -28 -20 -21 9 14 -61 64
-92 64 -26 0 -20 15 9 23 12 3 35 -5 57 -20 27 -18 41 -22 56 -16 18 8 13 14
-43 51 -34 23 -71 42 -81 42 -28 0 -23 17 9 34 16 8 34 22 41 30 18 21 17 21
72 -21z m-648 4 c10 -15 0 -112 -14 -138 -8 -16 -21 -19 -87 -19 -94 0 -108 8
-146 88 -25 53 -27 63 -15 78 12 15 28 16 134 10 73 -5 123 -12 128 -19z
m1181 14 c9 -14 -20 -21 -85 -21 -58 0 -60 -1 -53 -22 19 -63 23 -68 54 -68
50 0 70 16 70 55 0 25 4 35 16 35 13 0 14 -9 8 -57 -9 -78 -16 -85 -82 -81
l-55 3 -19 55 c-27 79 -19 98 40 103 93 7 101 7 106 -2z m-870 -10 c4 -5 0
-12 -6 -14 -8 -3 -5 -6 6 -6 17 -1 18 -7 13 -62 -3 -35 -11 -66 -19 -70 -7 -5
-47 -8 -88 -7 l-75 3 -35 66 c-47 92 -41 99 96 99 56 0 105 -4 108 -9z m651
-1 c3 -5 0 -10 -7 -10 -9 -1 -8 -4 3 -10 13 -8 15 -18 8 -61 -5 -29 -13 -57
-18 -62 -11 -11 -131 -11 -142 0 -13 15 -41 114 -35 128 7 20 179 34 191 15z
m-615 -154 c0 -3 -4 -8 -10 -11 -5 -3 -10 -1 -10 4 0 6 5 11 10 11 6 0 10 -2
10 -4z m-2434 -311 c-4 -19 -11 -35 -16 -35 -13 0 -12 7 2 47 15 41 22 35 14
-12z m1505 -69 c97 -22 197 -61 187 -72 -3 -2 -119 5 -258 16 -139 11 -264 20
-278 20 l-25 0 24 26 c13 14 33 30 44 35 32 14 191 1 306 -25z m2219 -6 c0 -5
-12 -10 -27 -9 -25 0 -26 1 -8 9 27 12 35 12 35 0z m-27 -90 c-4 -4 -23 -12
-41 -18 -31 -11 -33 -10 -30 10 4 27 71 54 76 30 2 -8 0 -18 -5 -22z m-4990
-32 c9 -7 25 -42 36 -77 17 -55 18 -66 6 -75 -18 -14 -33 -72 -16 -62 8 5 11
-9 11 -48 0 -42 4 -57 18 -65 17 -9 18 -20 13 -156 -1 -36 -4 -46 -11 -35 -5
8 -10 23 -10 33 0 10 -7 34 -16 55 l-15 37 -16 -29 c-14 -26 -13 -31 9 -75 12
-25 28 -49 33 -53 14 -11 -26 -82 -48 -86 -46 -9 -78 61 -98 210 -12 98 -5
288 12 288 5 0 9 -15 10 -32 1 -18 4 -44 8 -58 6 -23 8 -23 14 -6 8 19 -8 81
-25 103 -18 22 35 143 62 143 3 0 14 -6 23 -12z m2343 -125 c40 -28 51 -30
194 -44 69 -6 134 -13 145 -14 66 -6 125 -19 125 -27 0 -10 -42 -6 -278 23
-84 10 -168 25 -187 33 -37 16 -65 60 -65 103 0 26 2 25 19 -13 10 -23 32 -50
47 -61z m179 82 c17 -1 56 -3 88 -4 50 -1 58 -4 55 -18 -3 -16 -14 -18 -78
-16 -41 2 -108 5 -147 9 -64 5 -73 8 -73 25 0 21 -2 21 155 4z m272 -25 c4
-12 3 -12 -5 -1 -7 10 -14 11 -31 2 -11 -7 -21 -15 -21 -19 -1 -4 -12 -20 -26
-37 l-26 -30 17 33 c31 64 81 92 92 52z m1908 -15 c-67 -29 -590 -64 -1055
-69 l-335 -4 285 8 c445 13 979 48 1070 70 52 12 69 10 35 -5z m-2931 -93 c3
-5 -1 -9 -9 -9 -8 0 -12 4 -9 9 3 4 7 8 9 8 2 0 6 -4 9 -8z m2767 -142 c-1
-79 -3 -145 -4 -146 -6 -6 -973 -71 -979 -66 -4 4 -8 75 -10 159 l-3 152 90 5
c240 16 787 43 844 42 l63 -1 -1 -145z m-4014 65 c326 -93 664 -195 694 -211
39 -20 67 -63 49 -74 -21 -13 -507 124 -825 234 -172 59 -165 56 -165 75 0 43
14 42 247 -24z m753 -60 c0 -8 -4 -16 -9 -19 -5 -3 -8 5 -8 19 0 14 3 22 8 19
5 -3 9 -11 9 -19z m-473 -186 c646 -208 592 -190 575 -196 -6 -3 -94 22 -195
55 -179 59 -303 99 -744 242 -123 39 -223 73 -223 76 0 12 73 -10 587 -177z
m925 125 c81 -41 167 -272 170 -455 2 -145 -1 -186 -18 -261 -41 -181 -128
-264 -218 -209 -55 34 -100 115 -144 261 -6 19 -16 70 -21 113 -35 253 28 517
132 562 33 15 53 12 99 -11z m-1262 -106 c19 -6 44 -16 55 -23 11 -7 69 -30
129 -51 69 -25 100 -40 85 -41 -93 -9 -374 -32 -375 -30 -1 1 3 39 9 84 12 92
6 88 97 61z m4276 -245 c-3 -4 -70 -17 -149 -29 -352 -57 -832 -103 -1122
-109 l-200 -4 205 14 c437 30 940 82 1140 119 85 16 137 19 126 9z"/>
<path d="M3265 2760 c-3 -5 -1 -10 4 -10 6 0 11 5 11 10 0 6 -2 10 -4 10 -3 0
-8 -4 -11 -10z"/>
<path d="M2955 2751 c-3 -6 -14 -8 -25 -6 -14 3 -17 -1 -13 -12 4 -9 2 -14 -3
-11 -5 4 -10 -5 -10 -19 l-2 -25 16 24 c9 13 26 31 37 40 11 10 17 17 13 18
-4 0 -9 -4 -13 -9z"/>
<path d="M2962 2717 c-7 -7 -21 -20 -30 -29 -22 -24 -37 -23 -50 5 -10 20 -11
18 -11 -17 -1 -30 2 -37 14 -32 8 3 28 -6 44 -19 36 -31 49 -31 84 0 33 30 34
40 2 61 -14 9 -25 23 -25 30 0 17 -10 17 -28 1z"/>
<path d="M3041 2714 c0 -11 3 -14 6 -6 3 7 2 16 -1 19 -3 4 -6 -2 -5 -13z"/>
<path d="M3205 2700 c-3 -5 1 -10 9 -10 9 0 16 5 16 10 0 6 -4 10 -9 10 -6 0
-13 -4 -16 -10z"/>
<path d="M3165 2690 c-3 -5 -1 -10 4 -10 6 0 11 5 11 10 0 6 -2 10 -4 10 -3 0
-8 -4 -11 -10z"/>
<path d="M3260 2660 c0 -5 7 -10 15 -10 8 0 15 5 15 10 0 6 -7 10 -15 10 -8 0
-15 -4 -15 -10z"/>
<path d="M3285 2620 c-4 -6 -11 -8 -16 -5 -5 3 -6 -1 -2 -10 4 -12 8 -13 13
-5 4 6 11 11 16 10 5 -1 10 3 12 9 5 14 -15 14 -23 1z"/>
<path d="M3093 2590 c-1 -11 2 -20 5 -20 4 0 8 9 9 20 1 11 -2 20 -5 20 -4 0
-8 -9 -9 -20z"/>
<path d="M3126 2596 c3 -9 11 -16 16 -16 13 0 5 23 -10 28 -7 2 -10 -2 -6 -12z"/>
<path d="M3025 2590 c-3 -5 -1 -10 4 -10 6 0 11 5 11 10 0 6 -2 10 -4 10 -3 0
-8 -4 -11 -10z"/>
<path d="M3170 2585 c0 -8 5 -15 10 -15 6 0 10 7 10 15 0 8 -4 15 -10 15 -5 0
-10 -7 -10 -15z"/>
<path d="M3060 2580 c0 -5 5 -10 10 -10 6 0 10 5 10 10 0 6 -4 10 -10 10 -5 0
-10 -4 -10 -10z"/>
<path d="M3220 2576 c0 -8 5 -18 10 -21 6 -3 10 1 10 9 0 8 -4 18 -10 21 -5 3
-10 -1 -10 -9z"/>
<path d="M2919 2558 c-8 -24 -2 -44 12 -45 16 -2 33 30 21 41 -5 6 -31 8 -33
4z"/>
<path d="M3180 2500 c6 -11 13 -20 16 -20 2 0 0 9 -6 20 -6 11 -13 20 -16 20
-2 0 0 -9 6 -20z"/>
<path d="M2940 2500 c-11 -7 -7 -10 18 -10 20 0 31 4 27 10 -8 13 -26 13 -45
0z"/>
<path d="M3048 2483 c7 -3 16 -2 19 1 4 3 -2 6 -13 5 -11 0 -14 -3 -6 -6z"/>
<path d="M3530 2723 c0 -7 7 -16 16 -21 12 -7 13 -11 5 -16 -6 -4 -27 1 -45
12 -44 26 -61 13 -57 -46 1 -24 20 -66 21 -46 0 6 11 12 25 12 31 0 55 18 55
42 0 12 10 21 30 25 17 4 30 13 30 21 0 12 -4 13 -21 3 -17 -9 -23 -8 -30 2
-5 8 -9 10 -9 4 0 -5 -5 -3 -10 5 -6 9 -10 10 -10 3z"/>
<path d="M3385 2660 c3 -5 13 -10 21 -10 8 0 14 5 14 10 0 6 -9 10 -21 10 -11
0 -17 -4 -14 -10z"/>
<path d="M3578 2663 c6 -2 18 -2 25 0 6 3 1 5 -13 5 -14 0 -19 -2 -12 -5z"/>
<path d="M3570 2620 c8 -5 22 -9 30 -9 10 0 8 3 -5 9 -27 12 -43 12 -25 0z"/>
<path d="M3798 2700 c7 -8 23 -31 36 -50 21 -34 24 -35 93 -38 l71 -3 7 30 c3
16 2 39 -4 50 -9 17 -8 20 12 23 12 2 -34 3 -103 3 -110 0 -123 -2 -112 -15z"/>
<path d="M4162 2669 c25 -53 39 -60 104 -57 53 3 58 5 67 31 15 47 -7 60 -105
61 l-84 1 18 -36z"/>
<path d="M4838 2675 c25 -55 29 -60 57 -63 15 -2 40 2 56 8 24 10 29 18 29 46
0 31 -2 34 -32 35 -18 1 -53 2 -78 2 l-46 2 14 -30z"/>
<path d="M620 2031 c0 -22 23 -44 35 -33 5 4 5 -1 2 -10 -3 -9 -9 -33 -13 -52
-5 -28 -3 -36 8 -36 11 0 15 14 17 56 1 31 -1 65 -4 75 -8 25 -45 25 -45 0z"/>
<path d="M655 1860 c-3 -5 -1 -10 4 -10 6 0 11 5 11 10 0 6 -2 10 -4 10 -3 0
-8 -4 -11 -10z"/>
<path d="M640 1791 c0 -25 6 -27 13 -6 4 8 2 17 -3 20 -6 4 -10 -3 -10 -14z"/>
<path d="M611 1757 c-1 -19 -8 -30 -23 -37 l-23 -9 22 0 c23 -1 40 34 30 61
-3 7 -6 0 -6 -15z"/>
<path d="M591 1662 c-19 -35 -14 -59 14 -64 29 -6 31 5 11 52 -13 32 -14 32
-25 12z"/>
<path d="M630 1511 c0 -16 -3 -38 -7 -48 -6 -16 -5 -16 10 -4 18 15 24 81 7
81 -5 0 -10 -13 -10 -29z"/>
<path d="M5098 1763 c-9 -2 -24 -24 -34 -49 -21 -55 -10 -72 42 -66 30 4 38
10 50 38 29 69 10 95 -58 77z m32 -39 c0 -21 -18 -54 -30 -54 -13 0 -13 26 0
51 13 23 30 25 30 3z"/>
<path d="M4984 1746 c-18 -14 -18 -16 -2 -44 19 -31 15 -42 -14 -42 -10 0 -18
-4 -18 -10 0 -5 18 -10 40 -10 49 0 61 19 37 60 -16 26 -16 28 3 33 11 3 20
10 20 16 0 16 -43 14 -66 -3z"/>
<path d="M4883 1743 c-18 -7 -16 -38 2 -53 21 -17 19 -28 -7 -32 -34 -5 -34
-28 0 -28 62 0 76 19 47 64 -15 22 -14 24 5 29 30 8 24 27 -7 26 -16 0 -34 -3
-40 -6z"/>
<path d="M4378 1731 c-55 -6 -98 -28 -98 -51 0 -12 5 -14 70 -31 37 -10 42
-13 25 -20 -11 -4 -39 -8 -61 -8 -36 -1 -75 -23 -63 -36 3 -2 44 0 92 4 91 9
127 26 127 62 0 13 -11 19 -45 25 -63 9 -66 24 -6 24 40 0 52 4 61 20 12 22
11 22 -102 11z"/>
<path d="M4766 1693 c-24 -69 -22 -75 21 -71 39 3 60 28 24 28 -28 0 -27 18 1
22 30 4 34 26 6 31 -20 3 -19 5 10 12 44 10 40 25 -7 25 -38 0 -40 -2 -55 -47z"/>
<path d="M4579 1723 c-21 -3 -29 -13 -42 -57 -21 -64 -21 -66 -3 -66 8 0 18 9
21 20 3 11 12 20 19 20 25 0 67 42 64 64 -3 22 -16 26 -59 19z m31 -27 c0 -2
-7 -9 -15 -16 -12 -10 -15 -10 -15 4 0 9 7 16 15 16 8 0 15 -2 15 -4z"/>
<path d="M4647 1677 c-21 -65 -21 -67 -3 -67 8 0 18 9 21 20 8 24 21 26 29 5
3 -8 13 -15 22 -15 12 0 15 6 11 21 -3 12 1 32 9 45 21 31 11 44 -35 44 -36 0
-38 -1 -54 -53z m63 24 c0 -5 -7 -11 -14 -14 -10 -4 -13 -1 -9 9 6 15 23 19
23 5z"/>
<path d="M4483 1635 c-3 -9 -3 -19 1 -22 7 -7 36 16 36 28 0 15 -30 10 -37 -6z"/>
<path d="M2299 1663 c-9 -23 -7 -30 13 -45 13 -10 29 -18 37 -18 9 0 11 -6 6
-17 -4 -10 -10 -38 -12 -63 -5 -48 4 -65 42 -72 29 -5 32 30 3 42 l-23 10 25
-3 c23 -2 25 1 28 52 4 75 -3 98 -41 121 -44 27 -66 25 -78 -7z"/>
<path d="M2263 1658 c-11 -13 -23 -30 -27 -38 -4 -8 -1 -7 7 3 8 10 17 14 19
10 3 -4 3 -2 2 5 -2 6 1 12 5 12 5 0 11 7 15 15 7 21 3 19 -21 -7z"/>
<path d="M2217 1586 c-4 -10 -1 -13 8 -9 8 3 12 9 9 14 -7 12 -11 11 -17 -5z"/>
<path d="M2450 1584 c0 -6 7 -19 16 -30 14 -18 14 -18 3 6 -14 31 -19 36 -19
24z"/>
<path d="M2437 1553 c-4 -3 -7 -14 -7 -24 0 -33 -21 -117 -33 -133 -10 -14
-18 -15 -42 -7 -28 10 -29 10 -11 -4 27 -20 63 -19 70 3 11 35 36 165 33 168
-2 2 -7 1 -10 -3z"/>
<path d="M2192 1507 c-11 -42 -3 -108 18 -147 7 -13 6 -20 -3 -23 -7 -3 -5 -6
6 -6 9 -1 17 6 17 16 0 31 12 4 14 -33 6 -86 36 -20 36 78 0 28 -51 141 -69
152 -5 3 -13 -13 -19 -37z m55 -119 c-3 -8 -6 -5 -6 6 -1 11 2 17 5 13 3 -3 4
-12 1 -19z"/>
<path d="M2450 1398 c-35 -47 -38 -62 -11 -55 16 4 19 -4 24 -76 7 -88 16
-104 61 -109 l30 -3 -3 55 c-1 30 -6 84 -11 120 -5 36 -10 68 -10 72 0 10 -30
38 -41 38 -5 0 -22 -19 -39 -42z"/>
<path d="M2282 1303 c-16 -83 -23 -91 -64 -75 -44 16 -48 6 -5 -14 52 -25 63
-15 77 65 15 92 9 112 -8 24z"/>
<path d="M2324 1295 c-8 -33 11 -57 21 -26 3 12 13 21 22 21 22 0 10 25 -15
28 -16 3 -23 -3 -28 -23z"/>
<path d="M2371 1181 c-8 -5 -9 -11 -3 -15 5 -3 12 1 16 9 6 17 6 18 -13 6z"/>
<path d="M2220 1118 c-16 -22 -30 -53 -30 -67 0 -15 4 -21 8 -15 4 6 21 13 39
16 30 4 33 2 49 -41 23 -62 30 -68 38 -31 4 23 -2 52 -25 106 -17 41 -35 74
-40 74 -5 0 -22 -19 -39 -42z"/>
<path d="M2496 1093 c23 -16 54 -17 54 0 0 7 -14 12 -36 13 -33 1 -35 -1 -18
-13z"/>
<path d="M2391 1055 c-33 -38 -39 -59 -18 -72 7 -4 21 -28 32 -53 19 -46 52
-90 67 -90 4 0 14 10 23 23 13 21 13 29 -1 78 -15 51 -60 149 -68 149 -2 0
-18 -16 -35 -35z"/>
<path d="M2321 923 c-6 -32 -18 -70 -26 -85 -12 -24 -12 -28 0 -28 24 0 42 41
49 108 9 79 -9 83 -23 5z"/>
<path d="M527 2920 c-4 -14 -6 -38 -6 -55 1 -24 3 -21 10 15 10 49 7 80 -4 40z"/>
<path d="M5370 2820 c-17 -13 -20 -20 -10 -20 22 0 43 16 39 28 -3 7 -14 3
-29 -8z"/>
<path d="M5472 2750 c0 -14 2 -19 5 -12 2 6 2 18 0 25 -3 6 -5 1 -5 -13z"/>
<path d="M2050 2750 c0 -5 6 -10 13 -11 6 0 1 -4 -11 -10 -13 -5 -22 -14 -20
-21 5 -13 53 -29 62 -20 13 12 5 60 -10 66 -23 9 -34 7 -34 -4z"/>
<path d="M5295 2685 c9 -59 7 -56 23 -46 9 6 10 15 1 42 -19 57 -31 59 -24 4z"/>
<path d="M5412 2675 c0 -16 2 -22 5 -12 2 9 2 23 0 30 -3 6 -5 -1 -5 -18z"/>
<path d="M5440 2655 c0 -37 22 -49 34 -19 12 32 6 54 -14 54 -16 0 -20 -7 -20
-35z"/>
<path d="M5451 2580 c0 -8 4 -22 9 -30 12 -18 12 -2 0 25 -6 13 -9 15 -9 5z"/>
<path d="M5480 2580 c0 -5 5 -10 11 -10 5 0 7 5 4 10 -3 6 -8 10 -11 10 -2 0
-4 -4 -4 -10z"/>
<path d="M5342 2558 c2 -6 10 -14 16 -16 7 -2 10 2 6 12 -7 18 -28 22 -22 4z"/>
<path d="M5425 2549 c4 -6 -1 -16 -11 -23 -15 -11 -13 -12 15 -8 31 4 31 5 15
23 -19 21 -29 25 -19 8z"/>
<path d="M5519 2526 c-14 -29 -24 -37 -64 -52 -18 -7 -16 -8 9 -12 42 -5 95 6
92 21 -2 7 -6 19 -9 27 -3 8 -7 22 -10 30 -2 10 -8 6 -18 -14z"/>
<path d="M2698 2333 c-15 -18 -88 -126 -103 -153 -18 -33 14 8 68 88 55 80 65
99 35 65z"/>
</g>
</svg>
