<svg xmlns="http://www.w3.org/2000/svg" viewBox="0 0 750 500"><g id="freepik--background-complete--inject-2"><path d="M67.91,75.58,81,75.3l6.66-.11c2.23,0,4.47,0,6.7,0h.44v.45l.06,11.19v.5h-.5l-13.24-.06c-4.41,0-8.83-.11-13.24-.16h-.28v-.27c0-1.9.08-3.78.13-5.65Zm0,0,.14,5.66c0,1.86.11,3.7.13,5.53l-.27-.27c4.41,0,8.83-.16,13.24-.16l13.24-.07-.5.5,0-11.19.45.45C92.21,76,90,76,87.84,76l-6.58-.11Z" style="fill:#ebebeb"></path><path d="M82.68,61.47l13.13-.28,6.66-.11c2.22,0,4.46,0,6.69,0h.44v.45l0,11.19v.5h-.5L95.92,73.1c-4.41,0-8.83-.11-13.24-.16H82.4v-.27c0-1.9.08-3.78.13-5.65Zm0,0,.14,5.66c.05,1.86.11,3.7.13,5.53l-.27-.27c4.41,0,8.83-.16,13.24-.16l13.24-.07-.5.5.06-11.19.44.45c-2.18,0-4.36,0-6.54-.06L96,61.75Z" style="fill:#ebebeb"></path><path d="M420.39,141.45l13.13-.28,6.66-.11c2.22-.05,4.46,0,6.69-.06h.45v.45l.05,11.19v.5h-.5l-13.24-.07c-4.41,0-8.82-.11-13.24-.16h-.27v-.27c0-1.9.09-3.79.13-5.66Zm0,0,.14,5.65c.05,1.86.12,3.71.14,5.54l-.28-.28c4.42-.05,8.83-.15,13.24-.16l13.24-.06-.5.5.06-11.19.44.44c-2.18,0-4.36,0-6.54,0l-6.58-.11Z" style="fill:#ebebeb"></path><path d="M435.16,127.34l13.13-.28L455,127c2.23,0,4.46,0,6.69-.06h.45v.45l.05,11.19v.5h-.51L448.4,139c-4.41,0-8.82-.11-13.24-.16h-.27v-.27c0-1.9.09-3.79.13-5.66Zm0,0,.15,5.65c0,1.86.11,3.71.13,5.54l-.28-.28c4.42-.05,8.83-.15,13.24-.16l13.24-.06-.49.5.05-11.19.44.44c-2.18,0-4.35,0-6.54,0l-6.58-.11Z" style="fill:#ebebeb"></path><path d="M53.14,61.47l13.12-.28,6.66-.11c2.23,0,4.47,0,6.7,0h.44v.45l.06,11.19v.5h-.5L66.38,73.1c-4.42,0-8.83-.11-13.24-.16h-.28v-.27c0-1.9.09-3.78.13-5.65Zm0,0,.14,5.66c0,1.86.11,3.7.13,5.53l-.27-.27c4.41,0,8.82-.16,13.24-.16l13.24-.07-.5.5,0-11.19.45.45c-2.18,0-4.36,0-6.55-.06l-6.58-.11Z" style="fill:#ebebeb"></path><path d="M363.51,255.21l-13.13.28-6.66.11c-2.22.05-4.46,0-6.69.06h-.45v-.45L336.53,244v-.5H337l13.24.06c4.41,0,8.82.12,13.24.17h.27V244c0,1.9-.09,3.79-.13,5.65Zm0,0-.15-5.65c0-1.87-.11-3.71-.13-5.54l.28.27c-4.42.05-8.83.16-13.24.17l-13.24.06.5-.5-.06,11.19-.44-.45c2.18,0,4.35,0,6.54.06l6.58.11Z" style="fill:#ebebeb"></path><path d="M682.09,304.5l-13.12.27-6.66.12c-2.23,0-4.47,0-6.7.05h-.44v-.44l-.06-11.19v-.51h.5l13.24.06c4.41,0,8.83.11,13.24.16h.28v.27c0,1.89-.08,3.78-.13,5.65Zm0,0-.14-5.66c-.05-1.86-.11-3.7-.13-5.53l.27.27c-4.41.05-8.83.16-13.24.16l-13.24.07.5-.5-.05,11.19-.45-.45c2.18,0,4.36,0,6.55.05l6.58.12Z" style="fill:#ebebeb"></path><path d="M696.86,318.61l-13.12.27-6.66.12c-2.23,0-4.47,0-6.7.05h-.44v-.44l-.06-11.19v-.51h.5l13.24.06c4.42,0,8.83.11,13.24.16h.28v.27c0,1.89-.09,3.78-.13,5.65Zm0,0-.14-5.66c0-1.86-.11-3.7-.13-5.53l.27.27c-4.41.05-8.82.16-13.24.16l-13.24.06.5-.49,0,11.19-.45-.45c2.18,0,4.36,0,6.55,0l6.58.12Z" style="fill:#ebebeb"></path><path d="M94.62,318.61l-13.13.27-6.66.12c-2.23,0-4.46,0-6.69.05h-.45v-.44l0-11.19v-.51h.51l13.24.06c4.41,0,8.82.11,13.24.16h.27v.27c0,1.89-.09,3.78-.13,5.65Zm0,0L94.47,313c0-1.86-.11-3.7-.13-5.53l.28.27c-4.42.05-8.83.16-13.24.16l-13.24.06.49-.49,0,11.19-.44-.45c2.18,0,4.35,0,6.54,0l6.58.12Z" style="fill:#ebebeb"></path><path d="M655.5,61.47l13.12-.28,6.66-.11c2.23,0,4.47,0,6.7,0h.44v.45l.06,11.19v.5H682l-13.24-.06c-4.42,0-8.83-.11-13.24-.16h-.28v-.27c0-1.9.09-3.78.14-5.65Zm0,0,.14,5.66c0,1.86.11,3.7.13,5.53l-.27-.27c4.41,0,8.82-.16,13.24-.16L682,72.16l-.5.5,0-11.19.45.45c-2.18,0-4.36,0-6.55-.06l-6.58-.11Z" style="fill:#ebebeb"></path><rect x="108.42" y="43.76" width="153.02" height="203.96" style="fill:#ebebeb"></rect><rect x="115.67" y="51.93" width="66.17" height="90.72" style="fill:#fff"></rect><rect x="188.02" y="51.93" width="66.17" height="90.72" style="fill:#fff"></rect><rect x="115.67" y="148.83" width="66.17" height="90.72" style="fill:#fff"></rect><rect x="188.02" y="148.83" width="66.17" height="90.72" style="fill:#fff"></rect><rect x="108.42" y="43.76" width="31.51" height="291.8" style="fill:#dbdbdb"></rect><polygon points="133.95 57.64 134.19 89.19 134.28 120.74 134.45 183.84 134.28 246.94 134.19 278.49 133.95 310.04 133.7 278.49 133.62 246.94 133.45 183.84 133.62 120.74 133.71 89.19 133.95 57.64" style="fill:#ebebeb"></polygon><polygon points="119.48 64.95 119.72 93.13 119.86 121.3 119.98 177.64 119.87 233.98 119.73 262.15 119.48 290.32 119.24 262.15 119.1 233.98 118.98 177.64 119.1 121.3 119.24 93.13 119.48 64.95" style="fill:#ebebeb"></polygon><polygon points="126.72 71.61 126.96 104.59 127.05 137.58 127.21 203.55 127.05 269.52 126.96 302.51 126.72 335.5 126.47 302.51 126.38 269.52 126.22 203.55 126.38 137.58 126.47 104.59 126.72 71.61" style="fill:#ebebeb"></polygon><polygon points="114.1 59.3 114.34 93.83 114.43 128.35 114.6 197.4 114.43 266.45 114.35 300.97 114.1 335.5 113.86 300.97 113.77 266.45 113.6 197.4 113.77 128.35 113.86 93.83 114.1 59.3" style="fill:#ebebeb"></polygon><rect x="229.93" y="43.76" width="31.51" height="291.8" transform="translate(491.36 379.33) rotate(180)" style="fill:#dbdbdb"></rect><polygon points="235.9 57.64 236.14 89.19 236.23 120.74 236.4 183.84 236.23 246.94 236.15 278.49 235.9 310.04 235.66 278.49 235.57 246.94 235.4 183.84 235.57 120.74 235.66 89.19 235.9 57.64" style="fill:#ebebeb"></polygon><polygon points="250.37 64.95 250.61 93.13 250.75 121.3 250.87 177.64 250.75 233.98 250.61 262.15 250.37 290.32 250.12 262.15 249.98 233.98 249.87 177.64 249.99 121.3 250.13 93.13 250.37 64.95" style="fill:#ebebeb"></polygon><polygon points="243.13 71.61 243.38 104.59 243.47 137.58 243.63 203.55 243.47 269.52 243.38 302.51 243.13 335.5 242.89 302.51 242.8 269.52 242.64 203.55 242.8 137.58 242.89 104.59 243.13 71.61" style="fill:#ebebeb"></polygon><polygon points="255.75 59.3 255.99 93.83 256.08 128.35 256.25 197.4 256.08 266.45 255.99 300.97 255.75 335.5 255.5 300.97 255.42 266.45 255.25 197.4 255.42 128.35 255.5 93.83 255.75 59.3" style="fill:#ebebeb"></polygon><rect x="488.57" y="43.76" width="153.02" height="203.96" style="fill:#ebebeb"></rect><rect x="495.82" y="51.93" width="66.17" height="90.72" style="fill:#fff"></rect><rect x="568.16" y="51.93" width="66.17" height="90.72" style="fill:#fff"></rect><rect x="495.82" y="148.83" width="66.17" height="90.72" style="fill:#fff"></rect><rect x="568.16" y="148.83" width="66.17" height="90.72" style="fill:#fff"></rect><rect x="488.57" y="43.76" width="31.51" height="291.8" style="fill:#dbdbdb"></rect><polygon points="514.1 57.64 514.34 89.19 514.43 120.74 514.6 183.84 514.43 246.94 514.34 278.49 514.1 310.04 513.85 278.49 513.77 246.94 513.6 183.84 513.77 120.74 513.86 89.19 514.1 57.64" style="fill:#ebebeb"></polygon><polygon points="499.63 64.95 499.88 93.13 500.01 121.3 500.13 177.64 500.02 233.98 499.88 262.15 499.63 290.32 499.39 262.15 499.25 233.98 499.13 177.64 499.25 121.3 499.39 93.13 499.63 64.95" style="fill:#ebebeb"></polygon><polygon points="506.87 71.61 507.11 104.59 507.2 137.58 507.36 203.55 507.2 269.52 507.11 302.51 506.87 335.5 506.62 302.51 506.53 269.52 506.37 203.55 506.53 137.58 506.62 104.59 506.87 71.61" style="fill:#ebebeb"></polygon><polygon points="494.25 59.3 494.5 93.83 494.58 128.35 494.75 197.4 494.58 266.45 494.5 300.97 494.25 335.5 494.01 300.97 493.92 266.45 493.75 197.4 493.92 128.35 494.01 93.83 494.25 59.3" style="fill:#ebebeb"></polygon><rect x="610.08" y="43.76" width="31.51" height="291.8" transform="translate(1251.66 379.33) rotate(180)" style="fill:#dbdbdb"></rect><polygon points="616.05 57.64 616.29 89.19 616.38 120.74 616.55 183.84 616.38 246.94 616.3 278.49 616.05 310.04 615.81 278.49 615.72 246.94 615.55 183.84 615.72 120.74 615.81 89.19 616.05 57.64" style="fill:#ebebeb"></polygon><polygon points="630.52 64.95 630.76 93.13 630.9 121.3 631.02 177.64 630.9 233.98 630.76 262.15 630.52 290.32 630.27 262.15 630.13 233.98 630.02 177.64 630.13 121.3 630.27 93.13 630.52 64.95" style="fill:#ebebeb"></polygon><polygon points="623.28 71.61 623.53 104.59 623.62 137.58 623.78 203.55 623.62 269.52 623.53 302.51 623.28 335.5 623.04 302.51 622.95 269.52 622.78 203.55 622.95 137.58 623.04 104.59 623.28 71.61" style="fill:#ebebeb"></polygon><polygon points="635.9 59.3 636.14 93.83 636.23 128.35 636.4 197.4 636.23 266.45 636.14 300.97 635.9 335.5 635.65 300.97 635.57 266.45 635.4 197.4 635.57 128.35 635.65 93.83 635.9 59.3" style="fill:#ebebeb"></polygon></g><g id="freepik--Floor--inject-2"><polygon points="46.67 347.91 128.75 347.67 210.84 347.58 375 347.41 539.16 347.58 621.25 347.67 703.33 347.91 621.25 348.15 539.16 348.24 375 348.41 210.84 348.24 128.75 348.15 46.67 347.91" style="fill:#263238"></polygon></g><g id="freepik--Shadows--inject-2"><ellipse cx="283.85" cy="397.42" rx="163.27" ry="23.02" style="fill:#ebebeb"></ellipse><ellipse cx="538.34" cy="442.42" rx="164.81" ry="24.47" style="fill:#ebebeb"></ellipse><ellipse cx="128.07" cy="444.26" rx="78.4" ry="14.7" style="fill:#ebebeb"></ellipse><ellipse cx="410.56" cy="363.15" rx="36.78" ry="7.18" style="fill:#ebebeb"></ellipse></g><g id="freepik--Plant--inject-2"><path d="M404.56,280.76a63.49,63.49,0,0,1,2.05,11.65c-.1.19-.08.91,0,.71,0,.64,1,.53,1-.1,0-.41,0-.83,0-1.23,2.28-2.82,5.58-4.61,8.25-7.06a15.48,15.48,0,0,0,4.52-7.2c2.22-7.63.14-15.72,2.8-23.33,2.3-6.57,6.42-12.27,9.91-18.22,3.67-6.29,6.39-12.9,6.66-20.27.22-5.64-.46-13.15-4.75-17.38-4.56-4.48-10.2-1.12-13.69,2.87-10.11,11.61-14.79,26.27-16.68,41.26-1,8.3-2.12,16.65-1.87,25A66.65,66.65,0,0,0,404.56,280.76Z" style="fill:#0CDAC3"></path><path d="M406.57,295.45a143.07,143.07,0,0,1,.28-23.51.1.1,0,0,1,0-.08c-.13-6.36-.63-12.68-.38-19.05a113.36,113.36,0,0,1,2.79-20.42c0-.08.14-.06.13,0a132.77,132.77,0,0,0-2.21,20c-.13,3.59-.11,7.19.08,10.77.06,1.17.17,2.35.25,3.52h0a125.59,125.59,0,0,1,18.91-50c.13-.2.5,0,.37.23A130.56,130.56,0,0,0,411.36,254c4.86-9,12.2-16.41,17.65-25.07,0,0,.11,0,.08.05-4.89,9.64-13,17.24-18.13,26.73q-1.35,5.8-2.17,11.71a130.05,130.05,0,0,0-1.17,16.26c3-5.54,6-10.83,8.45-16.69.07-.15.29-.05.24.11-2.06,6.08-4.83,12.63-8.71,17.82,0,3.84.09,7.7.32,11.54.6,10.26,2.36,20.39,3.17,30.62a.24.24,0,0,1-.47.05A235.24,235.24,0,0,1,406.57,295.45Z" style="fill:#263238"></path><path d="M417.47,216.3c0-.07.14,0,.11,0-1.87,5.19-2.93,10.44-4.29,15.75a.19.19,0,0,1-.38-.06C413.46,226.65,415.38,221.27,417.47,216.3Z" style="fill:#263238"></path><path d="M369.87,238a77.85,77.85,0,0,0,4.31,8.86c3.37,6.13,6.89,11.74,7.53,18.88.29,3.19.39,6.39,1.36,9.46a28.46,28.46,0,0,0,3.77,7.41c3.66,5.33,8.23,9.92,11.62,15.45a64.93,64.93,0,0,1,7.72,18.62c.09.36.65.26.57-.1a.12.12,0,0,1,0-.08.15.15,0,0,0,0-.08c.54-15.3-.68-30.73-5.35-45.39A158.33,158.33,0,0,0,394,252.18c-2.5-5.31-5.62-10.43-10-14.4-2.85-2.56-9-7.43-13.08-4.85C369,234.16,369.1,236.12,369.87,238Z" style="fill:#0CDAC3"></path><path d="M385.25,272.73a124.63,124.63,0,0,0,8.89,12.78c1.48,1.94,3,3.85,4.47,5.79.69.92,1.48,1.83,2.12,2.81q-.6-2.42-1.21-4.83c-2-7.73-3.87-15.53-6.81-23a155.21,155.21,0,0,0-10.63-20.83c-.1-.18.18-.31.29-.13,3.23,5.31,6.51,10.63,9.23,16.23a85.36,85.36,0,0,1,3.92,9.64,148.56,148.56,0,0,0-5.22-20.59.05.05,0,0,1,.1,0A70.25,70.25,0,0,1,395.81,272s0,0,0,0c.66,2,1.27,4,1.84,6,2.41,8.56,4.53,17.22,6.49,25.9a92.66,92.66,0,0,0-1.47-17c0-.13.17-.16.2,0a53.92,53.92,0,0,1,1.47,17.94q1.13,4.95,2.17,9.91c1.51,7.06,3.36,14.24,4.24,21.4a.15.15,0,0,1-.29.05c-1.05-3.86-1.68-7.87-2.54-11.78s-1.75-7.83-2.66-11.74q-2-8.55-4.14-17.05c-.95-2.08-2.78-3.93-4.15-5.67-1.51-1.91-3-3.83-4.48-5.77a86.63,86.63,0,0,1-7.37-11.4A.08.08,0,0,1,385.25,272.73Z" style="fill:#263238"></path><path d="M384.59,266.18A79.84,79.84,0,0,1,393.3,280c0,.06-.07.13-.11.07-2.93-4.59-5.81-9.22-8.73-13.81C384.41,266.19,384.54,266.11,384.59,266.18Z" style="fill:#263238"></path><path d="M449.75,252.54c-2,3.42-4.25,7.52-3.4,11.62.54,2.6,2.44,4.7,2.78,7.35.77,5.85-5.05,9.71-9.27,12.47-10.51,6.9-24.92,13-26.83,27.13-.08.5-.94.37-.87-.12a.29.29,0,0,1,0-.09s-.06,0-.06-.08a53.91,53.91,0,0,1,.2-21.51c1.57-7.26,4.74-13.78,8.48-20.16,6.32-10.78,13-21.83,22.58-30.1,2.65-2.28,8.07-6.4,10.18-1.24S452.18,248.38,449.75,252.54Z" style="fill:#0CDAC3"></path><path d="M440.13,275.42c-7,7.54-18.05,11.77-24.05,20.22a84.67,84.67,0,0,1,18.48-34.71.27.27,0,0,0-.38-.39,68.54,68.54,0,0,0-15.1,21.87,98.32,98.32,0,0,1,6.5-16.63.18.18,0,0,0-.31-.18,63.64,63.64,0,0,0-7,18.7c-7.9,19.13-8.63,41.57-7,61.73,0,.29.46.3.45,0-.45-15.89-.2-32.06,3.61-47.58.08-.32.17-.64.25-1,6.53-9.09,17.56-13.31,24.65-21.94C440.32,275.45,440.2,275.33,440.13,275.42Z" style="fill:#263238"></path><path d="M441.74,268.94c-3.65,3.35-7.26,6.79-10.92,10.14,0,0,0,.1.05.07a53.52,53.52,0,0,0,11.09-10C442.08,269,441.89,268.8,441.74,268.94Z" style="fill:#263238"></path><path d="M442.32,254.4a114.42,114.42,0,0,1-10.94,15,.06.06,0,0,0,.09.09,52.9,52.9,0,0,0,11-15A.11.11,0,0,0,442.32,254.4Z" style="fill:#263238"></path><polygon points="425.85 360.25 393.81 360.25 398.13 317.15 420.92 317.15 425.85 360.25" style="fill:#455a64"></polygon><polygon points="421.72 324.15 397.43 324.15 398.13 317.15 420.92 317.15 421.72 324.15" style="fill:#263238"></polygon><rect x="394.82" y="312.37" width="30.03" height="6.88" style="fill:#455a64"></rect></g><g id="freepik--character-5--inject-2"><path d="M575.2,442.32c2.15.7,63.36-.1,65.66-1.61.89-.56,1.3-9.48,1.48-20.28v-.34c0-2.22.07-4.52.07-6.84,0-.32,0-.64,0-1l-3-31.75-40.94.41,4,31.45.05,1.25.24,6.51,0,.67s-23.29,10.78-25.66,12.71S573.05,441.64,575.2,442.32Z" style="fill:#ad6359"></path><path d="M575.2,442.32c2.15.7,63.36-.1,65.66-1.61.89-.56,1.3-9.48,1.48-20.28v-.34c0-2.22.07-4.52.07-6.84,0-.32,0-.64,0-1l-39.87.11.05,1.25.24,6.51,0,.67s-23.29,10.78-25.66,12.71S573.05,441.64,575.2,442.32Z" style="fill:#ebebeb"></path><path d="M575.2,442.32c1.1.35,17.73.32,34,0l9.62-.22c11.59-.32,21.17-.8,22.06-1.38s1.28-9.23,1.46-19.83c0-.15,0-.3,0-.45s0-.24,0-.35h-.05l-39.44.08v.67s-23.29,10.78-25.65,12.71S573.05,441.64,575.2,442.32Z" style="fill:#0CDAC3"></path><path d="M575.86,439.94c10.32-.39,52-1,62.18-.57.08,0,.08.06,0,.06-10.21.61-51.85.86-62.17.68C575.65,440.11,575.65,440,575.86,439.94Z" style="fill:#263238"></path><path d="M598.45,420.33c4-.81,9-.25,12.16,2.6.13.11,0,.28-.16.24a57.44,57.44,0,0,0-12-2.33A.26.26,0,0,1,598.45,420.33Z" style="fill:#263238"></path><path d="M595.54,422.13c4.05-.81,9-.25,12.17,2.61.12.11,0,.28-.17.24a57.35,57.35,0,0,0-12-2.33A.26.26,0,0,1,595.54,422.13Z" style="fill:#263238"></path><path d="M592.64,423.94c4.05-.81,9-.25,12.16,2.6.12.11,0,.28-.17.24a57.22,57.22,0,0,0-12-2.33A.26.26,0,0,1,592.64,423.94Z" style="fill:#263238"></path><path d="M609.18,442.31l9.62-.22c11.59-.32,21.17-.8,22.06-1.38s1.28-9.23,1.46-19.83c0-.15,0-.3,0-.45s0-.24,0-.35h-.05C636.89,423.87,617.85,436.55,609.18,442.31Z" style="fill:#263238"></path><path d="M600.16,420.3h44.08s-8.88-103-8.53-104.76c.44-2.3,3-12.72,6.51-26.33,1.08-4.26,2.25-8.83,3.47-13.57,3.29-12.81,6.91-26.81,10.07-39,4.73-18.25,8.43-32.42,8.43-32.42H626.83S622.48,218,617,236c-8.94,29.18-20.89,69.35-22.07,79.11C593,330.87,600.16,420.3,600.16,420.3Z" style="fill:#263238"></path><path d="M602.11,412.78c6.73-.14,4.8-.2,11.53-.26,3.3,0,25-.22,28,.29a.07.07,0,0,1,0,.13c-3.08.51-24.73.32-28,.29-6.73-.06-4.8-.12-11.53-.26A.1.1,0,1,1,602.11,412.78Z" style="fill:#37474f"></path><path d="M627.42,309.25c1.44-6.37,3.6-12.61,5.48-18.87q5.73-19.06,11.53-38.1,2.9-9.53,5.82-19,1.47-4.81,3-9.61c1-3.12,2.1-6.23,3-9.38.36-1.29.56-.58.1,1.05-.93,3.29-1.85,6.58-2.81,9.86q-2.85,9.74-5.73,19.47Q642,264,636.19,283.35q-2.91,9.69-5.83,19.4a77.61,77.61,0,0,0-2.38,9.38,43.24,43.24,0,0,0-.39,10c.42,6.74,1.2,13.48,1.82,20.2s1.25,13.49,1.88,20.23q1.86,20.13,3.69,40.26c.15,1.7.3,3.4.43,5.11.05.57-.36.63-.42.09-1.45-13.27-3-26.7-4.27-40s-2.48-26.45-3.71-39.68c-.31-3.32-.67-6.64-.67-10A41,41,0,0,1,627.42,309.25Z" style="fill:#37474f"></path><path d="M631.08,204.23c2.59,20.06,7.53,57.68,11.14,85,8.42-33.07,22-85,22-85Z" style="fill:#37474f"></path><path d="M621.9,442.91c2.14.7,63.35.13,65.67-1.37.89-.56,1.32-9.48,1.54-20.28,0-.11,0-.22,0-.33,0-2.23.08-4.52.09-6.84,0-.32,0-.64,0-1,.14-15.59-1-31.75-1-31.75l-40,.26,1.12,31.45,0,1.25.22,6.51,0,.67s-23.33,10.7-25.7,12.62S619.75,442.22,621.9,442.91Z" style="fill:#ad6359"></path><path d="M621.9,442.91c2.14.7,63.35.13,65.67-1.37.89-.56,1.32-9.48,1.54-20.28,0-.11,0-.22,0-.33,0-2.23.08-4.52.09-6.84,0-.32,0-.64,0-1l-39.87,0,0,1.25.22,6.51,0,.67s-23.33,10.7-25.7,12.62S619.75,442.22,621.9,442.91Z" style="fill:#ebebeb"></path><path d="M621.9,442.91c2.14.7,63.35.13,65.67-1.37.89-.56,1.32-9.48,1.54-20.28,0-.11,0-.22,0-.33l-39.5-.08,0,.67s-23.33,10.7-25.7,12.62S619.75,442.22,621.9,442.91Z" style="fill:#0CDAC3"></path><path d="M622.57,440.53c10.32-.35,51.95-.78,62.18-.34.08,0,.08.06,0,.06-10.22.57-51.86.67-62.18.45C622.35,440.7,622.35,440.54,622.57,440.53Z" style="fill:#263238"></path><path d="M645.23,421c4-.8,9-.22,12.15,2.64.12.11,0,.28-.17.24a57.2,57.2,0,0,0-12-2.37A.26.26,0,0,1,645.23,421Z" style="fill:#263238"></path><path d="M642.31,422.8c4.06-.8,9-.22,12.16,2.64.12.12,0,.29-.17.25a56.67,56.67,0,0,0-12-2.38A.26.26,0,0,1,642.31,422.8Z" style="fill:#263238"></path><path d="M639.4,424.59c4.05-.79,9-.22,12.15,2.65.12.11,0,.28-.17.24a56.44,56.44,0,0,0-12-2.37A.26.26,0,0,1,639.4,424.59Z" style="fill:#263238"></path><path d="M628,204.23s.86,17.87,5,32c.33,1.17.69,2.32,1.07,3.43a66.14,66.14,0,0,1,10.77,5.53s.43,14.38.86,30.42c.48,17.93,1,37.93.87,42.17-.37,15.87,2,103.13,2,103.13l44.07.18s-8-97.45-7.91-103.26c.08-9.35-2.14-50.65-3.85-80.77a238,238,0,0,0-4.12-32.86Z" style="fill:#263238"></path><path d="M650.06,413.1c6.73-.11,4.8-.17,11.53-.21,3.29,0,24.95-.11,28,.41a.07.07,0,0,1,0,.14c-3.08.5-24.73.22-28,.17-6.74-.09-4.8-.14-11.53-.31A.1.1,0,0,1,650.06,413.1Z" style="fill:#37474f"></path><path d="M675.24,210.61c.82,24.59,1.68,49.18,2.77,73.76s6.9,112.94,8.38,126.65c0,.09-.13.12-.14,0-3.21-24.39-5-60.49-6.58-85s-2.64-49.12-3.48-73.7c-.47-13.9-.84-27.81-1.25-41.71C674.93,210.4,675.24,210.42,675.24,210.61Z" style="fill:#37474f"></path><path d="M632.23,238.62a81.23,81.23,0,0,1,12.6,6.6.15.15,0,0,1-.13.26c-4.25-2.07-8.6-4.06-12.73-6.35A.29.29,0,0,1,632.23,238.62Z" style="fill:#37474f"></path><path d="M632,223.46c.29,1.56.67,3.11,1,4.67s.55,3,.94,4.4a7.41,7.41,0,0,0,2.05,3.68c.57.53,1.2,1,1.81,1.49.33.26.69.52,1,.78-.05-.2-.08-.41-.12-.63l-.3-1.78c-.22-1.32-.44-2.64-.64-4-.4-2.6-.76-5.23-1.3-7.8a.08.08,0,1,1,.16,0c.65,2.55,1.36,5.07,1.93,7.64.27,1.26,1.26,7.49,1.3,7.93s.09.91.1,1.37a5,5,0,0,1,0,1.4c0,.11-.16.09-.21,0h0a5.66,5.66,0,0,1-.39-1.35q-.18-.67-.3-1.35c0-.16,0-.33-.07-.5-.61-.37-1.18-.86-1.76-1.28s-1.25-.88-1.83-1.37a7.07,7.07,0,0,1-2.24-3.5,26,26,0,0,1-.73-4.47c-.2-1.77-.34-3.55-.59-5.31C631.81,223.39,632,223.35,632,223.46Z" style="fill:#37474f"></path><path d="M637.38,163.47c-3.21,18-7.42,39.14-13.37,44.34-9,7.88-38.33,16.41-46.34,16.88-3.33.19-4.86-30-1.29-30.13,7.6-.35,30.88-2.44,32.66-3.71s10.36-17.7,17.19-30.54C634.45,144.87,639.23,153.07,637.38,163.47Z" style="fill:#ad6359"></path><path d="M577.67,224.69c-2.73,1.11-15.73,5.09-19.59,5.38s-15,.36-15.57-2.58,2.74-3.21,2.74-3.21-4.73-.73-5-3.73,4.84-3.27,4.84-3.27-4.8-1.1-4.84-4.11,5.12-2.42,5.12-2.42-4.43-.8-3.42-3.3c1.2-3,9.21-.61,13.45-1.26,1-.15,19.31-4.38,19.31-4.38Z" style="fill:#ad6359"></path><path d="M544.94,210.71c5.89,1.75,8.77,1.49,14.6-.15a.1.1,0,0,1,.07.18c-5.56,2.12-9.13,3-14.77.25C544.56,210.85,544.66,210.62,544.94,210.71Z" style="fill:#263238"></path><path d="M544.64,217.13c6.28,1.29,9.4,1,15.63-.23.09,0,.13.13,0,.15-6,1.76-9.58,2.52-15.69.41C544.34,217.37,544.35,217.08,544.64,217.13Z" style="fill:#263238"></path><path d="M545.56,224.2c6.17.81,9.61.68,15.5-1.33a.12.12,0,0,1,.09.22c-5.81,2.63-10.1,2.81-15.59,1.3C545.18,224.29,545.18,224.15,545.56,224.2Z" style="fill:#263238"></path><path d="M576.38,194.56s-7.67-.73-11.11-.31-15.68,6.71-14.47,9.43c1.56,3.51,9.34,1.27,13-.32,0,0,3.6,8.13,9.53,7.73S576.38,194.56,576.38,194.56Z" style="fill:#ad6359"></path><path d="M551.55,204.5c3.73,2.18,8.41-.22,12.08-1.5a.35.35,0,0,1,.49.32c1.74,3.3,5.15,7.46,9.06,8a.09.09,0,0,1,0,.18c-4.26.05-7.95-3.76-9.62-7.51-3.75,1.37-8.54,3.58-12,.6C551.5,204.52,551.52,204.49,551.55,204.5Z" style="fill:#263238"></path><path d="M616.3,172.65l20,8.11s4.9-13.46,4.92-24.65-8.08-7-12.7-.78S616.3,172.65,616.3,172.65Z" style="fill:#0CDAC3"></path><path d="M636.79,176.89a149.57,149.57,0,0,1-17-7.27c-.07,0,0-.14.06-.11,1.47.71,10.21,4,17.05,7.26C636.93,176.8,636.87,176.91,636.79,176.89Z" style="fill:#263238"></path><path d="M641.21,156.11c0,11.19-4.92,24.65-4.92,24.65L621,174.57c4.39-6.51,13.09-19.39,17.24-25.29C640,149.77,641.22,151.79,641.21,156.11Z" style="fill:#263238"></path><path d="M620.72,224.23c1,1,60.21.39,60.51,0,.79-1.07-8.29-39.27-15.1-53.76-8.73-18.57-14-21.56-16.8-22.6-3.52-1.32-12,.67-13.55,1.36-1.71.76-6,9.44-8.09,16.34C623.61,179.41,619.86,223.37,620.72,224.23Z" style="fill:#0CDAC3"></path><path d="M660.77,160.09c8,15.6,17.76,45.28,12,50.69-4.76,4.47-29.57,7-35.75,7-3.34,0-13.56-23.25-10.1-24.15,7.36-1.92,24-1.56,25.43-3.17s-2.05-14.34-2.05-30.75C650.3,146.39,656,150.69,660.77,160.09Z" style="fill:#ad6359"></path><path d="M634.69,192.66s-10.05-1.44-16.66-2.07c-3.69-.35-10.07-.4-12.9.59-4.24,1.46-21,10.3-19,14.41,1.86,3.72,15.3-5.7,15.3-5.7s-14.4,8.31-11.34,12.38,16.84-8.6,16.84-8.6-14.61,8.87-10.79,12.57c2.89,2.79,16-8,16-8S599.7,216,602.55,219c3.14,3.32,15.88-5.86,15.88-5.86,8.52,6.41,15.35,6.56,20.1,4.27C638.53,217.38,636.19,200.6,634.69,192.66Z" style="fill:#ad6359"></path><path d="M606.28,196.7c-1.73.91-3.48,1.83-5.12,2.89s-3.25,2.19-4.78,3.4a34,34,0,0,0-5.52,5.29c3.15-3.28,9-7.18,10.61-8.25s3.22-2.21,4.85-3.27A0,0,0,0,0,606.28,196.7Z" style="fill:#263238"></path><path d="M610.23,202.55c-2.62.75-9.17,4.86-12.38,8.11-.14.13,0,.16.12.05,2-1.41,10.19-6.8,12.3-8.11C610.3,202.58,610.27,202.54,610.23,202.55Z" style="fill:#263238"></path><path d="M614.53,207a30.09,30.09,0,0,0-9.4,6.56c-.14.14,0,.16.16,0,3.08-2.24,5.49-4,9.3-6.49C614.65,207,614.6,206.93,614.53,207Z" style="fill:#263238"></path><path d="M623.32,191.17a72.3,72.3,0,0,0-13.47-.54c-4.56.09-8.62,2.28-12.43,4.61-1.91,1.18-3.79,2.42-5.62,3.73-.91.65-1.82,1.32-2.7,2a8.68,8.68,0,0,0-2.21,2.36,3.46,3.46,0,0,0-.5,1.43,1.13,1.13,0,0,0,.52,1.11,2.59,2.59,0,0,0,1.44.21,9.77,9.77,0,0,0,1.58-.3,28.47,28.47,0,0,0,6.21-2.42l.07.1a35.86,35.86,0,0,0-3.64,3.55,15.71,15.71,0,0,0-1.63,1.93,4.46,4.46,0,0,0-.92,2.16,1.23,1.23,0,0,0,.36.93,2.19,2.19,0,0,0,.94.58,4.22,4.22,0,0,0,2.35-.14,15.65,15.65,0,0,0,4.6-2.17l.14.14A9.05,9.05,0,0,0,596,213.9a2.12,2.12,0,0,0,.16,1.89,1.74,1.74,0,0,0,1.69.77,11.11,11.11,0,0,0,4-1.35,32.65,32.65,0,0,0,3.83-2.15l.12.15a18,18,0,0,0-2.46,2.24,7.59,7.59,0,0,0-.93,1.38,2,2,0,0,0-.21,1.6,2,2,0,0,1,.17-1.62,7.7,7.7,0,0,1,.89-1.42,19,19,0,0,1,2.41-2.33l.13.15A32.33,32.33,0,0,1,602,215.5a10.69,10.69,0,0,1-4.17,1.48,2.77,2.77,0,0,1-1.17-.16,2.13,2.13,0,0,1-.93-.77,2.64,2.64,0,0,1-.24-2.3c.49-1.48,1.68-2.41,2.75-3.45l.14.15a15.15,15.15,0,0,1-4.54,2.63,4.76,4.76,0,0,1-2.73.15,2.79,2.79,0,0,1-1.23-.74,1.91,1.91,0,0,1-.54-1.41,5,5,0,0,1,1-2.53,17.38,17.38,0,0,1,1.69-2,34.33,34.33,0,0,1,4-3.15l.08.1a26.7,26.7,0,0,1-6,3,9.79,9.79,0,0,1-1.73.32,3.32,3.32,0,0,1-1.85-.32,1.83,1.83,0,0,1-.87-1.78,4.11,4.11,0,0,1,.61-1.74,9.2,9.2,0,0,1,2.39-2.54c.9-.69,1.81-1.36,2.74-2,1.85-1.3,3.74-2.55,5.68-3.71a45.38,45.38,0,0,1,6.06-3.08,16.93,16.93,0,0,1,3.27-1,26.07,26.07,0,0,1,3.39-.39A70.91,70.91,0,0,1,623.32,191.17Z" style="fill:#263238"></path><path d="M650.51,183l20.41-7s-5.13-13.38-12.46-21.83-10.66,0-10.09,7.73S650.51,183,650.51,183Z" style="fill:#0CDAC3"></path><path d="M668.4,172.54a150.27,150.27,0,0,1-17.52,6.05c-.07,0-.11-.1,0-.12,1.57-.46,10.27-3.87,17.51-6.06C668.45,172.38,668.48,172.51,668.4,172.54Z" style="fill:#263238"></path><path d="M649.86,175.07c-.28-2.57-.6-6.28-1-8.84a0,0,0,0,0-.06,0c0,1.42.13,2.85.26,4.28l-.06-.23c-.23-.72-.47-1.44-.74-2.14a0,0,0,0,0,0,0c.14.75.31,1.49.52,2.23.13.45.28.9.43,1.35.07.76.21,2.62.29,3.37.13,1.26.49,8.26.61,8.22a17.66,17.66,0,0,0,2.06-.71c.1,0,0-.22-.08-.18-.37.15-1.28.41-1.43.46-.17-1.3-.23-2.63-.35-3.94S650,176.37,649.86,175.07Z" style="fill:#263238"></path><path d="M637.44,158.7c3.29,1,9.33-3.78,11.83-7.78.17-.28-.09-3.29-.23-7-.07-2.23-.11-4.72,0-7,0-.46-14.46,2.63-14.46,2.63a36.48,36.48,0,0,1,.87,8.8,6.45,6.45,0,0,1-.15.93.57.57,0,0,0,0,.15C634.9,151.22,634.26,157.75,637.44,158.7Z" style="fill:#ad6359"></path><path d="M648.19,137c-.89,3.8-3.82,12.94-11.44,12.67a8.88,8.88,0,0,1-1.45-.17.57.57,0,0,1,0-.15,6.69,6.69,0,0,0,.15-.93,36,36,0,0,0-.87-8.81S645.06,137.35,648.19,137Z" style="fill:#263238"></path><path d="M649.9,118.72c1.94,4.92.43,19.71-2.9,23.24-4.83,5.12-13.31,6.25-17.81.31-4.36-5.75-2.05-25,1.72-28.26C636.47,109.2,647,111.45,649.9,118.72Z" style="fill:#ad6359"></path><path d="M638.45,128.74s.08,0,.07.09c-.13,1-.11,2.16.76,2.57,0,0,0,.07,0,.06C638.18,131.2,638.17,129.66,638.45,128.74Z" style="fill:#263238"></path><path d="M639.44,127.78c1.62,0,1.43,3.26-.06,3.23S638.09,127.75,639.44,127.78Z" style="fill:#263238"></path><path d="M632.66,128.44s-.08.05-.08.09c0,1-.23,2.14-1.15,2.42,0,0,0,.06,0,.06C632.55,130.91,632.8,129.4,632.66,128.44Z" style="fill:#263238"></path><path d="M631.83,127.35c-1.6-.22-1.92,3-.43,3.2S633.17,127.53,631.83,127.35Z" style="fill:#263238"></path><path d="M640.8,126.38a10.83,10.83,0,0,1-1.22-.51,2.12,2.12,0,0,1-1.15-.76.69.69,0,0,1,.16-.82,1.69,1.69,0,0,1,1.71-.08,2.53,2.53,0,0,1,1.37,1.16A.73.73,0,0,1,640.8,126.38Z" style="fill:#263238"></path><path d="M630.67,125.65a11.67,11.67,0,0,0,1.31-.26,2.11,2.11,0,0,0,1.27-.51.69.69,0,0,0,0-.84,1.67,1.67,0,0,0-1.66-.41,2.49,2.49,0,0,0-1.58.86A.73.73,0,0,0,630.67,125.65Z" style="fill:#263238"></path><path d="M638.39,138.12c-.26.22-.51.53-.88.54a2.51,2.51,0,0,1-1.06-.32,0,0,0,0,0,0,0,1.34,1.34,0,0,0,1.23.62,1.06,1.06,0,0,0,.84-.84C638.5,138.11,638.42,138.09,638.39,138.12Z" style="fill:#263238"></path><path d="M637.51,135.07a3.42,3.42,0,0,1-2.36,1.38,3.91,3.91,0,0,1-1.23,0,.85.85,0,0,1-.23,0l-.22,0a.26.26,0,0,1-.18-.24h0a.41.41,0,0,1,0-.11h0v-.09c0-.77.17-1.94.17-1.94-.29.13-1.76.69-1.72.29A51,51,0,0,1,633.68,124c0-.11.2-.08.18,0-.25,3.2-1.06,6.34-1.36,9.55a6.2,6.2,0,0,1,1.63-.39c.11,0-.32,2.25-.3,2.59a.1.1,0,0,0,0,0,4.69,4.69,0,0,0,3.58-.89C637.5,134.92,637.57,135,637.51,135.07Z" style="fill:#263238"></path><path d="M634.39,136.13a4.08,4.08,0,0,0,1.6,1.28,1.9,1.9,0,0,0,1.11.08c.8-.2.83-.93.69-1.56a4.42,4.42,0,0,0-.34-1A5.22,5.22,0,0,1,634.39,136.13Z" style="fill:#263238"></path><path d="M636,137.41a1.9,1.9,0,0,0,1.11.08c.8-.2.83-.93.69-1.56A1.88,1.88,0,0,0,636,137.41Z" style="fill:#ff99ba"></path><path d="M650.58,129.37c-1-.51-2.91-3.89-3.74-5.27s-.7-8.06-.6-10a10.58,10.58,0,0,1,3.66,4.67C650.77,120.92,651,125.11,650.58,129.37Z" style="fill:#263238;opacity:0.2"></path><path d="M633.17,118.83a5.14,5.14,0,0,0,4.59,2A5.26,5.26,0,0,0,642,118s.1,0,.08,0a5.22,5.22,0,0,1-4.27,3.26,5.32,5.32,0,0,1-4.73-2.38A.06.06,0,0,1,633.17,118.83Z" style="fill:#263238"></path><path d="M639.29,106.48a8.11,8.11,0,0,1,6.57,4.17,5.79,5.79,0,0,1,.32,3.79s-.11,0-.11,0a6.35,6.35,0,0,0-2.62-5.91,8.22,8.22,0,0,0-7.17-1.32,5.18,5.18,0,0,0-2.91,2c-.07.11-.28,0-.23-.08C634.06,107.35,636.6,106.25,639.29,106.48Z" style="fill:#263238"></path><path d="M621.58,111.85a6.6,6.6,0,0,1,3-3.36c1.9-1,4-.72,6-.38a0,0,0,1,1,0,.08,9.1,9.1,0,0,0-5.17.26,6.45,6.45,0,0,0-3.18,3,6.3,6.3,0,0,0,2.11,8,6.41,6.41,0,0,0,5,.83c.07,0,.11.08,0,.1a6.44,6.44,0,0,1-7.81-8.47Z" style="fill:#263238"></path><path d="M650.62,121.79s3.14-5.17,1-8.39c-1.24-1.83-5.7-1.86-5.7-1.86a8.07,8.07,0,0,0-4.92-3.7c-3.68-1.07-8.23.85-8.23.85s-3.42-2.23-6.84-.53c-4.77,2.37-4.6,9.44-.09,12,3.18,1.78,7.78-.85,7.78-.85.42.08,4.63,3,8.15-.74,0,0,2.55,2.54,5,1A3.9,3.9,0,0,0,650.62,121.79Z" style="fill:#263238"></path><path d="M647.73,130.84s3-4.91,5.23-3.86.13,8-2.33,9.12a2.55,2.55,0,0,1-3.5-1.17Z" style="fill:#ad6359"></path><path d="M652.31,129s.05.05,0,.06c-1.72.82-2.55,2.51-3.1,4.24a1.42,1.42,0,0,1,2.09-.51s0,.11,0,.1a1.58,1.58,0,0,0-1.7.65,7.65,7.65,0,0,0-.75,1.45c-.07.16-.36.1-.31-.09v0C648.35,132.58,649.91,129.34,652.31,129Z" style="fill:#263238"></path></g><g id="freepik--character-4--inject-2"><path d="M512.16,452.84c-31.32,0-56.8-31.8-56.8-70.89s25.48-70.89,56.8-70.89S569,342.86,569,382,543.48,452.84,512.16,452.84Zm0-136.1C484,316.74,461.05,346,461.05,382s22.93,65.2,51.11,65.2,51.11-29.25,51.11-65.2S540.34,316.74,512.16,316.74Z" style="fill:#263238"></path><path d="M516.64,444.79c-27.71,0-50.25-28.19-50.25-62.84s22.54-62.85,50.25-62.85,50.25,28.2,50.25,62.85S544.35,444.79,516.64,444.79Zm0-121.63c-25.47,0-46.19,26.37-46.19,58.79s20.72,58.78,46.19,58.78,46.19-26.37,46.19-58.78S542.11,323.16,516.64,323.16Z" style="fill:#c7c7c7"></path><rect x="433.39" y="297.7" width="83.93" height="32.4" style="fill:#a6a6a6"></rect><path d="M503.71,408.05H433.39V404h70.32a11.56,11.56,0,0,0,11.54-11.54V235.27a15.62,15.62,0,0,1,15.6-15.6h9.47v4.06h-9.47a11.54,11.54,0,0,0-11.54,11.54V392.45A15.62,15.62,0,0,1,503.71,408.05Z" style="fill:#c7c7c7"></path><path d="M435.42,430h-4.06V296a14.06,14.06,0,0,1,14-14h71.88V286H445.4a10,10,0,0,0-10,10Z" style="fill:#c7c7c7"></path><ellipse cx="514.71" cy="381.95" rx="8.15" ry="10.27" style="fill:#c7c7c7"></ellipse><path d="M525.46,382c0,5.67-3.64,10.27-8.14,10.27s-8.15-4.6-8.15-10.27,3.65-10.28,8.15-10.28S525.46,376.27,525.46,382Z" style="fill:#dbdbdb"></path><rect x="517.32" y="379.92" width="73.77" height="4.06" style="fill:#c7c7c7"></rect><ellipse cx="431.87" cy="441.42" rx="10.6" ry="13.37" style="fill:#c7c7c7"></ellipse><ellipse cx="435.27" cy="441.42" rx="10.6" ry="13.37" style="fill:#dbdbdb"></ellipse><rect x="527.75" y="217.52" width="25.15" height="8.07" style="fill:#263238"></rect><rect x="519.38" y="236.14" width="71.71" height="77.76" style="fill:#263238"></rect><rect x="414.98" y="434.33" width="94.19" height="12.15" style="fill:#263238"></rect><path d="M406.11,436.58c2.11.71,63.93.31,66.22-1.16.27-.16.35-5.75.34-13.41v-.15c0-4.85,1.38-46.28,1.38-46.28l-38.69-.22-2.3,40.81s-8.34,3.5-15.6,7h0a89.28,89.28,0,0,0-9.27,4.8C405.85,429.84,404,435.9,406.11,436.58Z" style="fill:#d3766a"></path><path d="M406.12,436.58c2.1.71,63.92.31,66.21-1.17.26-.15.35-5.31.34-12.5-4.73.71-47.55,7-55.68,6.4-8.62-.65,5.15-8.23,5.15-8.23h-.23c-1.48.68-3,1.39-4.45,2.08,0,0,0,0,0,0a85.93,85.93,0,0,0-9.27,4.79C405.85,429.84,404,435.9,406.12,436.58Z" style="fill:#0CDAC3"></path><path d="M433.25,436.88c17.72-.14,37.79-.64,39.08-1.47.27-.15.35-5.74.34-13.4v-.15c0-4.85,1.39-46.28,1.39-46.28l-3,0Z" style="fill:#263238"></path><path d="M531.19,256.65,525.1,273.4s-62.51,8-76.32,26.52c-15.87,21.29-19.95,114.23-19.95,114.23l45.7-.88s5.65-82.24,10.3-88.57,69.81-12.56,82.38-22.3,3.21-46.19,3.21-46.19Z" style="fill:#455a64"></path><path d="M474,404.9a40.84,40.84,0,0,0-4.14-.2c-1.37,0-2.74-.05-4.11-.07-2.81-.05-5.61,0-8.42,0-5.61,0-11.22.07-16.83.21-1.58,0-3.15.05-4.72.12s-3.16.09-4.72.29c-.06,0-.1.12,0,.13a75.55,75.55,0,0,0,8.24.29q4.2,0,8.42,0,8.41,0,16.83-.13c1.57,0,3.15-.08,4.72-.13a43.78,43.78,0,0,0,4.72-.27C474.08,405.16,474.14,404.93,474,404.9Z" style="fill:#263238"></path><path d="M564.57,296.39c-9.6,4.16-19.82,6.68-30.07,8.6s-20.73,3.26-31.11,4.83c-5.21.79-10.51,1.47-15.55,3a17.45,17.45,0,0,0-6.27,3,10.28,10.28,0,0,0-3.06,6c-1.1,5.39-1.87,10.87-2.7,16.31s-1.6,11.09-2.32,16.64c-1.45,11.19-2.67,22.4-3.89,33.61-.15,1.35-.27,2.71-.41,4.06,0,.14.2.19.22,0,1.44-11,2.71-22.09,4.15-33.12s3-22.06,4.88-33c.41-2.43.64-5.07,1.63-7.36a9,9,0,0,1,5.17-4.54c4.87-2,10.19-2.78,15.37-3.61,10.22-1.63,20.5-2.91,30.68-4.79a163.52,163.52,0,0,0,29.81-8.13c1.18-.45,2.35-.93,3.5-1.43C564.68,296.48,564.64,296.36,564.57,296.39Z" style="fill:#263238"></path><path d="M438,437.14c2.1.7,63.92.3,66.21-1.17.27-.16.36-5.75.34-13.4v-.15c0-4.85,1.39-46.29,1.39-46.29l-38.7-.21-2.3,40.8s-8.34,3.51-15.6,7l0,0a86.29,86.29,0,0,0-9.26,4.79C437.75,430.4,435.91,436.45,438,437.14Z" style="fill:#d3766a"></path><path d="M438,437.14c2.11.7,63.94.3,66.22-1.17.27-.16.36-5.51.34-12.91-7.87,1.16-47,6.84-54.72,6.25-8.4-.64,4.51-7.87,5.13-8.21-1.84.83-3.76,1.72-5.62,2.61l0,0a86.29,86.29,0,0,0-9.26,4.79C437.76,430.4,435.91,436.45,438,437.14Z" style="fill:#0CDAC3"></path><path d="M463.68,414.67l44.64-.15s-5.12-87.61,3.22-93.71c7.26-5.3,44.21-6.62,62.56-19.87,14.91-10.77,1.71-44.84,1.71-44.84l-40.07.77s-5.41,12.51-6.31,16.3c0,0-43.5,11.89-55.6,27.23C460.25,317.6,463.68,414.67,463.68,414.67Z" style="fill:#455a64"></path><path d="M507.27,406.89a39.48,39.48,0,0,0-4.07-.21l-4-.07c-2.76-.06-5.52,0-8.28,0-5.51,0-11,.06-16.54.19-1.55,0-3.1.05-4.64.12s-3.11.08-4.64.29c-.06,0-.09.11,0,.12a70.58,70.58,0,0,0,8.1.3c2.76,0,5.51.06,8.27.06q8.28,0,16.55-.11c1.55,0,3.09-.08,4.64-.12a45,45,0,0,0,4.64-.27C507.37,407.15,507.44,406.92,507.27,406.89Z" style="fill:#263238"></path><path d="M529.43,273.17A315.82,315.82,0,0,0,496,285.47a97.84,97.84,0,0,0-14.37,7.37,30.2,30.2,0,0,0-10,10.77,46.79,46.79,0,0,0-4.49,14.14c-.94,5.36-1.41,10.8-1.92,16.22-1.14,12.18-1.91,24.41-2.19,36.64s-.09,24.56.5,36.83c.07,1.54.18,3.08.26,4.63a.09.09,0,0,0,.17,0c-.45-12.08-.37-24.22-.06-36.31s.93-24.19,1.94-36.25c.48-5.77,1-11.55,1.75-17.3A60.91,60.91,0,0,1,471,307.79a28.56,28.56,0,0,1,8.53-11.92c4-3.25,8.69-5.53,13.35-7.67,10.69-4.89,35.45-14.16,36.82-14.65C530.41,273.3,530.14,273,529.43,273.17Z" style="fill:#263238"></path><path d="M573.53,263.32c-.4-1.56-.85-3.11-1.37-4.64a.13.13,0,1,0-.25.08A86.4,86.4,0,0,1,575.28,278a39.6,39.6,0,0,1-.34,9.42,16.82,16.82,0,0,1-4,8c-3.94,4.13-9.46,6.81-14.79,8.49-6.09,1.93-12.39,3.13-18.6,4.57-6.46,1.5-27,6.89-28.37,7.47a4.75,4.75,0,0,0-2.54,2.31,20.32,20.32,0,0,0-1.22,4.07c-3,12.49-3.32,24.36-3.38,37.15-.06,13.51.17,27,.78,40.52.07,1.63.14,3.27.2,4.9a.08.08,0,1,0,.16,0c-.19-6.77-.18-13.56-.2-20.34s-.07-13.57-.07-20.35c0-13,0-25,2.44-37.8.32-1.62,1.65-7.79,2.64-8.82s21.81-6.38,28.31-7.89c6.21-1.43,12.49-2.62,18.61-4.4,5.37-1.57,11.22-4.18,15.54-7.85a17.28,17.28,0,0,0,4.32-6.53,21.66,21.66,0,0,0,1.27-8.71A83.33,83.33,0,0,0,573.53,263.32Z" style="fill:#263238"></path><path d="M570.77,272c-3-1-6.59-1.4-9-3.62a8.22,8.22,0,0,1-2.2-3.86,18.64,18.64,0,0,1-.49-2.58,26.33,26.33,0,0,1-.33-2.78.08.08,0,0,0-.16,0c0,1-.21,2-.2,3.06a13.62,13.62,0,0,0,.3,2.7,8.68,8.68,0,0,0,2.18,4.28,9,9,0,0,0,4.34,2.16,29.52,29.52,0,0,0,5.52.95C570.93,272.35,570.92,272.08,570.77,272Z" style="fill:#263238"></path><path d="M519.88,231.93l7,.48a21.5,21.5,0,0,0,2.82-12.77c-.07-1,2.06,4.91.73,13,7.39.51,17.45,1.21,26.24,1.73.33-3.42.78-6.59.78-6.59a38.22,38.22,0,0,0,1.13,6.71l3.51.21a134.69,134.69,0,0,1,1.32-14.59A46.94,46.94,0,0,0,567.1,235c5.58.27,9.26.35,9,.08-8-10.08-1.57-15.37-3.58-24-2.42-10.35-11.15-12.38-10.54-20,.48-6.24,1.78-17.54-6-20.32a15.24,15.24,0,0,0-16.36-3.92C527,171,531,190.49,530,194.37c-1.47,5.54-4.22,7.39-6.5,13.68s.42,10.79.55,15.19S518.48,231.85,519.88,231.93Z" style="fill:#263238"></path><path d="M576.45,233.7a21.65,21.65,0,0,1-2.46-5.59,11.38,11.38,0,0,1,.29-5.86c.47-2,1-4,1.31-6.13a16.41,16.41,0,0,0-.32-6.46,14.34,14.34,0,0,0-3.11-5.69,38.57,38.57,0,0,0-4.61-4.29,23.41,23.41,0,0,1-4.25-4.31,11.26,11.26,0,0,1-2-5.69,10.58,10.58,0,0,0,1.35,6.09,21.25,21.25,0,0,0,4.07,4.82,47.23,47.23,0,0,1,4.27,4.35,13.46,13.46,0,0,1,2.68,5.15,15.65,15.65,0,0,1,.32,5.84c-.2,2-.67,4-1,6a21.81,21.81,0,0,0-.35,3.17,9.39,9.39,0,0,0,.56,3.21A17.57,17.57,0,0,0,576.45,233.7Z" style="fill:#263238"></path><path d="M532.28,173.64a31.71,31.71,0,0,0-2,7.37c-.43,2.52-.74,5.05-1,7.58l-.44,3.77A18.88,18.88,0,0,1,528,196a20.08,20.08,0,0,1-3.7,6.3,30.1,30.1,0,0,0-2.19,3.24,18,18,0,0,0-1.56,3.67,27.16,27.16,0,0,0-.72,3.87,16.32,16.32,0,0,0,0,3.95c.17,1.31.48,2.56.73,3.78a19.32,19.32,0,0,1,.42,3.69,7.8,7.8,0,0,1-3.36,6.31,7.92,7.92,0,0,0,4.15-6.27,18.82,18.82,0,0,0-.15-3.9c-.16-1.29-.43-2.52-.51-3.74a20.46,20.46,0,0,1,.91-7.24,18.23,18.23,0,0,1,1.47-3.32,28.23,28.23,0,0,1,2.11-3c.75-1,1.54-2.05,2.23-3.18a16,16,0,0,0,1.64-3.65,19.72,19.72,0,0,0,.68-3.89c.13-1.27.21-2.55.29-3.81.17-2.54.31-5.07.54-7.59A37.09,37.09,0,0,1,532.28,173.64Z" style="fill:#263238"></path><path d="M535.35,215.87c-18.21-2-32.55-3.42-37.5-8.41-9-9.09-18.14-30.35-18.82-37.58-.29-3.12,20.21-8.82,22.79-6.68s9.79,27,11.18,28.5c3,3.3,14.31,9.14,23.08,12.13C551.56,209.09,546.18,217.06,535.35,215.87Z" style="fill:#d3766a"></path><path d="M479.46,172.58c-1.31-2.93-6.27-17-6.74-21.17s-1-16.29,2.21-17,3.58,2.85,3.58,2.85.61-5.14,3.85-5.54,3.73,5.12,3.73,5.12,1-5.24,4.27-5.41,2.82,5.47,2.82,5.47.7-4.83,3.44-3.84c3.31,1.2,1,10,1.88,14.53.19,1,5.47,20.76,5.47,20.76Z" style="fill:#d3766a"></path><path d="M493.21,136.44c-1.68,6.45-1.29,9.56.71,15.81,0,.12-.14.21-.19.08-2.51-5.94-3.56-9.77-.83-16C493,136,493.29,136.13,493.21,136.44Z" style="fill:#263238"></path><path d="M486.23,136.35c-1.15,6.85-.77,10.23.85,16.93,0,.1-.14.14-.17.05-2.13-6.44-3.09-10.29-1-17C486,136,486.28,136,486.23,136.35Z" style="fill:#263238"></path><path d="M478.61,137.62c-.64,6.72-.38,10.44,2,16.74a.12.12,0,1,1-.22.1c-3.07-6.18-3.44-10.83-2-16.83C478.5,137.22,478.65,137.2,478.61,137.62Z" style="fill:#263238"></path><path d="M505.32,172.33s3.56-7.55,4.39-11.22-1.11-18.45-4.33-18.21c-4.15.3-4.72,9.06-4.43,13.39,0,0-9.62.69-11.38,6.89S505.32,172.33,505.32,172.33Z" style="fill:#d3766a"></path><path d="M504.27,143.35c-3.59,3-2.85,8.67-2.89,12.89a.39.39,0,0,1-.51.38c-4,.56-9.5,2.52-11.43,6.33a.1.1,0,0,1-.18-.07c1.51-4.37,6.75-6.74,11.18-7.07,0-4.33-.52-10,3.8-12.49A0,0,0,0,1,504.27,143.35Z" style="fill:#263238"></path><path d="M526.1,261.86,580.37,267s-11.25-48.11-22.82-60c-5.27-5.39-12.61-3.81-16.8-.18-1,.91-11.6,17.34-12.6,23.2-.88,5.19,3.43,10.82,3.43,10.82Z" style="fill:#0CDAC3"></path><path d="M538.74,239.05a49.4,49.4,0,0,1,7.16,1.24c1.17.31,2.31.67,3.45,1.06.57.19,1.14.36,1.72.54a8.21,8.21,0,0,0,1.84.36c.06,0,.06.08,0,.09a13.23,13.23,0,0,1-1.78-.05,13.66,13.66,0,0,1-1.69-.34c-1.19-.3-2.36-.66-3.54-1-2.38-.64-4.77-1.27-7.19-1.73C538.6,239.23,538.63,239,538.74,239.05Z" style="fill:#263238"></path><path d="M532.75,241.14a52.25,52.25,0,0,1,6-.24c1,0,2,.1,3,.2.47.05,1,.11,1.42.18s1,.21,1.55.27c.06,0,.06.09,0,.09-.49,0-1,0-1.49,0l-1.5-.06-3-.09q-3-.14-6-.17A.08.08,0,0,1,532.75,241.14Z" style="fill:#263238"></path><path d="M551.6,205.71c-.16,1-7.8,8.16-12.22,8.28-.7,0,2-4.29,2-4.29-.34-2-.48-4.1-.48-4.1l-.18-.57-2.42-8,9.09-6.84,1.32-.91s.52,2.23,1.14,5l.09.4c0,.16.08.31.1.45.1.42.2.84.29,1.27s.14.63.2,1,.13.68.2,1A56.8,56.8,0,0,1,551.6,205.71Z" style="fill:#d3766a"></path><path d="M549.83,194.29A16.78,16.78,0,0,1,540.7,205l-2.42-8,9.09-6.84,1.32-.91S549.21,191.51,549.83,194.29Z" style="fill:#263238"></path><path d="M527.09,183.39c-2.46,14.45,5.92,17.56,9,18.08,2.83.48,12.53,1.75,16.46-12.37s-2-19.84-8.42-21.27S529.55,168.94,527.09,183.39Z" style="fill:#d3766a"></path><path d="M551.33,190c-1.54-.41-4.71-5.55-3.28-13.12,0,0-.82,6.89-.52,8s-1.77-2.88-.69-9a25.16,25.16,0,0,1-6.91,1.94c-3,.21-4.79-.18-4.95-.43s4.34-.71,5.75-1.79c0,0-8.37,2-11.94,1.51-.42-.06,1.17-7.28,7.35-9.7s13.66,1.94,15.52,4.66c0,0,1.49,1.08,3.61,5.72S553,190.48,551.33,190Z" style="fill:#263238"></path><path d="M550.91,193.61c-1.17,1.9,6.53-6.21,7-7.7s-.08-9.65-5.27-14.71c-4.35-4.23-11.3-4.49-12.51-4.52a9.58,9.58,0,0,0-4,.74s9.1.3,15.52,4.66C554.75,174.19,555.27,186.5,550.91,193.61Z" style="fill:#0CDAC3"></path><path d="M555.47,171.4s-.21-4.91-3.68-7.4c0,0-1.9,3.76-1.27,5.69.31,1,3.07,2.84,3.68,2.55A7.3,7.3,0,0,0,555.47,171.4Z" style="fill:#0CDAC3"></path><path d="M555.47,171.4a8,8,0,0,1-1.27.83.12.12,0,0,1-.09,0H554l-.09,0a4.41,4.41,0,0,1-1.65-.81,9.3,9.3,0,0,1,1.29-1.37,2.75,2.75,0,0,1,1.66-.39A9.38,9.38,0,0,1,555.47,171.4Z" style="fill:#050400;opacity:0.1"></path><path d="M556.1,172.4s5.6,2.09,7.46,4.59c0,0-2.86,1.93-5.81,1.16-1.32-.35-3.54-4.34-3-4.85A6.12,6.12,0,0,1,556.1,172.4Z" style="fill:#0CDAC3"></path><path d="M557.35,172.92a3.43,3.43,0,0,1-1,1.65,2.91,2.91,0,0,1-1.15.47c-.41-.83-.62-1.54-.42-1.74a5.89,5.89,0,0,1,1.36-.9S556.6,172.59,557.35,172.92Z" style="fill:#050400;opacity:0.1"></path><path d="M556,173.87a1.94,1.94,0,1,1,.55-2.69A1.94,1.94,0,0,1,556,173.87Z" style="fill:#0CDAC3"></path><path d="M551.71,194.43a3,3,0,0,1-.69.12,2.57,2.57,0,0,1-.69,0,2,2,0,0,1-.82-.34,2.59,2.59,0,0,1-.51-.47,2.82,2.82,0,0,1-.49-.87l1.13-3.84s3.56-4.29,5.54-3S554.22,193.73,551.71,194.43Z" style="fill:#d3766a"></path><path d="M554.29,187.82a0,0,0,0,1,0,.06,6.29,6.29,0,0,0-3.55,3.65,1.37,1.37,0,0,1,2.07-.21.05.05,0,0,1-.05.09,1.52,1.52,0,0,0-1.72.39,7.88,7.88,0,0,0-.91,1.29c-.09.15-.36,0-.29-.13l0,0C550,190.75,551.94,187.85,554.29,187.82Z" style="fill:#263238"></path><path d="M551.56,193.8a.68.68,0,1,1-.46-.84A.67.67,0,0,1,551.56,193.8Z" style="fill:#fff"></path><path d="M553,192.89a.49.49,0,0,1-.6.33.49.49,0,0,1-.33-.6.48.48,0,0,1,.93.27Z" style="fill:#fff"></path><path d="M531.35,181.22c.35,0,.67,0,1-.05a1.63,1.63,0,0,0,1-.24.53.53,0,0,0,.09-.63,1.27,1.27,0,0,0-1.19-.49,1.85,1.85,0,0,0-1.27.47A.55.55,0,0,0,531.35,181.22Z" style="fill:#263238"></path><path d="M541.13,182.94c-.33-.1-.62-.24-.94-.36a1.64,1.64,0,0,1-.88-.55.52.52,0,0,1,.1-.62,1.27,1.27,0,0,1,1.29-.1,1.87,1.87,0,0,1,1.06.85A.55.55,0,0,1,541.13,182.94Z" style="fill:#263238"></path><path d="M538.48,186.22s.07.06.06.1c-.21,1-.29,2.11.53,2.59,0,0,0,.07,0,.06C538,188.62,538.13,187.1,538.48,186.22Z" style="fill:#263238"></path><path d="M539.54,185.37c1.58.17,1.12,3.33-.34,3.17S538.21,185.23,539.54,185.37Z" style="fill:#263238"></path><path d="M540.13,185.63c.25.22.48.57.8.65s.72-.19,1-.47c0,0,0,0,0,0-.08.61-.41,1.19-1.07,1.19s-.95-.6-1-1.23C539.91,185.69,540,185.54,540.13,185.63Z" style="fill:#263238"></path><path d="M532.67,185.09s-.09,0-.09.07c-.1,1-.39,2.09-1.32,2.29,0,0,0,.06,0,.06C532.36,187.51,532.73,186,532.67,185.09Z" style="fill:#263238"></path><path d="M531.93,184c-1.55-.34-2.11,2.8-.67,3.11S533.24,184.23,531.93,184Z" style="fill:#263238"></path><path d="M531.24,184c-.28.12-.57.38-.87.34s-.54-.42-.71-.78c0,0,0,0,0,0-.12.6,0,1.26.52,1.48s1-.25,1.23-.82C531.41,184.17,531.35,184,531.24,184Z" style="fill:#263238"></path><path d="M536.64,194.19c-.25.2-.52.5-.88.49a2.58,2.58,0,0,1-1-.35,0,0,0,0,0-.05,0,1.32,1.32,0,0,0,1.2.65,1,1,0,0,0,.85-.79C536.76,194.19,536.68,194.16,536.64,194.19Z" style="fill:#263238"></path><path d="M533.16,189.67s-.48,1.65-.59,2.34a4.49,4.49,0,0,0,3.82-.77c.06-.06,0-.15-.09-.11a4.93,4.93,0,0,1-3.1.45c0-.19.81-2.48.7-2.51a6.16,6.16,0,0,0-1.62.11c.81-3,2.1-5.83,2.86-8.82,0-.11-.13-.17-.17-.08a49.52,49.52,0,0,0-3.48,9.38C531.37,190,532.86,189.74,533.16,189.67Z" style="fill:#263238"></path><path d="M533.17,191.9a4.08,4.08,0,0,0,1.4,1.5,1.88,1.88,0,0,0,1.08.24c.82-.08,1-.8.91-1.44a4.12,4.12,0,0,0-.2-1A5.24,5.24,0,0,1,533.17,191.9Z" style="fill:#263238"></path><path d="M534.57,193.4a1.88,1.88,0,0,0,1.08.24c.82-.08,1-.8.91-1.44A1.87,1.87,0,0,0,534.57,193.4Z" style="fill:#ff98b9"></path><path d="M537.63,255.58s-11,2.51-17.81,3.19c-3.83.38-10.32,1.61-13,3.18-4,2.34-19.28,14.68-16.37,18.45,2.64,3.41,14.41-8.86,14.41-8.86s-13,11.33-9,14.85,15.39-12.11,15.39-12.11-13.08,11.94-8.45,14.93c3.5,2.26,14.67-11.31,14.67-11.31s-11.16,10.34-7.66,12.82c3.86,2.74,15-9.14,15-9.14,9.95,4.81,18.56.83,23.18-1C549,280.13,537.63,255.58,537.63,255.58Z" style="fill:#d3766a"></path><path d="M508.33,268c-5.92,4.7-10.74,10.79-12.26,13.58a6,6,0,0,0-.32.62c2.65-3.08,11.18-12.73,12.63-14.14A0,0,0,1,0,508.33,268Z" style="fill:#263238"></path><path d="M514.29,272.49c-5,2.91-9.24,8.8-11,10.72-.13.15,0,.17.13,0,1.8-1.85,9-9,10.88-10.71C514.36,272.5,514.32,272.47,514.29,272.49Z" style="fill:#263238"></path><path d="M519.06,276.56a26.73,26.73,0,0,0-7.76,8.1c-.11.17,0,.17.17,0,2.69-2.9,4.3-4.74,7.68-8C519.2,276.61,519.13,276.51,519.06,276.56Z" style="fill:#263238"></path><path d="M552,214.71c.74,7.27,8.84,32.9,8.65,34.29s-26.19,6.91-31.47,9.14c-3.6,1.51,5.64,27,12.56,24.67,10.71-3.55,41.16-12.88,44-22.88S565.22,216.18,560.2,210,550.8,202.76,552,214.71Z" style="fill:#d3766a"></path><rect x="507.2" y="297.7" width="84.05" height="32.4" style="fill:#a6a6a6"></rect><path d="M577.52,408.05H507.2V404h70.32a11.56,11.56,0,0,0,11.54-11.54V235.27a15.61,15.61,0,0,1,15.59-15.6h9.48v4.06h-9.48a11.54,11.54,0,0,0-11.53,11.54V392.45A15.62,15.62,0,0,1,577.52,408.05Z" style="fill:#c7c7c7"></path><path d="M509.23,430h-4.06V296a14.05,14.05,0,0,1,14-14h71.88V286H519.21a10,10,0,0,0-10,10Z" style="fill:#c7c7c7"></path><rect x="601.55" y="217.52" width="25.15" height="8.07" style="fill:#263238"></rect><path d="M586.77,452.84C555.45,452.84,530,421,530,382s25.48-70.89,56.8-70.89,56.79,31.8,56.79,70.89S618.09,452.84,586.77,452.84Zm0-136.1c-28.19,0-51.12,29.25-51.12,65.21s22.93,65.2,51.12,65.2,51.11-29.25,51.11-65.2S615,316.74,586.77,316.74Z" style="fill:#263238"></path><path d="M591.25,444.79C563.54,444.79,541,416.6,541,382s22.54-62.85,50.25-62.85S641.5,347.3,641.5,382,619,444.79,591.25,444.79Zm0-121.63c-25.47,0-46.19,26.37-46.19,58.79s20.72,58.78,46.19,58.78,46.19-26.37,46.19-58.78S616.72,323.16,591.25,323.16Z" style="fill:#c7c7c7"></path><ellipse cx="589.33" cy="381.95" rx="8.15" ry="10.27" style="fill:#c7c7c7"></ellipse><ellipse cx="591.94" cy="381.95" rx="8.15" ry="10.27" style="fill:#dbdbdb"></ellipse><ellipse cx="508.34" cy="441.42" rx="10.6" ry="13.37" style="fill:#c7c7c7"></ellipse><ellipse cx="511.74" cy="441.42" rx="10.6" ry="13.37" style="fill:#dbdbdb"></ellipse></g><g id="freepik--character-3--inject-2"><path d="M337,343.11s0,36.93,0,36.95c0,7.07.06,13.26.41,16.46a.11.11,0,0,0,0,.05,4.79,4.79,0,0,0,.51,2.18.1.1,0,0,0,0,.05c2.09,1.43,58.52,3.36,60.51,2.77s.45-6.32-1.68-8.14-23.41-12.22-23.41-12.22l-.36-36.91Z" style="fill:#ffc4c0"></path><path d="M337,372.48s0,7.56,0,7.58c0,7.07.06,13.26.41,16.46a.11.11,0,0,0,0,.05,9.51,9.51,0,0,0,.51,2.18.1.1,0,0,0,0,.05c2.09,1.43,58.52,3.36,60.51,2.77s.45-6.32-1.68-8.14-23.41-12.22-23.41-12.22l.1-7.7Z" style="fill:#fff"></path><path d="M398.51,401.57c-2,.6-58.41-1.34-60.51-2.77-.81-.54-1-8.77-1-18.73v-.32l36.42.84,0,.62s21.27,10.4,23.41,12.22S400.5,401,398.51,401.57Z" style="fill:#a6a6a6"></path><path d="M398,399.36c-9.51-.56-47.89-1.92-57.32-1.75-.08,0-.08.06,0,.06,9.41.76,47.8,1.81,57.32,1.85C398.14,399.52,398.15,399.37,398,399.36Z" style="fill:#263238"></path><path d="M376.47,381.42c-3.71-.82-8.31-.4-11.26,2.16-.12.1,0,.26.15.23a52,52,0,0,1,11.08-1.91A.24.24,0,0,0,376.47,381.42Z" style="fill:#263238"></path><path d="M379.12,383.14c-3.72-.82-8.32-.4-11.27,2.16-.11.1,0,.27.16.23a51.93,51.93,0,0,1,11.08-1.91A.24.24,0,0,0,379.12,383.14Z" style="fill:#263238"></path><path d="M381.77,384.87c-3.72-.83-8.32-.41-11.27,2.15-.11.1,0,.27.15.23a52,52,0,0,1,11.09-1.91A.24.24,0,0,0,381.77,384.87Z" style="fill:#263238"></path><polygon points="335.21 316.56 335.21 316.98 336.03 381.62 375.53 380.83 367.41 183.75 334.06 183.75 335.21 316.56" style="fill:#455a64"></polygon><path d="M373.87,374.24c-6.16-.05-4.39-.12-10.56-.11-3,0-22.85.08-25.66.58-.06,0-.06.12,0,.13,2.83.43,22.65,0,25.67,0,6.17-.13,4.39-.16,10.56-.37C374,374.42,374,374.24,373.87,374.24Z" style="fill:#263238"></path><path d="M342.73,352.32q-.12-8.85-.29-17.72-.33-17.72-.65-35.43c-.44-23.5-.78-47-1.14-70.51-.2-13.26-.19-26.52-.53-39.78,0,0-.06,0-.06,0-.22,11.82-.08,23.64-.06,35.45s.07,23.63.18,35.45c.23,23.5.56,47,1.11,70.51.16,6.63.32,13.26.55,19.89s.38,13.26.84,19.87c0,.1.16.1.16,0C343,364.14,342.81,358.23,342.73,352.32Z" style="fill:#263238"></path><polygon points="334.06 184.15 334.93 284.78 361.68 183.75 334.06 183.75 334.06 184.15" style="fill:#263238"></polygon><path d="M275.51,324.64s-19.05,31-19.07,31c-3.09,6.35-5.69,12-6.76,15,0,0,0,0,0,.05a4.94,4.94,0,0,0-.49,2.19s0,0,0,.06c1.26,2.2,51.27,28.41,53.32,28.73s3.15-5.49,2-8.06-15.8-21.16-15.8-21.16l18.73-31.11Z" style="fill:#ffc4c0"></path><path d="M249.18,372.87a.13.13,0,0,0,0,.06c1.26,2.2,51.27,28.41,53.32,28.74s3.15-5.5,2-8.07-15.8-21.17-15.8-21.17l3.35-5.55c-8.18-4.35-23-12-32.26-16.74l-3.38,5.49c-3.09,6.35-5.69,12-6.76,15,0,0,0,0,0,.05A4.72,4.72,0,0,0,249.18,372.87Z" style="fill:#fff"></path><path d="M302.51,401.66c-2.05-.32-52-26.53-53.32-28.74-.5-.83,2.9-8.33,7.26-17.29l.14-.28L289,371.9l-.3.54s14.66,18.59,15.8,21.17S304.56,402,302.51,401.66Z" style="fill:#a6a6a6"></path><path d="M303,399.43c-8.32-4.63-42.31-22.49-50.89-26.43-.07,0-.09,0,0,.05,8.15,4.77,42.29,22.36,50.85,26.52C303.07,399.66,303.14,399.53,303,399.43Z" style="fill:#263238"></path><path d="M291.39,374c-3-2.36-7.31-4-11.09-2.94-.14,0-.08.25,0,.27a52.21,52.21,0,0,1,10.82,3.08A.24.24,0,0,0,291.39,374Z" style="fill:#263238"></path><path d="M293,376.66c-3-2.36-7.31-4-11.09-2.94-.14,0-.08.24,0,.27a52.38,52.38,0,0,1,10.82,3.08A.24.24,0,0,0,293,376.66Z" style="fill:#263238"></path><path d="M294.67,379.35c-3-2.35-7.32-4-11.09-2.94-.15,0-.09.25,0,.27a53.84,53.84,0,0,1,10.82,3.08A.24.24,0,0,0,294.67,379.35Z" style="fill:#263238"></path><path d="M362.91,183.72v0c-.15.69-2.48,11.51-4.9,20.8-1.75,6.79-3.56,12.76-4.6,13.38s-6.9,3.23-8.82,4c0,0-12.89,64.31-19.69,84.25-6.27,18.4-32.24,67.58-32.24,67.58l-37.68-19s29.43-49.92,32.52-58.88c4.8-13.88,22.76-81.67,22.76-81.67s-.13-21.23,7-30.49Z" style="fill:#455a64"></path><path d="M292.09,366.45c-5.38-3-3.79-2.22-9.21-5.17-2.65-1.44-20.08-10.9-22.78-11.81a.07.07,0,0,0-.06.11c2.27,1.73,19.86,10.89,22.53,12.28,5.48,2.84,3.94,2,9.44,4.75C292.11,366.66,292.2,366.5,292.09,366.45Z" style="fill:#263238"></path><path d="M319.92,208.3c1-.26,2.14-.34,3.19-.51.85-.14,1.7-.29,2.54-.47a11,11,0,0,0,4.47-1.89,10.64,10.64,0,0,0,2.91-4.51c.41-1,.85-1.95,1.28-2.93l.65-1.41a16.15,16.15,0,0,0,.79-1.69c0-.09.17,0,.13,0-.16.39-.23.82-.36,1.22s-.27,1-.42,1.43c-.26.84-.52,1.68-.8,2.52a19.94,19.94,0,0,1-1.79,4.44c-1.56,2.48-4.34,3.47-7.12,3.83-.79.1-1.6.15-2.4.2a18.15,18.15,0,0,1-3,0A.14.14,0,0,1,319.92,208.3Z" style="fill:#263238"></path><path d="M356.45,216.41a75.42,75.42,0,0,0-11.81,5.5.13.13,0,0,0,.11.24c4-1.7,8-3.34,11.91-5.26A.26.26,0,0,0,356.45,216.41Z" style="fill:#263238"></path><path d="M357.65,189.17c0-.14-.26-.17-.26,0a130,130,0,0,1-.66,13.29c-.19,2.05-1.84,13.37-5.39,12.54-.59-.13-.9-.72-1-1.62a14.28,14.28,0,0,1,.47-3.47q.6-3.55.92-7.14a65.23,65.23,0,0,0-.15-13.4.12.12,0,0,0-.23,0,121.65,121.65,0,0,1-1.08,18.49c-.44,2.94-1.93,7.38,1.15,7.83s5.17-7,5.55-9A68.09,68.09,0,0,0,357.65,189.17Z" style="fill:#263238"></path><path d="M351.44,215.29a17.58,17.58,0,0,0-.8,2.35,5.31,5.31,0,0,0-.34,1.93c0,.12.18.13.25.05a6.9,6.9,0,0,0,.83-1.88c.27-.73.55-1.45.8-2.18A.39.39,0,0,0,351.44,215.29Z" style="fill:#263238"></path><path d="M265.14,348.51c5.37-10.1,10.89-20.1,16.44-30.1,2.74-4.92,5.59-9.79,8.21-14.79a91.21,91.21,0,0,0,6-15.42q5-16.18,9.42-32.51t8.36-32.79c.65-2.75,1.37-5.49,1.9-8.26a25.56,25.56,0,0,0,0-8.46,27,27,0,0,1-.07-7.87,52.3,52.3,0,0,1,1.85-7.7c.41-1.32.86-2.64,1.32-4a.12.12,0,0,1,.23.07c-1.62,5.31-3.28,10.69-2.94,16.32.17,2.7.89,5.36.84,8.08a38.73,38.73,0,0,1-1.37,8q-3.84,16.56-8.25,33t-9.33,32.7a128.46,128.46,0,0,1-5.36,15.66c-2.27,5-5.15,9.81-7.86,14.63-5.6,10-11.24,19.89-17,29.74l-2.2,3.74A.07.07,0,0,1,265.14,348.51Z" style="fill:#263238"></path><path d="M349.19,133.77c3.82,18.16,11.47,37.28,13.85,41.14,6.39,10.35,27,21.66,34.71,23.4,2.91.66,13.19-20.26,10.11-21.08-5.7-1.49-28.34-14.56-29.54-16.1-.84-1.07-10.92-17.23-17.83-27.06C351.9,121.85,348.19,129,349.19,133.77Z" style="fill:#ffc4c0"></path><path d="M432.76,203.81a1.27,1.27,0,0,1-1.15.26c.5,2,.41,3.75-1,4.42a2.32,2.32,0,0,1-2.53-.52,1.75,1.75,0,0,1-1.19,2.08c-1.66.5-4.36-2.33-6.73-5.43,1.28,2.38,1.94,4.57.48,5.08-3.9,1.35-8.48-6.17-12.29-10.82a19.83,19.83,0,0,0-4-3.87,4.9,4.9,0,0,0-.75-.39,1.54,1.54,0,0,0-1.78.12c-.79.8.46,3,1.71,4.22,2.38,2.23,3.43,7.14,2.05,8.65-2,2.21-6.81-3.62-9-5.24-2.91-2.16-6.38-7.29-6.68-7.62,0,0,1-2,2.5-4.78,2.89-5.24,7.74-13.06,11.38-14.25a87.75,87.75,0,0,1,21.79,10C428.93,188,436.1,201.37,432.76,203.81Z" style="fill:#ffc4c0"></path><path d="M411.73,193.32a14.84,14.84,0,0,1,5.08,4.57c1.85,2.58,2.31,4.32,3.65,7,0,.07-.07.13-.11.06-.64-1.3-3-5.5-3.73-6.69a14.25,14.25,0,0,0-4.91-4.94S411.71,193.31,411.73,193.32Z" style="fill:#263238"></path><path d="M415.72,189.7a33.21,33.21,0,0,1,5.73,5c2.09,2.31,3.31,5.26,4.53,8.11q1.09,2.56,2.07,5.18c0,.07-.08.13-.11.06q-1.83-4.4-3.91-8.68a22.36,22.36,0,0,0-5.25-7c-1.26-1.11-1.75-1.63-3.09-2.64A0,0,0,0,1,415.72,189.7Z" style="fill:#263238"></path><path d="M419.47,186.44c2.29,1.45,4.36,2.69,6.06,4.86a33.47,33.47,0,0,1,4.2,7.88c.65,1.59,1.25,3.19,1.82,4.81,0,.07-.09.11-.11,0a88.26,88.26,0,0,0-4.75-10.43,14.11,14.11,0,0,0-2.94-3.88,30.88,30.88,0,0,0-4.29-3.26S419.46,186.43,419.47,186.44Z" style="fill:#263238"></path><path d="M420.65,209.7a1.39,1.39,0,0,0,.69-.74,2,2,0,0,0,.07-1,8.64,8.64,0,0,0-.64-2,8.48,8.48,0,0,1-.39-1,.19.19,0,0,1,0-.08s0,0,0-.06.07-.11.11-.09.09,0,.12.07l.05.05.16.22.31.42c.4.58.81,1.14,1.25,1.68a8.42,8.42,0,0,0,3.1,2.64,2,2,0,0,0,1.86-.17,1.29,1.29,0,0,0,.55-1.59l-.27-.72.58.51a2.45,2.45,0,0,0,1.62.62,1.53,1.53,0,0,0,1.4-.82,3.89,3.89,0,0,0,.39-1.77,5.83,5.83,0,0,0-.23-1.82l-.14-.43.42.17a1.15,1.15,0,0,0,1.07-.25,1.52,1.52,0,0,0,.6-1,7.61,7.61,0,0,0,0-2.65,20.14,20.14,0,0,0-1.63-5,31,31,0,0,0-6.09-9.07,29,29,0,0,1,6.43,8.82,19.9,19.9,0,0,1,1.67,5.24,7.92,7.92,0,0,1,0,2.79,2.64,2.64,0,0,1-.24.7,1.73,1.73,0,0,1-.5.57,1.56,1.56,0,0,1-1.5.3l.29-.26a5.55,5.55,0,0,1,.26,2,4.39,4.39,0,0,1-.45,2,1.75,1.75,0,0,1-.74.76,2.26,2.26,0,0,1-1,.26,2.8,2.8,0,0,1-1.89-.74l.31-.21a1.77,1.77,0,0,1,0,1.16,1.63,1.63,0,0,1-.74.89,2.47,2.47,0,0,1-1.07.36,2.55,2.55,0,0,1-1.1-.18,8.72,8.72,0,0,1-3.19-2.8c-.43-.56-.83-1.14-1.23-1.72l-.29-.43c-.07-.15-.29-.32-.07-.28a9.5,9.5,0,0,0,.34,1,8,8,0,0,1,.58,2,2.08,2.08,0,0,1-.1,1A1.42,1.42,0,0,1,420.65,209.7Z" style="fill:#263238"></path><path d="M357,165.72l13.32-19.13a133.4,133.4,0,0,0-13.83-17.8c-7.21-7.44-9.72,1.14-6.18,14.7S357,165.72,357,165.72Z" style="fill:#0CDAC3"></path><path d="M355.66,159.37c2.71-4.25,5.71-8.32,8.79-12.32q1.31-1.7,2.69-3.33a0,0,0,0,1,.06,0c-1.4,2.09-2.88,4.13-4.35,6.17s-3,4.09-4.49,6.1c-.87,1.14-1.73,2.27-2.62,3.39A0,0,0,0,1,355.66,159.37Z" style="fill:#263238"></path><path d="M364.74,154.6,357,165.73s-3.15-8.67-6.69-22.23c-1.92-7.38-2.06-13.28-.63-15.94C353.5,134.37,360.61,147.13,364.74,154.6Z" style="fill:#263238"></path><path d="M311.19,198.72c.14.15,59.14-.31,59.67-.92.74-.86-13.28-64.63-19.42-72.46-1.31-1.68-5.59-2.1-9.22-1.61a16.68,16.68,0,0,0-2.79.6l-.09,0a6.64,6.64,0,0,0-2,1c-10,8.17-18.21,36.46-20.1,45C314.05,184.33,310.7,198.17,311.19,198.72Z" style="fill:#0CDAC3"></path><path d="M351.37,125.26l-14.08.14h0a5.41,5.41,0,0,1,1.25-.72l11.92-.11A3.09,3.09,0,0,1,351.37,125.26Zm1.11,1.81-17.11.16c-.22.23-.43.47-.65.72l18.12-.16Q352.68,127.42,352.48,127.07Zm1.15,2.51-20.33.19-.53.73,21.16-.2C353.82,130.05,353.73,129.81,353.63,129.58Zm1,2.52-23,.23-.44.71,23.72-.23C354.78,132.58,354.69,132.34,354.61,132.1Zm.89,2.52-25.42.24c-.12.25-.26.49-.4.73l26.06-.25Q355.6,135,355.5,134.62Zm.82,2.52-27.58.26-.36.72,28.16-.27C356.47,137.61,356.39,137.38,356.32,137.14Zm.79,2.52-29.6.28c-.11.23-.23.47-.34.72l30.16-.28C357.25,140.14,357.18,139.9,357.11,139.66Zm.75,2.52-31.5.31c-.11.23-.21.47-.32.72l32-.31C358,142.66,357.94,142.42,357.86,142.18Zm.74,2.53-33.32.31-.29.73,33.81-.33C358.74,145.18,358.67,144.94,358.6,144.71Zm.7,2.5-35,.34c-.1.23-.19.48-.28.72l35.52-.33C359.44,147.69,359.38,147.45,359.3,147.21Zm.71,2.54-36.71.34c-.08.25-.17.48-.26.73l37.17-.35C360.13,150.23,360.07,150,360,149.75Zm.68,2.52-38.29.37c-.09.23-.17.47-.25.71l38.73-.37Zm.66,2.52-39.82.38c-.07.24-.16.48-.23.71l40.24-.38Zm.66,2.53-41.31.38c-.08.25-.15.48-.22.73l41.71-.4C362.12,157.79,362.07,157.56,362,157.32Zm.63,2.52-42.72.4c-.08.24-.16.49-.22.72l43.12-.41C362.77,160.31,362.7,160.08,362.64,159.84Zm.63,2.52-44.1.41c-.08.24-.14.48-.21.72l44.49-.42C363.4,162.83,363.33,162.59,363.27,162.36Zm.63,2.53-45.44.42c-.07.25-.14.49-.2.73l45.81-.44C364,165.36,364,165.12,363.9,164.89Zm.61,2.51-46.73.45c0,.25-.12.48-.18.71l47.09-.44Zm.6,2.52-47.94.46c-.05.23-.09.48-.15.71l48.25-.45C365.22,170.4,365.17,170.16,365.11,169.92Zm.59,2.53-49.1.47c-.05.25-.11.48-.16.71l49.43-.47C365.82,172.93,365.77,172.69,365.7,172.45Zm.59,2.52-50.26.48c0,.25-.11.48-.16.71l50.58-.48C366.4,175.44,366.35,175.21,366.29,175Zm.58,2.52-51.41.49a6.53,6.53,0,0,0-.16.71L367,178.2Zm.56,2.53-52.55.5c-.06.23-.11.48-.17.71l52.89-.49C367.55,180.5,367.5,180.26,367.43,180Zm.56,2.51-53.7.52c-.05.25-.11.48-.16.71l54-.5C368.1,183,368.05,182.77,368,182.53Zm.55,2.53-54.82.52-.16.71,55.14-.52C368.65,185.55,368.59,185.31,368.54,185.06Zm.54,2.53-55.93.53c-.06.25-.11.48-.16.72l56.23-.54C369.17,188.06,369.13,187.82,369.08,187.59Zm.51,2.51-57,.55c-.06.25-.11.48-.15.72l57.3-.54C369.7,190.59,369.64,190.35,369.59,190.1Zm.49,2.53-58,.55-.15.72,58.34-.56C370.19,193.12,370.15,192.88,370.08,192.63Zm.47,2.52-59,.56c0,.26-.09.51-.13.73l59.28-.56C370.64,195.65,370.6,195.42,370.55,195.15Zm-59.4,3.1c0,.26,0,.42,0,.47s59.13-.32,59.67-.93a.39.39,0,0,0,0-.11Z" style="fill:#030402;opacity:0.1"></path><path d="M332.85,127.63c-19.61,10.44-35,28.56-36.71,32.56-4.2,9.68-10.63,24.39-12.24,32.25-.59,2.91,22,7.37,22.68,4.29,2.29-9.66,8.93-30.5,9.08-30.86,1-2.49,8.73-12.92,16.72-24.32S341.11,123.23,332.85,127.63Z" style="fill:#ffc4c0"></path><path d="M307.36,193.63s-2.25,10.85-2.91,17c-.37,3.41-1.53,9.2-2.95,11.58-2.12,3.56-13.26,17.1-16.6,14.47-3-2.38,8-12.8,8-12.8s-10.22,11.5-13.33,8,10.93-13.65,10.93-13.65-10.77,11.58-13.4,7.43c-2-3.14,10.22-13,10.22-13s-9.32,9.89-11.51,6.75c-2.42-3.48,8.28-13.3,8.28-13.3-4.21-8.92.12-16.59,1.79-20.69C286.31,184.33,307.36,193.63,307.36,193.63Z" style="fill:#ffc4c0"></path><path d="M296.12,220.78a49,49,0,0,1-12.23,10.84c-.3.17-.58.3-.56.29,2.77-2.35,11.47-9.89,12.74-11.18C296.1,220.7,296.14,220.75,296.12,220.78Z" style="fill:#263238"></path><path d="M292.15,215.42c-2.64,4.43-7.94,8.19-9.66,9.71-.14.12-.16,0,0-.12,1.66-1.59,8.08-8,9.65-9.63A0,0,0,0,1,292.15,215.42Z" style="fill:#263238"></path><path d="M288.55,211.13a24,24,0,0,1-7.3,6.87c-.15.09-.14,0,0-.16,2.61-2.37,4.26-3.8,7.22-6.79A.06.06,0,0,1,288.55,211.13Z" style="fill:#263238"></path><path d="M305.2,147.34l22.87,4.53a132.92,132.92,0,0,0,10.76-19.8c3.93-9.59-4.94-8.45-15.95.23S305.2,147.34,305.2,147.34Z" style="fill:#0CDAC3"></path><path d="M325.47,151.29c.12,0,2.64.36,2.64.36.13-.28,2.51-4.66,3.09-5.6,1.17-1.91,2.46-3.76,3.73-5.62,0-.06.13,0,.09,0-.92,1.64-1.81,3.3-2.74,4.93l.64-.65c.42-.45.82-.92,1.23-1.39,0,0,.1,0,.08.06a8.89,8.89,0,0,1-1.49,1.85,8.34,8.34,0,0,1-.78.67c-.08.13-.15.27-.23.41-.56.94-3.4,5.63-3.49,5.61s-2.53-.46-2.79-.52C325.39,151.44,325.4,151.28,325.47,151.29Z" style="fill:#263238"></path><path d="M309.9,143.8c5,.78,9.91,1.9,14.81,3.12,1.38.34,2.76.72,4.13,1.13,0,0,0,.07,0,.06-2.48-.44-4.94-1-7.4-1.5s-4.94-1.08-7.39-1.68c-1.39-.33-2.77-.67-4.15-1C309.83,143.88,309.84,143.79,309.9,143.8Z" style="fill:#263238"></path><path d="M348.25,133.81c-3.14-.09-7.49-5-9.52-8.92-.13-.27.34-3,.75-6.46.24-2.07.46-4.38.5-6.51l13.25,3.54a33.8,33.8,0,0,0-1.47,8.12,4,4,0,0,0,.07.87s0,.09,0,.15C352.08,126.26,352.67,133.94,348.25,133.81Z" style="fill:#ffc4c0"></path><path d="M353.23,115.45s-.18.56-.41,1.46c-2.92,3.62-7.88,7.93-13.94,6.07.15-1.16.38-2.77.6-4.56.24-2.07.46-4.37.5-6.5Z" style="fill:#263238"></path><path d="M340.28,89.16s-4.79,1.61-6,6.28-.45,9.7-.06,10S340.28,89.16,340.28,89.16Z" style="fill:#263238"></path><path d="M356.65,96.83c1.31,4.76-1.55,18.33-5,21.28-5,4.28-13,4.48-16.55-1.47-3.48-5.77.56-23.39,4.39-26C345.13,86.67,354.71,89.8,356.65,96.83Z" style="fill:#ffc4c0"></path><path d="M342.68,104.5s.06.06.05.09c-.21.91-.31,2,.46,2.47,0,0,0,.06,0,0C342.19,106.75,342.33,105.33,342.68,104.5Z" style="fill:#263238"></path><path d="M343.69,103.71c1.5.19,1,3.17-.38,3S342.44,103.55,343.69,103.71Z" style="fill:#263238"></path><path d="M337.58,103.87s-.08,0-.09.07c-.1.93-.37,2-1.26,2.17,0,0,0,0,0,0C337.28,106.16,337.63,104.77,337.58,103.87Z" style="fill:#263238"></path><path d="M336.89,102.79c-1.47-.33-2,2.64-.65,2.94S338.12,103.06,336.89,102.79Z" style="fill:#263238"></path><path d="M345.09,102.55A10.28,10.28,0,0,1,344,102a2,2,0,0,1-1-.82.62.62,0,0,1,.22-.74,1.56,1.56,0,0,1,1.6.09,2.36,2.36,0,0,1,1.16,1.21A.69.69,0,0,1,345.09,102.55Z" style="fill:#263238"></path><path d="M336,101.12c.42,0,.81-.09,1.23-.14a2,2,0,0,0,1.23-.38.63.63,0,0,0,.07-.77,1.55,1.55,0,0,0-1.51-.52,2.35,2.35,0,0,0-1.54.68A.68.68,0,0,0,336,101.12Z" style="fill:#263238"></path><path d="M342.57,113.33c-.26.18-.53.44-.87.41a2.4,2.4,0,0,1-.95-.39,0,0,0,0,0-.05,0,1.27,1.27,0,0,0,1.09.69,1,1,0,0,0,.86-.7S342.6,113.3,342.57,113.33Z" style="fill:#263238"></path><path d="M342.05,110.41a3.19,3.19,0,0,1-2.32,1,4,4,0,0,1-1.14-.14.73.73,0,0,1-.21-.06l-.2-.06A.23.23,0,0,1,338,111h0a.38.38,0,0,1,0-.1h0v-.08c.1-.72.35-1.79.35-1.79-.28.09-1.7.47-1.62.1a47.51,47.51,0,0,1,2.79-9.29.08.08,0,0,1,.16,0c-.55,2.94-1.61,5.77-2.21,8.72a5.57,5.57,0,0,1,1.56-.2c.09,0-.52,2-.53,2.38,0,0,0,0,0,0a4.39,4.39,0,0,0,3.41-.47C342.06,110.27,342.12,110.34,342.05,110.41Z" style="fill:#263238"></path><path d="M339.07,111a3.79,3.79,0,0,0,1.3,1.41,1.8,1.8,0,0,0,1,.23c.76-.07.89-.75.85-1.35a4.18,4.18,0,0,0-.18-.94A4.87,4.87,0,0,1,339.07,111Z" style="fill:#263238"></path><path d="M340.37,112.44a1.8,1.8,0,0,0,1,.23c.76-.07.89-.75.85-1.35A1.75,1.75,0,0,0,340.37,112.44Z" style="fill:#ff9cbd"></path><path d="M354.92,110.1c-1.65,0-2.07-5-2.05-6.93,0-1.68.94-6.72,1-7.08s-7.87,2.41-11.36.18-5.05-6.4-4.64-8S344.17,84,348.34,85s8.2,7.82,8.2,7.82a19.51,19.51,0,0,1-1.11-3,4.7,4.7,0,0,1,2.4,3.7S358,91,358.21,91s1.68,2.65.76,4.05c0,0,1.79,2.76,1.35,5.09S356.86,110.08,354.92,110.1Z" style="fill:#263238"></path><path d="M340,94.68A13.11,13.11,0,0,0,343.22,97a9,9,0,0,0,4.31.54,13.6,13.6,0,0,0,4.24-1.09c1.18-.51,2.3-1.21,3.53-1.61.3-.1.49.35.27.54a14.29,14.29,0,0,1-8.42,3.08A8.22,8.22,0,0,1,340,94.71S340,94.67,340,94.68Z" style="fill:#263238"></path><path d="M352.9,108s3.29-4.26,5.23-3.06-.67,7.47-3.05,8.23a2.39,2.39,0,0,1-3.14-1.43Z" style="fill:#ffc4c0"></path><path d="M357.34,106.72a0,0,0,0,1,0,.06,6,6,0,0,0-3.3,3.63,1.32,1.32,0,0,1,2-.27s0,.1-.05.09a1.47,1.47,0,0,0-1.64.43,7.11,7.11,0,0,0-.83,1.27c-.09.15-.35.06-.29-.11l0,0C353.31,109.68,355.08,106.82,357.34,106.72Z" style="fill:#263238"></path></g><g id="freepik--character-2--inject-2"><path d="M245.75,105.83c-3.45-4.2-9.34-5.22-15.06-4s-12.53,4.15-13.14,14c-.5,8,1.92,15.88,1.9,24.84s-9.72,30.79,6,41.48c14.09,9.61,42.59.88,43.42-18.82.66-15.63-17.24-30.11-19.14-36.3S249.54,110.43,245.75,105.83Z" style="fill:#263238"></path><path d="M248.34,114.65a35.89,35.89,0,0,0,2.55,13.22,12.59,12.59,0,0,0,1.78,3c.7.91,1.44,1.76,2.17,2.61,1.49,1.67,3,3.34,4.34,5.07a46.56,46.56,0,0,1,6.92,11.25,36.57,36.57,0,0,1,2.76,12.95,30.93,30.93,0,0,0-.21-6.73,33.86,33.86,0,0,0-1.67-6.57,41.51,41.51,0,0,0-6.83-11.68c-1.42-1.75-2.93-3.42-4.42-5.08a23.26,23.26,0,0,1-4-5.2,29.54,29.54,0,0,1-2.17-6.24A55.6,55.6,0,0,1,248.34,114.65Z" style="fill:#263238"></path><path d="M218,122.59c.11,4.56.4,9.12.29,13.64a56,56,0,0,1-.53,6.74c-.32,2.19-.95,4.39-1.47,6.61s-1,4.48-1.34,6.75a40.85,40.85,0,0,0-.41,6.91,25.5,25.5,0,0,0,1.25,6.81,17.23,17.23,0,0,0,3.68,5.78,18.7,18.7,0,0,1-3.1-6,24.81,24.81,0,0,1-.87-6.64,59.62,59.62,0,0,1,2-13.35c.49-2.22,1.12-4.41,1.42-6.74a45.48,45.48,0,0,0,.32-6.89A117.33,117.33,0,0,0,218,122.59Z" style="fill:#263238"></path><path d="M246,141.09c9,10.55,18.93,25.7,28.63,38.53,4.23,5.61,15.75,15.82,17.6,18.13,3.2,4-20.39,17.22-21.66,13.94-.79-2.06-7.72-10.25-12.79-20.06-6.52-12.61-15.23-33.21-17.86-45.8C237.59,134.58,242.53,137,246,141.09Z" style="fill:#dd6a57"></path><path d="M289.56,195.21c12.94,11,12.13,26.2,11.88,28.85-.2,2.26-.33,3.42-.33,3.42-.28,4.05-2.19,5.52-2.19,5.52s1.05,5.79-1.73,6.91c-3.12,1.26-4-6.71-6.81-10.25-6.46-8.11-17.91-17.83-20-20Z" style="fill:#dd6a57"></path><path d="M289.58,216.4a67.18,67.18,0,0,1,5.25,7.42,67.14,67.14,0,0,1,4,9.13.08.08,0,0,0,.15,0,35.29,35.29,0,0,0-9.19-16.68C289.68,216.13,289.49,216.28,289.58,216.4Z" style="fill:#263238"></path><path d="M293.91,211.79c1.67,2.46,4.58,6.8,7.11,15.71,0,0,.06,0,.05,0a31.73,31.73,0,0,0-6.91-15.87C294,211.49,293.8,211.63,293.91,211.79Z" style="fill:#263238"></path><path d="M282,220.38c-1.26-.72-1.65-.07-.69,2.33s6.83,11,3.63,12.84S273.65,225,272.34,220.89a68.81,68.81,0,0,1-2-11.21C272.43,211.76,277.89,216.34,282,220.38Z" style="fill:#dd6a57"></path><path d="M263.27,160.73l-17.77,7.6s-5.35-14-7-22.93,1.15-12.55,10.1-2.76A192.55,192.55,0,0,1,263.27,160.73Z" style="fill:#455a64"></path><path d="M247.71,142.88a1.22,1.22,0,0,0,0,2.43,1.22,1.22,0,1,0,0-2.43Zm-5.3-5.52a1.19,1.19,0,0,0-.49,1,1.21,1.21,0,0,0,2.4.27A13.5,13.5,0,0,0,242.41,137.36Zm6.77,28a1.21,1.21,0,0,0-1.21,1.21,1.1,1.1,0,0,0,.18.62l2.2-.94A1.21,1.21,0,0,0,249.18,165.37Zm4.65-5a1.21,1.21,0,1,0,1.21,1.21A1.21,1.21,0,0,0,253.83,160.37Zm-13-5.84q.28.94.57,1.86a1.14,1.14,0,0,0,.25-.72A1.2,1.2,0,0,0,240.81,154.53Zm4.37-5.66a1.22,1.22,0,1,0,1.21,1.21A1.22,1.22,0,0,0,245.18,148.87Zm8,0a1.22,1.22,0,0,0,0,2.43,1.22,1.22,0,1,0,0-2.43Zm-8.39,11.5a1.21,1.21,0,1,0,1.21,1.21A1.22,1.22,0,0,0,244.77,160.37Zm4.16-5.91a1.22,1.22,0,1,0,1.21,1.21A1.21,1.21,0,0,0,248.93,154.46Zm8.5,0a1.22,1.22,0,1,0,1.22,1.21A1.21,1.21,0,0,0,257.43,154.46Zm-17.52-11.58a1.22,1.22,0,1,0,1.21,1.21A1.22,1.22,0,0,0,239.91,142.88Z" style="fill:#fff"></path><path d="M245.21,164.87c2.39-1.3,4.82-2.54,7.27-3.71,1.21-.58,2.41-1.18,3.63-1.74s2.56-1.06,3.82-1.64a.08.08,0,0,1,.07.14c-1.19.6-2.35,1.28-3.54,1.89s-2.49,1.21-3.73,1.8Q249,163.4,245.27,165C245.2,165,245.14,164.91,245.21,164.87Z" style="fill:#263238"></path><path d="M260.4,162l-14.9,6.37s-5.35-14-7-22.93c-.82-4.34-.57-7.42.93-8.32Z" style="fill:#263238"></path><path d="M321.44,402.87c-1.95.59-57.1-1.09-59.16-2.49-.79-.51-3.64-51.87-3.64-51.87l35.74.91,2.46,33.64s20.82,10.09,22.92,11.87S323.38,402.29,321.44,402.87Z" style="fill:#dd6a57"></path><path d="M262.28,400.39c2.05,1.4,57.21,3.08,59.16,2.48s.41-6.18-1.68-7.95c-1.18-1-8.29-4.62-14.28-7.6,4,2.11,12.33,9.39-12.8,5.19-17-2.84-27.23-5.27-31.86-6.56C260.87,393.86,261.6,399.94,262.28,400.39Z" style="fill:#263238"></path><path d="M295.68,369.9l-36.57,1.8s-7-4.58-8.62-12.87c-4.7-24.26-3.52-69.5-3.76-70.71C246.34,286.05,219.11,186,219.11,186h34.94s29.09,89,31.12,97.66c2.75,11.75,10.95,49.54,14.65,71.42A17.4,17.4,0,0,1,295.68,369.9Z" style="fill:#0CDAC3"></path><path d="M246.72,288.06c-.8-3.57-27.61-102.06-27.61-102.06H236.3Z" style="fill:#263238"></path><path d="M224,408.88c-2,.08-55-15.49-56.61-17.36-.63-.7,1.19-8.55,3.66-18,0-.1,0-.19.08-.29.5-1.94,11.28-33.87,11.28-33.87l33.84,9.87-10.86,33.66-.18.58s17.6,15,19.18,17.27S226.07,408.81,224,408.88Z" style="fill:#dd6a57"></path><path d="M169.88,378.24c-1.82,7.22-3,12.69-2.45,13.28C169.07,393.39,222,409,224,408.88s2-5.86.39-8.11c-1-1.37-7.87-7.48-13.13-12,3.5,3.3,8.32,10.94-14.15,1.79C183.29,384.86,174.68,380.72,169.88,378.24Z" style="fill:#263238"></path><path d="M252.28,186s-.9,28.46-6.23,34.34c0,0-8.86,57-10.8,72.91s-9,49.05-16.14,67c-3.07,7.74-10.25,12-10.25,12l-34.75-8.09s-5.92-13.72-2.75-21c8.74-20,27.33-52.86,27.46-53.94,1.08-8.35,6.81-65.66,6.33-67.1C200.21,207.46,211,186,211,186Z" style="fill:#0CDAC3"></path><path d="M245.37,220.81c-.26,1-.4,2.13-.58,3.18-.22,1.35-.44,2.7-.64,4-.41,2.72-.76,5.44-1.13,8.16-.74,5.44-1.52,10.88-2.25,16.32-.4,3-.79,6.07-1.06,9.11,0,.13.2.15.23,0,1.07-5.38,1.8-10.81,2.6-16.23s1.68-10.84,2.42-16.28c.22-1.55.42-3.11.61-4.67a38.42,38.42,0,0,0,.39-3.87Z" style="fill:#263238"></path><path d="M249,218.59a75.85,75.85,0,0,0-11.81,5.5c-.15.09,0,.32.11.25,4-1.71,8-3.35,11.91-5.27A.26.26,0,0,0,249,218.59Z" style="fill:#263238"></path><path d="M250.18,191.35c0-.14-.25-.17-.25,0a132.67,132.67,0,0,1-.67,13.29c-.19,2-1.83,13.37-5.39,12.55-.59-.14-.89-.73-1-1.62a14.86,14.86,0,0,1,.47-3.48c.4-2.37.71-4.74.92-7.14a64.43,64.43,0,0,0-.15-13.39.12.12,0,0,0-.23,0A121.58,121.58,0,0,1,242.81,210c-.44,2.94-1.93,7.38,1.15,7.83s5.17-7,5.55-9A67.7,67.7,0,0,0,250.18,191.35Z" style="fill:#263238"></path><path d="M244,217.47a19.12,19.12,0,0,0-.8,2.35,5.33,5.33,0,0,0-.33,1.93c0,.12.18.13.24.05a6.61,6.61,0,0,0,.83-1.88c.27-.72.55-1.44.8-2.18A.39.39,0,0,0,244,217.47Z" style="fill:#263238"></path><path d="M253.6,176.11l1.65,10.41-45.32-.1s1.3-33.44,14-46.4c6.34-6.49,13.54-5.78,18-1,1.12,1.22,14.45,17.62,15.7,24.67C258.7,169.93,253.6,176.11,253.6,176.11Z" style="fill:#455a64"></path><path d="M216.45,183.36a1.22,1.22,0,1,1-2.43,0,1.22,1.22,0,0,1,2.43,0Zm8.58-.51a1.21,1.21,0,1,0,1.21,1.21A1.22,1.22,0,0,0,225,182.85Zm-9.8-12.06a1.22,1.22,0,1,0,1.22,1.22A1.22,1.22,0,0,0,215.23,170.79Zm1.24-12.57a1.21,1.21,0,1,0,1.21,1.21A1.22,1.22,0,0,0,216.47,158.22Zm18.35,25.24a1.22,1.22,0,1,0,1.22,1.22A1.22,1.22,0,0,0,234.82,183.46Zm-14.16-6a1.22,1.22,0,1,0,1.21,1.21A1.22,1.22,0,0,0,220.66,177.48Zm4.71-6.21a1.22,1.22,0,1,0,1.21,1.22A1.21,1.21,0,0,0,225.37,171.27Zm-5.48-6.5A1.22,1.22,0,1,0,221.1,166,1.21,1.21,0,0,0,219.89,164.77Zm5.77-5.62a1.22,1.22,0,1,0,1.22,1.21A1.21,1.21,0,0,0,225.66,159.15Zm.92-10.84a1.22,1.22,0,1,0,1.22,1.22A1.22,1.22,0,0,0,226.58,148.31Zm-3.09-6.21a1.22,1.22,0,1,0,1.22,1.22A1.22,1.22,0,0,0,223.49,142.1Zm6.59,35.38a1.22,1.22,0,1,0,1.21,1.21A1.22,1.22,0,0,0,230.08,177.48Zm6-5.47a1.22,1.22,0,1,0,1.21,1.21A1.22,1.22,0,0,0,236,172Zm-5.38-6a1.22,1.22,0,1,0,1.22,1.22A1.22,1.22,0,0,0,230.66,166Zm5-5.62a1.22,1.22,0,1,0,0,2.43,1.22,1.22,0,0,0,0-2.43Zm-14.31-7.74a1.22,1.22,0,1,0,1.21,1.22A1.22,1.22,0,0,0,221.3,152.62Zm9.77,1.22a1.22,1.22,0,1,0,1.21,1.21A1.22,1.22,0,0,0,231.07,153.84Zm4.83-5a1.22,1.22,0,1,0,1.21,1.21A1.21,1.21,0,0,0,235.9,148.87Zm-4.43-6a1.22,1.22,0,0,0,0,2.43,1.22,1.22,0,1,0,0-2.43Zm-3.33-5.76a1.22,1.22,0,1,0,1.22,1.22A1.22,1.22,0,0,0,228.14,137.12Zm7.57-.66a1.22,1.22,0,1,0,1.22,1.21A1.21,1.21,0,0,0,235.71,136.46ZM245.18,172a1.22,1.22,0,1,0,1.21,1.21A1.22,1.22,0,0,0,245.18,172Zm4-6.64a1.22,1.22,0,0,0,0,2.43,1.22,1.22,0,1,0,0-2.43Zm4.65-5a1.22,1.22,0,1,0,1.21,1.22A1.22,1.22,0,0,0,253.83,160.36Zm-9.06,22.49a1.21,1.21,0,1,0,1.21,1.21A1.22,1.22,0,0,0,244.77,182.85Zm-4.36-4.76a1.22,1.22,0,1,0,1.22,1.21A1.21,1.21,0,0,0,240.41,178.09Zm13.77-7.76a1.22,1.22,0,1,0,1.22,1.22A1.22,1.22,0,0,0,254.18,170.33ZM240.55,166a1.22,1.22,0,1,0,1.21,1.22A1.22,1.22,0,0,0,240.55,166Zm-.14-11.52a1.22,1.22,0,0,0,0,2.43,1.22,1.22,0,1,0,0-2.43Zm4.77-5.59a1.22,1.22,0,1,0,1.21,1.21A1.22,1.22,0,0,0,245.18,148.87Zm-.41,11.49a1.22,1.22,0,1,0,0,2.43,1.22,1.22,0,0,0,0-2.43Zm4.16-5.9a1.22,1.22,0,1,0,1.21,1.21A1.21,1.21,0,0,0,248.93,154.46Zm-9-11.58a1.22,1.22,0,1,0,1.21,1.21A1.22,1.22,0,0,0,239.91,142.88Zm9.27,34.6a1.22,1.22,0,0,0,0,2.43,1.22,1.22,0,1,0,0-2.43Z" style="fill:#fff"></path><path d="M246,172.79a49.63,49.63,0,0,0-7.16,1.24c-1.16.31-2.31.67-3.45,1.06-.57.19-1.14.37-1.72.54a7.69,7.69,0,0,1-1.84.36c-.06,0,0,.09,0,.09a13.23,13.23,0,0,0,1.78-.05,13.64,13.64,0,0,0,1.69-.33c1.19-.31,2.36-.67,3.54-1,2.39-.63,4.77-1.27,7.19-1.73A.1.1,0,0,0,246,172.79Z" style="fill:#263238"></path><path d="M252,174.88a52.08,52.08,0,0,0-6-.24c-1,0-2,.1-3,.21l-1.43.17c-.52.07-1,.21-1.55.28-.06,0-.06.09,0,.08.49,0,1,0,1.49,0l1.5-.06,3-.09q3-.14,6-.17C252.09,175,252.08,174.89,252,174.88Z" style="fill:#263238"></path><rect x="252.42" y="214.35" width="3.37" height="195.73" transform="translate(-114.15 149.62) rotate(-27.04)" style="fill:#c7c7c7"></rect><rect x="208.73" y="213.53" width="7.13" height="33.51" transform="translate(-81.48 121.67) rotate(-27.04)" style="fill:#37474f"></rect><polygon points="304.87 403.65 298.36 406.98 295.87 399.61 300.37 397.32 304.87 403.65" style="fill:#37474f"></polygon><path d="M219.31,143.56c-19.76,20.8-27.21,34.91-28.79,43.28-.85,4.53,1.22,23.65,3.52,31.1,1,3.13,24.46,12.9,24,9.42-.88-7.16-4.59-35.78-5.17-38.24-.21-.89,10-29.43,15.07-39.24C235.65,135,227.66,134.77,219.31,143.56Z" style="fill:#dd6a57"></path><path d="M201.79,254.18a3.9,3.9,0,0,1-2.93-3.36,5.8,5.8,0,0,1-3.94,0c-2.21-.92-1.74-4.78-1.74-4.78a7.14,7.14,0,0,1-4.16-.66c-2-1.09-2.1-5-2.1-5a6.26,6.26,0,0,1-3.29-2.89c-1.77-3.62,1.49-8.83,3.52-12.17s10.94-10.9,12.49-12.51l17.54,7.44s4,19.6-3.83,26.58C210.43,249.39,204.77,254.82,201.79,254.18Z" style="fill:#dd6a57"></path><path d="M199.3,250.87c3.41-2.57,5.87-6,8.53-9.32.06-.07-.06-.16-.12-.09-2.6,3.31-5.83,6.07-8.56,9.27C199.08,250.82,199.2,250.94,199.3,250.87Z" style="fill:#263238"></path><path d="M193.51,246.14a11.53,11.53,0,0,0,1.87-2.24c.6-.83,1.19-1.68,1.77-2.53q1.74-2.58,3.35-5.23c.05-.08-.06-.17-.11-.09q-1.74,2.56-3.57,5c-.62.83-1.24,1.65-1.87,2.47a13.66,13.66,0,0,0-1.67,2.39A.15.15,0,0,0,193.51,246.14Z" style="fill:#263238"></path><path d="M187,240.25a7.63,7.63,0,0,0,1.58-2.1c.51-.79,1-1.58,1.55-2.36,1-1.57,2.08-3.14,3.18-4.68.05-.07-.06-.17-.12-.09-1.12,1.55-2.26,3.09-3.37,4.65L188.17,238a7.31,7.31,0,0,0-1.28,2.23S186.94,240.28,187,240.25Z" style="fill:#263238"></path><path d="M221,169.79l-15.35-11.72s9.56-11.56,16.5-17.4,11.5-5.18,7.37,7.44A189.55,189.55,0,0,1,221,169.79Z" style="fill:#455a64"></path><path d="M208.56,156.11q3.45,2.16,6.8,4.5c1.1.77,2.21,1.52,3.3,2.31s2.18,1.7,3.31,2.52c.08.05,0,.18-.08.13-1.12-.75-2.28-1.42-3.39-2.16s-2.28-1.57-3.41-2.36c-2.24-1.55-4.44-3.17-6.6-4.83C208.43,156.17,208.49,156.07,208.56,156.11Z" style="fill:#263238"></path><path d="M221,169.88c1-2.69,2.3-5.22,3.43-7.84s2.25-5.28,3.27-7.95a.05.05,0,0,1,.1,0c-.44,1.36-.85,2.73-1.33,4.07q-.37,1-.78,2l.47-.7c.49-.69,1-1.35,1.59-2,0,0,.08,0,.06.05a25.34,25.34,0,0,1-1.38,2.15c-.37.49-.75,1-1.13,1.46l-.48,1.14a46.1,46.1,0,0,1-3.68,7.66C221.13,170,221,170,221,169.88Z" style="fill:#263238"></path><path d="M228.41,137.15a1.24,1.24,0,0,0-.27,0,1.23,1.23,0,0,0-1.21,1.22,1.22,1.22,0,0,0,2.43,0A1.22,1.22,0,0,0,228.41,137.15Zm1.85,6.94a1.18,1.18,0,0,0,.25.74c.16-.64.28-1.24.37-1.79A1.2,1.2,0,0,0,230.26,144.09Zm-18,8.15a1.22,1.22,0,1,0,1.22,1.22A1.22,1.22,0,0,0,212.26,152.24Zm9,.38a1.22,1.22,0,1,0,1.21,1.22A1.22,1.22,0,0,0,221.3,152.62Zm2.19-10.52a1.22,1.22,0,1,0,1.22,1.22A1.22,1.22,0,0,0,223.49,142.1Zm-5.81,4.55a1.22,1.22,0,1,0,1.22,1.22A1.22,1.22,0,0,0,217.68,146.65Zm8.9,1.66a1.22,1.22,0,1,0,1.22,1.22A1.22,1.22,0,0,0,226.58,148.31Zm-2.13,12.06a1.24,1.24,0,0,0,.33.84c.26-.65.53-1.33.81-2.05A1.19,1.19,0,0,0,224.45,160.37Zm-4.56,4.4A1.22,1.22,0,1,0,221.1,166,1.21,1.21,0,0,0,219.89,164.77Zm-11.42-7.28a1.21,1.21,0,0,0-.94,2,1.28,1.28,0,0,0,.45.34h0a1.19,1.19,0,0,0,.47.09,1.22,1.22,0,0,0,0-2.43Zm8,.73a1.21,1.21,0,1,0,1.21,1.21A1.22,1.22,0,0,0,216.47,158.22Z" style="fill:#fff"></path><path d="M231.42,139.22c.38.85,5.71,5.82,9.74,4.86,1.31-.31-.08-7.55-.08-7.55V136l.26-7.81-9.86-4-1.41-.51s.07,2.14.18,4.81c0,.12,0,.25,0,.38s0,.29,0,.43c0,.4,0,.81.05,1.21s0,.61.06.93,0,.64.06,1A51.72,51.72,0,0,0,231.42,139.22Z" style="fill:#dd6a57"></path><path d="M230.26,128.49A15.69,15.69,0,0,0,241.09,136l.26-7.81-9.86-4-1.41-.51S230.15,125.82,230.26,128.49Z" style="fill:#263238"></path><path d="M250.56,116.16c1.88,13.58-6,16.24-9,16.64-2.66.36-11.75,1.26-15-12.05s2.45-18.47,8.49-19.62S248.69,102.59,250.56,116.16Z" style="fill:#dd6a57"></path><path d="M247.54,113.35a7.43,7.43,0,0,1-.94-.07,1.45,1.45,0,0,1-.95-.25.48.48,0,0,1-.08-.59,1.21,1.21,0,0,1,1.14-.44,1.8,1.8,0,0,1,1.19.47A.52.52,0,0,1,247.54,113.35Z" style="fill:#263238"></path><path d="M238.61,114.69c.31-.09.59-.21.89-.33a1.52,1.52,0,0,0,.85-.5.5.5,0,0,0-.09-.59,1.21,1.21,0,0,0-1.22-.11,1.78,1.78,0,0,0-1,.77A.52.52,0,0,0,238.61,114.69Z" style="fill:#263238"></path><path d="M240.89,117.86s-.06,0-.06.09c.18.92.23,2-.55,2.44,0,0,0,.06,0,0C241.29,120.13,241.21,118.7,240.89,117.86Z" style="fill:#263238"></path><path d="M239.91,117c-1.5.13-1.13,3.12.26,3S241.17,116.92,239.91,117Z" style="fill:#263238"></path><path d="M239.35,117.26c-.24.2-.46.53-.77.6s-.68-.2-1-.47c0,0,0,0,0,0,.06.58.35,1.14,1,1.15s.91-.55,1-1.14C239.55,117.33,239.44,117.18,239.35,117.26Z" style="fill:#263238"></path><path d="M246.22,117s.08,0,.08.08c.08.93.33,2,1.2,2.19,0,0,0,0,0,0C246.46,119.28,246.15,117.88,246.22,117Z" style="fill:#263238"></path><path d="M246.94,115.92c1.48-.28,1.94,2.69.57,3S245.7,116.16,246.94,115.92Z" style="fill:#263238"></path><path d="M247.59,116c.26.12.54.37.82.35s.52-.39.68-.73c0,0,0,0,0,0,.11.57,0,1.19-.52,1.38s-.92-.25-1.15-.8C247.43,116.14,247.49,116,247.59,116Z" style="fill:#263238"></path><path d="M242.11,125.24c.24.21.49.49.83.49a2.45,2.45,0,0,0,1-.31s.06,0,.05,0a1.27,1.27,0,0,1-1.15.6,1,1,0,0,1-.79-.77C242,125.24,242.08,125.22,242.11,125.24Z" style="fill:#263238"></path><path d="M245.53,121.38a20,20,0,0,1,.46,2c0,.06-.14.11-.36.15h0a3.13,3.13,0,0,1-3.16-.76c-.05-.05,0-.13.09-.1a4.65,4.65,0,0,0,2.93.43c0-.19-.72-2.3-.62-2.32a6,6,0,0,1,1.53.13c-.71-2.84-1.86-5.55-2.52-8.4a.09.09,0,0,1,.16-.06,46.55,46.55,0,0,1,3.1,8.93C247.21,121.77,245.81,121.46,245.53,121.38Z" style="fill:#263238"></path><path d="M226.64,120.8c3.29-.24,2.84-5.43,2.84-5.43s3.71-.65,3.48-6.71a9.16,9.16,0,0,0,7.23,3.82c1.09.07-2.74-2.41-2.74-2.41s4.63,3.54,12.5,1.4c.56-.15-1.34-8.49-7.85-10.84s-12-.26-15.58,4a7.67,7.67,0,0,0-3.54,6.27C222.82,115.31,225.35,120.9,226.64,120.8Z" style="fill:#263238"></path><path d="M243.59,117.59a4.48,4.48,0,1,0-4.07,5.79,4.61,4.61,0,0,0,1.1-.19,4.48,4.48,0,0,0,3.17-4.18A4.36,4.36,0,0,0,243.59,117.59Zm-3.15,5a3.88,3.88,0,0,1-2.27-7.43,3.57,3.57,0,0,1,1-.16,3.88,3.88,0,0,1,1.31,7.59Z" style="fill:#0CDAC3"></path><path d="M240.44,122.61a3.88,3.88,0,0,1-2.27-7.43,3.57,3.57,0,0,1,1-.16,3.88,3.88,0,0,1,1.31,7.59Z" style="fill:#263238"></path><path d="M252.52,116.63a5.36,5.36,0,0,0-1.44-2.93,2.8,2.8,0,0,0-4.73.79,5.39,5.39,0,0,0-.42,3.24c.39,2.32,2,4,3.73,3.91l.3,0C251.78,121.31,252.93,119.08,252.52,116.63ZM249.86,121c-1.5.24-3-1.27-3.34-3.38a4.86,4.86,0,0,1,.36-2.89,2.42,2.42,0,0,1,1.71-1.4l.22,0a2.48,2.48,0,0,1,1.84.8,4.71,4.71,0,0,1,1.28,2.61C252.28,118.85,251.35,120.78,249.86,121Z" style="fill:#0CDAC3"></path><path d="M249.86,121c-1.5.24-3-1.27-3.34-3.38a4.86,4.86,0,0,1,.36-2.89,2.42,2.42,0,0,1,1.71-1.4l.22,0a2.48,2.48,0,0,1,1.84.8,4.71,4.71,0,0,1,1.28,2.61C252.28,118.85,251.35,120.78,249.86,121Z" style="fill:#263238"></path><path d="M243.53,118.12l-.45-.39c.58-.67,2-1.69,3.27-.71l-.36.48C244.85,116.62,243.59,118.06,243.53,118.12Z" style="fill:#0CDAC3"></path><path d="M224,122.54l-.57-.19c.08-.27.87-2.61,2.16-3s9.25-1,9.6-1l0,.59c-2.31.17-8.52.66-9.45,1S224.22,121.89,224,122.54Z" style="fill:#0CDAC3"></path><g style="opacity:0.1"><path d="M240.64,115.26l-5,5a1.46,1.46,0,0,1-.07-.19,3.71,3.71,0,0,1-.16-1.43L239,115h.12A3.86,3.86,0,0,1,240.64,115.26Z" style="fill:#fff"></path><path d="M242.53,116.74l-5.39,5.38a4,4,0,0,1-.51-.41l5.49-5.49A3.48,3.48,0,0,1,242.53,116.74Z" style="fill:#fff"></path><path d="M243,117.63,238,122.57l-.13,0,5-5A.35.35,0,0,1,243,117.63Z" style="fill:#fff"></path></g><g style="opacity:0.1"><path d="M251.89,116.54,248,120.43a3.83,3.83,0,0,1-.84-1l4.25-4.25A5.05,5.05,0,0,1,251.89,116.54Z" style="fill:#fff"></path><path d="M251.81,119a2.63,2.63,0,0,1-1.95,2h-.1Z" style="fill:#fff"></path><path d="M246.52,117.66v0s0-.09,0-.14l3.72-3.72.11.07Z" style="fill:#fff"></path></g><path d="M229.31,121.29s-3-4.27-4.94-3.19.32,7.26,2.61,8.1a2.31,2.31,0,0,0,3.1-1.25Z" style="fill:#dd6a57"></path><path d="M225.06,119.85s0,.05,0,.07a5.87,5.87,0,0,1,3,3.65,1.28,1.28,0,0,0-1.92-.34s0,.09,0,.08a1.42,1.42,0,0,1,1.57.5,7,7,0,0,1,.76,1.26c.07.15.33.07.28-.1l0,0C228.84,122.9,227.25,120.05,225.06,119.85Z" style="fill:#263238"></path></g><g id="freepik--character-1--inject-2"><path d="M149.92,349.74l-36.41-.51s1.76-22.79,1.45-24.46c-.38-2.15-26.21-103.43-26.21-103.43H123.5s27.32,94.4,28.38,103.49C153.1,335.33,149.92,349.74,149.92,349.74Z" style="fill:#eb9481"></path><path d="M110.2,312.21s40.39-4.4,41-4.89-27.74-85.86-27.74-85.86H88.75Z" style="fill:#455a64"></path><path d="M112.64,304.53c10.81-1.94,21.7-3.47,32.64-4.51a.1.1,0,0,1,0,.2c-10.8,2-21.71,3.48-32.64,4.55A.12.12,0,0,1,112.64,304.53Z" style="fill:#263238"></path><path d="M122.37,221.34l0,.12-15.72,75.63L88.92,222.18c-.07-.34-.12-.59-.14-.72l0-.12Z" style="fill:#263238"></path><path d="M172,442.71c-2,.61-58.73-.82-60.86-2.25-.58-.38-.92-16.65-1-26a7.3,7.3,0,0,1,3.85-6.81c6.68-3.05,22.44-3.94,29.37.54,1.76,1.15,3.52,7.63,3.52,7.63l-.33,6.65s21.47,10.27,23.63,12.08S174,442.1,172,442.71Z" style="fill:#c7c7c7"></path><path d="M172.18,442.79c-2,.62-59.05-.82-61.19-2.25-1-.66-1.19-12.81-1.13-25.62l37.11.83-.34,6.69s21.6,10.32,23.78,12.14S174.19,442.17,172.18,442.79Z" style="fill:#0CDAC3"></path><path d="M171.42,440.49c-9.55-.48-48.14-1.5-57.63-1.24-.07,0-.08.05,0,.06,9.46.68,48.06,1.38,57.63,1.33C171.62,440.64,171.63,440.5,171.42,440.49Z" style="fill:#263238"></path><path d="M148,420.35c-3.74-.8-8.36-.34-11.3,2.27-.12.1,0,.26.15.23a53.09,53.09,0,0,1,11.13-2A.24.24,0,0,0,148,420.35Z" style="fill:#263238"></path><path d="M150.71,422.05c-3.75-.79-8.36-.33-11.31,2.28-.11.1,0,.26.16.22a53.1,53.1,0,0,1,11.12-2A.24.24,0,0,0,150.71,422.05Z" style="fill:#263238"></path><path d="M153.38,423.76c-3.74-.8-8.36-.34-11.3,2.27-.12.1,0,.26.15.23a53.09,53.09,0,0,1,11.13-2A.24.24,0,0,0,153.38,423.76Z" style="fill:#263238"></path><path d="M156.06,425.46c-3.75-.79-8.36-.33-11.31,2.28-.11.1,0,.26.16.22a53.1,53.1,0,0,1,11.12-2A.24.24,0,0,0,156.06,425.46Z" style="fill:#263238"></path><path d="M155.2,411.82c-1.42-2.07-4.2-1.23-5.8.05a20.18,20.18,0,0,0-6,8.48.1.1,0,0,0,.09.13.47.47,0,0,0,.58.49c3.13-1.07,6.62-1.83,9.33-3.83C155,416,156.55,413.78,155.2,411.82Zm-6.73,6.55c-1.53.57-3.08,1.05-4.59,1.67,1.18-1.65,2.28-3.34,3.62-4.87a21.41,21.41,0,0,1,2.05-2.1c1.15-1,5.63-3.05,4.87,1.06C154,416.4,150.29,417.7,148.47,418.37Z" style="fill:#263238"></path><path d="M133.84,419.12c3.07,1.4,6.64,1.43,9.93,1.83a.46.46,0,0,0,.46-.59.11.11,0,0,0,.06-.16,20.05,20.05,0,0,0-7.63-7.05c-1.84-.92-4.73-1.18-5.7,1.15S132.05,418.31,133.84,419.12Zm-1.63-2.72c-1.6-3.87,3.22-2.78,4.54-2a22.13,22.13,0,0,1,2.44,1.64,60,60,0,0,1,4.55,4c-1.61-.3-3.22-.45-4.83-.69C137,419,133.09,418.53,132.21,416.4Z" style="fill:#263238"></path><path d="M136.29,442.25c-12.82-.46-24.36-1.08-25.3-1.71s-1.17-11.61-1.14-23.67Z" style="opacity:0.1"></path><rect x="125.8" y="357.27" width="7.69" height="48.93" transform="translate(234.54 770.99) rotate(-176.32)" style="fill:#dbdbdb"></rect><path d="M137.38,367.67c.4.3-2.3,4.86-3.33,5.27s-5.81.58-7.67-.26c-.89-.41-2.79-5.21-2.76-5.57S133.83,365.09,137.38,367.67Z" style="fill:#c7c7c7"></path><path d="M121.07,406.53c-.4-.3,2.37-4.82,3.41-5.22s5.81-.5,7.66.38c.88.42,2.71,5.24,2.68,5.6S124.58,409.16,121.07,406.53Z" style="fill:#c7c7c7"></path><path d="M152.92,342.47c2-.43-1.52,17.07-3.95,19.85-2.83,3.23-10.77,6.13-18.85,6-7-.09-14-4.18-16.65-6.6s-2.8-22.54-1.89-22.12C115.52,341.44,127.43,347.8,152.92,342.47Z" style="fill:#a6a6a6"></path><path d="M125.3,443.38c-2,.63-60.47-.63-62.61-2.06-.82-.53,2.24-55.94,2.24-55.94l36.59.71-1.77,37.07s21.57,10.23,23.76,12S127.3,442.76,125.3,443.38Z" style="fill:#d3766a"></path><path d="M125.3,443.38c-2,.63-60.47-.64-62.61-2.06-.45-.29.27-17.13,1-32.26l36.66,1.11-.61,13s21.58,10.22,23.76,12S127.31,442.76,125.3,443.38Z" style="fill:#ebebeb"></path><path d="M125.41,443.39c-2,.61-60.58-.63-62.72-2.07-1-.66.39-13.22.5-26l37.11,1-.37,6.68s21.56,10.4,23.73,12.23S127.42,442.78,125.41,443.39Z" style="fill:#0CDAC3"></path><path d="M124.66,441.09c-9.56-.52-48.14-1.68-57.63-1.46-.08,0-.08.06,0,.06,9.46.72,48.05,1.57,57.62,1.55C124.85,441.24,124.86,441.1,124.66,441.09Z" style="fill:#263238"></path><path d="M101.34,420.86c-3.74-.81-8.36-.37-11.31,2.23-.12.1,0,.26.15.23a52.62,52.62,0,0,1,11.13-2A.24.24,0,0,0,101.34,420.86Z" style="fill:#263238"></path><path d="M104,422.57c-3.74-.81-8.36-.36-11.31,2.24-.12.1,0,.26.15.22a53.13,53.13,0,0,1,11.13-2A.24.24,0,0,0,104,422.57Z" style="fill:#263238"></path><path d="M106.68,424.29c-3.74-.81-8.36-.37-11.31,2.23-.12.1,0,.26.15.23a52.51,52.51,0,0,1,11.13-2A.24.24,0,0,0,106.68,424.29Z" style="fill:#263238"></path><path d="M109.35,426c-3.74-.81-8.36-.36-11.32,2.24-.11.1,0,.26.16.22a53,53,0,0,1,11.13-2A.24.24,0,0,0,109.35,426Z" style="fill:#263238"></path><path d="M108.54,412.36c-1.42-2.08-4.2-1.24-5.81,0a20.16,20.16,0,0,0-6,8.45.1.1,0,0,0,.09.14c0,.29.25.6.57.49,3.14-1.06,6.63-1.81,9.35-3.8C108.29,416.5,109.89,414.32,108.54,412.36Zm-6.76,6.52c-1.53.56-3.08,1-4.59,1.66,1.19-1.65,2.29-3.33,3.64-4.86a21.49,21.49,0,0,1,2.06-2.1c1.14-1,5.64-3,4.86,1.09C107.32,416.93,103.61,418.22,101.78,418.88Z" style="fill:#263238"></path><path d="M87.16,419.58c3.06,1.41,6.63,1.45,9.91,1.86a.46.46,0,0,0,.47-.59.1.1,0,0,0,.06-.15A20,20,0,0,0,90,413.62c-1.83-.93-4.72-1.2-5.69,1.12S85.37,418.76,87.16,419.58Zm-1.63-2.73c-1.58-3.87,3.23-2.77,4.55-2a22.21,22.21,0,0,1,2.44,1.65,59.67,59.67,0,0,1,4.53,4c-1.61-.31-3.22-.47-4.83-.71C90.3,419.51,86.41,419,85.53,416.85Z" style="fill:#263238"></path><path d="M122.37,221.33s-1,16.61-5,29.73c-.32,1.09-.66,2.15-1,3.17a61.83,61.83,0,0,0-10.08,5s-2.5,63.54-2.46,67.49c.17,14.76-3.61,86.67-3.61,86.67l-36.7-.35s3.8-81.32,3.82-86.72c0-8.7,7.7-105,7.7-105Z" style="fill:#eb9481"></path><path d="M122.37,221.33s-1,16.61-5,29.73c-.31,1.09-.66,2.16-1,3.17a61.83,61.83,0,0,0-10.08,5s0,48.54-.19,54.22c0,0-37.93-1-40.86-1.83,1.84-24.07,9.8-90.31,9.8-90.31Z" style="fill:#455a64"></path><path d="M101.06,261.49c1.59-1.1,3.31-2,5-3s3.48-1.91,5.28-2.75a87.84,87.84,0,0,1,10.92-4c.09,0,.16.12.06.16-3.56,1.53-7,3.28-10.55,4.86-1.78.79-3.57,1.54-5.36,2.33s-3.52,1.67-5.32,2.42A0,0,0,1,1,101.06,261.49Z" style="fill:#263238"></path><path d="M110.54,243.49c0-1.75.17-3.49.25-5.24.21-4.11.37-8.25.75-12.36a.13.13,0,0,1,.26,0c0,3.18-.08,6.38-.14,9.56,0,1.59-.08,3.19-.12,4.78a43.54,43.54,0,0,0,0,4.57c.08,1.14.33,3.38,1.83,3.51a3,3,0,0,0,2.84-2.27,42.77,42.77,0,0,0,1.5-8.85c.18-1.74.42-9.08.33-10.85,0-.11.17-.11.17,0,.1,1.8.35,3.59.41,5.4s.06,3.59,0,5.39-.26,3.44-.52,5.15a18.24,18.24,0,0,1-1.11,4.55,4,4,0,0,1-2.76,2.59,4.4,4.4,0,0,1-.51,0c0,.37-.06.74-.09,1.1,0,.58-.11,1.15-.19,1.73A11.66,11.66,0,0,1,113,254a5.91,5.91,0,0,1-.59,1.6c0,.08-.15,0-.16,0a7.52,7.52,0,0,1,.14-1.64c.07-.56.15-1.13.27-1.68s.21-1.1.32-1.64c.08-.37.13-.74.2-1.12a2.65,2.65,0,0,1-2-1.57A9.62,9.62,0,0,1,110.54,243.49Z" style="fill:#263238"></path><path d="M69.63,303.5c11,.07,22,.55,32.92,1.54a.1.1,0,0,1,0,.2c-11,0-22-.55-32.92-1.5A.12.12,0,0,1,69.63,303.5Z" style="fill:#263238"></path><path d="M73.85,242.65a40.43,40.43,0,0,0,7.46.2,13.16,13.16,0,0,0,6.51-2.55c4.12-3.2,5.92-8.43,7-13.33,0-.11.19-.09.17,0-.46,4.26-1.38,8.66-4.12,12.08a13.4,13.4,0,0,1-4.38,3.61,12.86,12.86,0,0,1-5.79,1.19,27.57,27.57,0,0,1-6.94-.94A.14.14,0,0,1,73.85,242.65Z" style="fill:#263238"></path><path d="M156.75,152.51,145.39,176.2a.9.9,0,0,0,.55,1.49l12.88,2.62a2.12,2.12,0,0,0,2.06-1l11.36-23.69a.9.9,0,0,0-.55-1.49l-12.88-2.62A2.12,2.12,0,0,0,156.75,152.51Z" style="fill:#263238"></path><path d="M158.28,152.81,146.92,176.5a.9.9,0,0,0,.55,1.49l12.88,2.62a2.13,2.13,0,0,0,2.06-1L173.78,156a.92.92,0,0,0-.55-1.5l-12.89-2.62A2.15,2.15,0,0,0,158.28,152.81Z" style="fill:#455a64"></path><path d="M161.58,154.67a1.11,1.11,0,1,1-.84-1.34A1.12,1.12,0,0,1,161.58,154.67Z" style="fill:#263238"></path><path d="M107.54,181.88c4,17,16,40.64,22.79,42.16,3.21.73,8.79,2.72,13.79-.08,10.93-6.11,21.9-19.9,25.35-28.39,1.22-3-12.61-13.08-15.41-11-6.55,4.87-15.19,15.31-16.11,15-3.41-1-14.54-15.13-22.3-25.07C106.23,162.47,106,175.08,107.54,181.88Z" style="fill:#eb9481"></path><path d="M173.29,179.42c-.26-6.72-1.36-8.41,1.43-14.2,1.83-3.79.19-6.59-3.33-4-5.76,4.27-7.24,13-6.89,16.19Z" style="fill:#eb9481"></path><path d="M168.14,198.14s4.73-8.28,5.16-15.47c.3-5-.26-15.85-12.59-24.16-2.92-2-8.49-2.7-4.88,2.25,2.56,3.52,5.25,5,6.37,7.29,0,0-7.19-.09-9,2.92a64.21,64.21,0,0,0-4.29,8.2,14.64,14.64,0,0,0,1.46.94s-1.47,3-.11,7.83Z" style="fill:#eb9481"></path><path d="M172.83,177.88c-1.6-2.06-5.05-6.38-9.11-8.93-4.51-2.83-13.95-7.08-16-3.73-1.5,2.46,2,4.39,2,4.39s-4.27-.93-5.15,1.59c-.8,2.29,2,3.63,2,3.63s-2.69-.12-3,2.23c-.41,2.84,5.29,2.62,7.35,5.86C151.26,183.64,172.83,177.88,172.83,177.88Z" style="fill:#eb9481"></path><path d="M161.52,174.21a21.15,21.15,0,0,0-11.75-4.65c-.11,0-.18.08-.08.1a52.27,52.27,0,0,1,11.8,4.59S161.54,174.23,161.52,174.21Z" style="fill:#263238"></path><path d="M158.53,178.67a23.85,23.85,0,0,0-12-3.94c-.11,0-.17.09-.07.11a55.62,55.62,0,0,1,12.05,3.88A0,0,0,0,0,158.53,178.67Z" style="fill:#263238"></path><path d="M111,197.67l15.55-10.56s-8-10.39-13.94-16.29c-5.62-5.57-8.24.09-6.86,7.68S111,197.67,111,197.67Z" style="fill:#0CDAC3"></path><path d="M114.17,184.4a7.06,7.06,0,0,0-.45,3.75,6.8,6.8,0,0,0,.47-1.85A6.38,6.38,0,0,0,114.17,184.4Zm-.83-8.76a7.09,7.09,0,0,0,1.85.47,6.8,6.8,0,0,0,1.91,0,6.78,6.78,0,0,0-1.85-.46A6.45,6.45,0,0,0,113.34,175.64Zm-7.5,3.49.09.51a6.38,6.38,0,0,0,1.1-1.16A4.88,4.88,0,0,0,105.84,179.13Zm14.79,9.36a6.92,6.92,0,0,0,1.64-1,6.61,6.61,0,0,0,1.33-1.36,7.19,7.19,0,0,0-3,2.34Z" style="fill:#fff"></path><path d="M110.88,193.3c1-.85,5.22-3.91,6.32-4.66,2.11-1.47,4.28-2.83,6.43-4.22.07,0,.14.07.08.11-2.14,1.52-4.24,3.08-6.39,4.58-1.06.74-4.75,3.32-6.37,4.3C110.88,193.45,110.82,193.35,110.88,193.3Z" style="fill:#263238"></path><path d="M105.71,178.5c1.38,7.59,5.25,19.17,5.25,19.17l3-2-6-27C105.63,169.31,104.79,173.49,105.71,178.5Z" style="fill:#263238"></path><path d="M71.72,238.89c.14.15,57.31-1.28,57.82-1.88.7-.84-14.82-59.56-19-68.26-1.77-3.71-11-4.64-14.76-1.37-9.5,8.19-17,35.65-18.75,43.91C74.25,224.9,71.24,238.37,71.72,238.89Z" style="fill:#0CDAC3"></path><path d="M101.33,184.21a6.73,6.73,0,0,0,.49,1.85,6.38,6.38,0,0,0,.94,1.66,7.47,7.47,0,0,0-1.43-3.51Zm5.51,23.85a6.72,6.72,0,0,0,.48,1.85,6.63,6.63,0,0,0,.94,1.65,6.17,6.17,0,0,0-.49-1.85A6.77,6.77,0,0,0,106.84,208.06ZM112.19,234a7.6,7.6,0,0,0,1.42,3.51,6.38,6.38,0,0,0-.48-1.85A6.68,6.68,0,0,0,112.19,234Zm-25-32.41a7.12,7.12,0,0,0,.48,1.84,6.66,6.66,0,0,0,1,1.65,6.76,6.76,0,0,0-.49-1.84A7,7,0,0,0,87.19,201.57Zm-9,16.36a7.09,7.09,0,0,0,.48,1.85,7,7,0,0,0,.94,1.65,7.34,7.34,0,0,0-1.42-3.5Zm22,10.28a7.11,7.11,0,0,0,.49,1.85,7,7,0,0,0,.94,1.65,6.74,6.74,0,0,0-.48-1.84A6.59,6.59,0,0,0,100.2,228.21Zm18.23-29.61a7.36,7.36,0,0,0,1.42,3.49,6.74,6.74,0,0,0-.48-1.84A6.63,6.63,0,0,0,118.43,198.6Zm-25.26-6a6.48,6.48,0,0,0,1.85-.49,6.59,6.59,0,0,0,1.65-.93,6.32,6.32,0,0,0-1.84.48A6.38,6.38,0,0,0,93.17,192.58ZM88,215.13a6.4,6.4,0,0,0,1.84-.48,7,7,0,0,0,1.65-.94A7.36,7.36,0,0,0,88,215.13Zm1.74,23.39h.5l.51,0,.39-.14a6.8,6.8,0,0,0,1.65-.95,6.76,6.76,0,0,0-1.84.49A7,7,0,0,0,89.72,238.52Zm22.16-18.73a6.6,6.6,0,0,0,1.83-.49,7.08,7.08,0,0,0,1.67-.94,7.12,7.12,0,0,0-3.5,1.43Zm15.54,16.66a6.64,6.64,0,0,0,1.85-.49l.16-.07c0-.15-.05-.31-.08-.48l-.26.1A6.74,6.74,0,0,0,127.42,236.45ZM95.8,177.09a7.09,7.09,0,0,0,1.85-.48,6.72,6.72,0,0,0,1.66-1,6.66,6.66,0,0,0-1.84.49A7.28,7.28,0,0,0,95.8,177.09Zm-8.86,6.64a7.12,7.12,0,0,0,1-1.64,6.94,6.94,0,0,0,.5-1.84,6.89,6.89,0,0,0-1,1.65A6.71,6.71,0,0,0,86.94,183.73Zm-7.61,25.36a6.52,6.52,0,0,0,1-1.64,6.42,6.42,0,0,0,.51-1.85,7.24,7.24,0,0,0-1,1.65A6.69,6.69,0,0,0,79.33,209.09Zm-.38,24a6.49,6.49,0,0,0,1-1.65,6.22,6.22,0,0,0,.52-1.83,6.5,6.5,0,0,0-1,1.64A6.58,6.58,0,0,0,79,233.09Zm28.65-34a7.09,7.09,0,0,0,1-1.65,6.77,6.77,0,0,0,.5-1.84,7.56,7.56,0,0,0-1,1.64A6.75,6.75,0,0,0,107.6,199.05Zm-9.25,21.17a6.4,6.4,0,0,0,1-1.65,6.6,6.6,0,0,0,.51-1.84,6.7,6.7,0,0,0-1,1.65A6.6,6.6,0,0,0,98.35,220.22ZM120.54,230a6.52,6.52,0,0,0,1-1.65,6.61,6.61,0,0,0,.5-1.83,6.74,6.74,0,0,0-1,1.64A6.6,6.6,0,0,0,120.54,230Zm-13.19-49.41a7.22,7.22,0,0,0,1.46-3.48,7.33,7.33,0,0,0-1.46,3.48Zm4.94,7.89a6.78,6.78,0,0,0,1.64,1,6.6,6.6,0,0,0,1.84.51,7.22,7.22,0,0,0-3.48-1.47ZM87.66,225a7.09,7.09,0,0,0,1.65,1,6.79,6.79,0,0,0,1.84.51,6.7,6.7,0,0,0-1.65-1A7,7,0,0,0,87.66,225ZM71.91,236.57l.22.1a6.64,6.64,0,0,0,1.83.52,6.68,6.68,0,0,0-1.64-1l-.33-.13A4.37,4.37,0,0,0,71.91,236.57Zm46.72-26.34a7,7,0,0,0,1.65,1,6.62,6.62,0,0,0,1.83.51,6.47,6.47,0,0,0-1.64-1A6.26,6.26,0,0,0,118.63,210.23ZM83.07,190.55a7.12,7.12,0,0,0,1.38.76,6.26,6.26,0,0,0,1.84.5,6.86,6.86,0,0,0-1.66-.95,6.3,6.3,0,0,0-1.51-.46A.3.3,0,0,0,83.07,190.55Zm22.3,35.22a6.52,6.52,0,0,0,1.64,1,6.76,6.76,0,0,0,1.85.51,6.89,6.89,0,0,0-1.65-1A6.79,6.79,0,0,0,105.37,225.77ZM97.8,202a6.87,6.87,0,0,0,1.64,1,7.17,7.17,0,0,0,1.84.51,6.24,6.24,0,0,0-1.65-1A6.31,6.31,0,0,0,97.8,202Z" style="fill:#fff"></path><path d="M91.89,170.37c-16.4,13-29.79,33-30.56,38.18-.84,5.64.83,26.16,6,36.64,1.37,2.77,22.5-9.41,21.16-12.43C85.92,227,82.2,211.09,82.82,208c.58-2.9,10.48-19.54,14.87-29.4C101.9,169.07,99.52,164.32,91.89,170.37Z" style="fill:#eb9481"></path><path d="M88.19,232.05s7.23,6.45,11.76,10.89c2.53,2.48,6.49,7.11,7.51,9.78,1.53,4,5.39,21.67,1.13,22.7-3.87.93-5.25-14.68-5.25-14.68s2.79,15.63-2.07,15.89-4.07-17.57-4.07-17.57,2.5,16.12-2.55,15.6c-3.81-.39-4-16.6-4-16.6s2.06,13.88-1.88,13.64c-4.36-.26-5.49-15.2-5.49-15.2-9.92-2.28-13.71-7.43-16-11.41C66.74,244.13,88.19,232.05,88.19,232.05Z" style="fill:#eb9481"></path><path d="M102.72,255.27c.39,1.83.8,3.67,1,5.52s.4,3.72.46,5.59a31.93,31.93,0,0,1-.47,7.28,67.7,67.7,0,0,0-.5-12.82c-.23-1.85-.36-3.71-.59-5.56C102.64,255.23,102.71,255.23,102.72,255.27Z" style="fill:#263238"></path><path d="M96,256c.41,2.35.89,4.67,1.19,7s.37,4.62.51,7c0,.18-.09.13-.11-.06-.23-2.36-.62-4.53-.88-6.89S96.3,258.33,96,256C96,256,96,256,96,256Z" style="fill:#263238"></path><path d="M90.15,255.56a53.18,53.18,0,0,1,1,10.91c0,.18-.12.09-.13-.09-.26-3.63-.44-6.48-1-10.79C90,255.52,90.13,255.49,90.15,255.56Z" style="fill:#263238"></path><path d="M75.78,183.94,92.24,193s6.1-11.63,7.63-19.4-3.23-7.71-9.37-3S75.78,183.94,75.78,183.94Z" style="fill:#0CDAC3"></path><path d="M93.89,168.41a4.87,4.87,0,0,0,.23,1.29,5.57,5.57,0,0,0,.22-1.51Zm-5.82,21.16a6.8,6.8,0,0,0,1.89.23,6.48,6.48,0,0,0,1.89-.26,7.41,7.41,0,0,0-3.78,0Zm8.15-13.42a7.32,7.32,0,0,0,1.9.23c.37,0,.73,0,1.09-.09a2.07,2.07,0,0,0,.1-.33,9.64,9.64,0,0,0-1.19-.08A6.92,6.92,0,0,0,96.22,176.15Zm-10.69,2.9a6.87,6.87,0,0,0,1.5-1.17,7,7,0,0,0,1.15-1.52,6.49,6.49,0,0,0-1.5,1.17A6.61,6.61,0,0,0,85.53,179.05ZM79.42,184a7,7,0,0,0,1,1.22A6.47,6.47,0,0,0,82,186.33a6.45,6.45,0,0,0-1.19-1.5,5.77,5.77,0,0,0-1.24-1A.52.52,0,0,0,79.42,184Z" style="fill:#fff"></path><path d="M79.42,181.41c1.2.52,5.79,3,7,3.66,2.23,1.26,4.4,2.62,6.59,4,.07,0,0,.15-.07.11-2.29-1.26-4.61-2.47-6.89-3.75-1.13-.63-5.06-2.84-6.65-3.87C79.29,181.48,79.35,181.38,79.42,181.41Z" style="fill:#263238"></path><path d="M90.79,192.24c.07,0,1.11.56,1.4.7.87-1.86,1.84-4.1,2.79-6.23s2-4.31,2.91-6.49a0,0,0,1,1,.07,0c-.47,1.28-.94,2.56-1.44,3.84.45-.7.89-1.39,1.35-2.07,0,0,.08,0,.06,0a23.51,23.51,0,0,1-1.73,2.85q-.42,1.05-.87,2.07a64.07,64.07,0,0,1-3,6.32,14.83,14.83,0,0,1-1.59-1A0,0,0,0,1,90.79,192.24Z" style="fill:#263238"></path><path d="M107.57,178.45c-3.31.1-8.36-6.37-9.7-10.72-.09-.3.9-3,1.94-6.43.62-2.06,1.27-4.37,1.71-6.52l12.81,6a34.73,34.73,0,0,0-3,8,4.81,4.81,0,0,0-.09.9.81.81,0,0,1,0,.15C111.18,171.57,110.77,178.35,107.57,178.45Z" style="fill:#eb9481"></path><path d="M102.18,155.09c-.13,3,0,12.81,7.66,14.54a8.75,8.75,0,0,0,1.4.22c0-.06,0-.12,0-.16a5.78,5.78,0,0,1,.08-.9,34.73,34.73,0,0,1,3-8Z" style="fill:#263238"></path><path d="M102.1,138.84c-2.21,4.6-1.77,18.91,1.19,22.54,4.28,5.26,12.36,6.92,17.09,1.52,4.59-5.23,3.69-23.87.29-27.28C115.66,130.61,105.35,132.05,102.1,138.84Z" style="fill:#eb9481"></path><path d="M114.44,150s-.07,0-.07.09c0,1-.05,2.07-.91,2.42,0,0,0,.06,0,.05C114.53,152.34,114.65,150.87,114.44,150Z" style="fill:#263238"></path><path d="M113.55,149c-1.55-.08-1.59,3-.15,3.1S114.86,149,113.55,149Z" style="fill:#263238"></path><path d="M119.92,149.86s.07,0,.07.08c0,1,.07,2.08.94,2.41,0,0,0,.06,0,.05C119.85,152.24,119.72,150.76,119.92,149.86Z" style="fill:#263238"></path><path d="M120.79,148.86c1.55-.1,1.63,3,.19,3.11S119.49,148.94,120.79,148.86Z" style="fill:#263238"></path><path d="M112.34,147.54c.43-.11.81-.27,1.22-.41a2.08,2.08,0,0,0,1.15-.65.65.65,0,0,0-.09-.8,1.62,1.62,0,0,0-1.65-.19,2.37,2.37,0,0,0-1.39,1A.7.7,0,0,0,112.34,147.54Z" style="fill:#263238"></path><path d="M122,147.31c-.43-.08-.82-.22-1.24-.34a2,2,0,0,1-1.19-.58.66.66,0,0,1,0-.81,1.65,1.65,0,0,1,1.63-.28,2.38,2.38,0,0,1,1.45.94A.7.7,0,0,1,122,147.31Z" style="fill:#263238"></path><path d="M113.06,158.53c.23.23.45.54.8.58a2.67,2.67,0,0,0,1-.23s.07,0,0,.05a1.32,1.32,0,0,1-1.24.51,1,1,0,0,1-.74-.87S113,158.5,113.06,158.53Z" style="fill:#263238"></path><path d="M114.11,155.66a3.31,3.31,0,0,0,2.18,1.49,4.22,4.22,0,0,0,1.18.07l.22,0,.21,0a.24.24,0,0,0,.2-.22h0a.31.31,0,0,0,0-.1h0v-.09c0-.74,0-1.87,0-1.87.27.14,1.64.78,1.62.39a49.19,49.19,0,0,0-1.13-10,.09.09,0,0,0-.18,0c0,3.09.58,6.17.65,9.27a5.94,5.94,0,0,0-1.54-.49c-.11,0,.15,2.19.11,2.52a.08.08,0,0,1,0,0,4.47,4.47,0,0,1-3.38-1.1C114.13,155.52,114.06,155.58,114.11,155.66Z" style="fill:#263238"></path><path d="M117,156.84a3.84,3.84,0,0,1-1.57,1.18,1.77,1.77,0,0,1-1.07.06c-.77-.22-.78-.92-.63-1.53a4.18,4.18,0,0,1,.36-.92A5.06,5.06,0,0,0,117,156.84Z" style="fill:#263238"></path><path d="M115.46,158a1.77,1.77,0,0,1-1.07.06c-.77-.22-.78-.92-.63-1.53A1.82,1.82,0,0,1,115.46,158Z" style="fill:#ff9bbc"></path><path d="M100.84,150.05s-2.26-9.16-.44-13.48c.82-1.95,4-2.45,4-2.45a4.76,4.76,0,0,1,2.86-4.13c3.08-1.5,8.69.8,8.69.8s5.42-4.23,10-.44-.69,8.71-.69,8.71,1.08,3.35-4.33,4-14.06-4.35-14.06-4.35a34.24,34.24,0,0,1-3.19,9.73A3.15,3.15,0,0,1,100.84,150.05Z" style="fill:#263238"></path><path d="M116.83,131.15a9.69,9.69,0,0,0-3.51-1.84,10.45,10.45,0,0,0-3.51-.52,5.81,5.81,0,0,0-5.21,3,4.08,4.08,0,0,0-.18,3.16s.08,0,.07,0c-.76-1.9.62-4.05,2.28-4.93a8.83,8.83,0,0,1,6.22-.32,17.26,17.26,0,0,1,3.77,1.63A.06.06,0,0,0,116.83,131.15Z" style="fill:#263238"></path><path d="M129,134.08a4.74,4.74,0,0,0-2.24-3.87,8.09,8.09,0,0,0-5.06-1.38,10.19,10.19,0,0,0-5,1.76s0,.08,0,.06a9,9,0,0,1,9.13-.5,4.38,4.38,0,0,1,1.32,7.26,9.15,9.15,0,0,1-4.46,2.35s0,.07,0,.06A9.41,9.41,0,0,0,127,138,5.31,5.31,0,0,0,129,134.08Z" style="fill:#263238"></path><path d="M122,143.7a16.71,16.71,0,0,1-7-.92,34.39,34.39,0,0,1-6.7-3.14c-1.24-.74-2.44-1.53-3.64-2.34,0,0-.07,0,0,.06a37.24,37.24,0,0,0,6.48,4.45A18.71,18.71,0,0,0,118,143.9a16.22,16.22,0,0,0,4-.15S122.06,143.69,122,143.7Z" style="fill:#263238"></path><path d="M103.8,150.54s-2.57-4.93-4.77-4.07-.68,7.72,1.61,8.93a2.47,2.47,0,0,0,3.45-.89Z" style="fill:#eb9481"></path><path d="M99.52,148.42a0,0,0,0,0,0,.07,6.24,6.24,0,0,1,2.69,4.29,1.38,1.38,0,0,0-2-.64s0,.1,0,.1a1.53,1.53,0,0,1,1.59.74,7.41,7.41,0,0,1,.61,1.45c.06.16.35.11.31-.07v0C103.08,152.17,101.8,148.94,99.52,148.42Z" style="fill:#263238"></path></g></svg>